<?xml version="1.0" encoding="UTF-8" standalone="no"?>
<!-- Created with Inkscape (http://www.inkscape.org/) -->

<svg
   version="1.1"
   id="svg1"
   width="602.52808"
   height="119.01476"
   viewBox="0 0 602.52808 119.01476"
   sodipodi:docname="differentielles Backup vs. inkrementales Backup.pdf"
   xmlns:inkscape="http://www.inkscape.org/namespaces/inkscape"
   xmlns:sodipodi="http://sodipodi.sourceforge.net/DTD/sodipodi-0.dtd"
   xmlns="http://www.w3.org/2000/svg"
   xmlns:svg="http://www.w3.org/2000/svg">
  <defs
     id="defs1" />
  <sodipodi:namedview
     id="namedview1"
     pagecolor="#ffffff"
     bordercolor="#000000"
     borderopacity="0.25"
     inkscape:showpageshadow="2"
     inkscape:pageopacity="0.0"
     inkscape:pagecheckerboard="0"
     inkscape:deskcolor="#d1d1d1"
     showgrid="false" />
  <g
     id="g1"
     inkscape:groupmode="layer"
     inkscape:label="1"
     transform="translate(-74.553283,-102.86235)">
    <path
       id="path7"
       d="m 56.693,742.109 h 450.312 v 21.969 H 56.693 Z"
       style="fill:#fff5ce;fill-opacity:1;fill-rule:evenodd;stroke:none"
       transform="matrix(1.3333333,0,0,-1.3333333,0,1122.5197)" />
    <path
       id="path8"
       d="m 56.693,676.289 h 66.444 v 65.849 H 56.693 Z"
       style="fill:#fff5ce;fill-opacity:1;fill-rule:evenodd;stroke:none"
       transform="matrix(1.3333333,0,0,-1.3333333,0,1122.5197)" />
    <path
       id="path9"
       d="m 123.109,676.289 h 383.896 v 65.849 H 123.109 Z"
       style="fill:#eeeeee;fill-opacity:1;fill-rule:evenodd;stroke:none"
       transform="matrix(1.3333333,0,0,-1.3333333,0,1122.5197)" />
    <path
       id="path10"
       d="m 55.928,763.993 h 451.87"
       style="fill:none;stroke:#ffffff;stroke-width:1.50007;stroke-linecap:butt;stroke-linejoin:round;stroke-miterlimit:10;stroke-dasharray:none;stroke-opacity:1"
       transform="matrix(1.3333333,0,0,-1.3333333,0,1122.5197)" />
    <path
       id="path11"
       d="M 56.665,764.73 V 675.495"
       style="fill:none;stroke:#ffffff;stroke-width:1.50007;stroke-linecap:butt;stroke-linejoin:round;stroke-miterlimit:10;stroke-dasharray:none;stroke-opacity:1"
       transform="matrix(1.3333333,0,0,-1.3333333,0,1122.5197)" />
    <path
       id="path12"
       d="M 123.194,764.73 V 675.495"
       style="fill:none;stroke:#ffffff;stroke-width:1.50007;stroke-linecap:butt;stroke-linejoin:round;stroke-miterlimit:10;stroke-dasharray:none;stroke-opacity:1"
       transform="matrix(1.3333333,0,0,-1.3333333,0,1122.5197)" />
    <path
       id="path13"
       d="M 187.172,764.73 V 675.495"
       style="fill:none;stroke:#ffffff;stroke-width:1.50007;stroke-linecap:butt;stroke-linejoin:round;stroke-miterlimit:10;stroke-dasharray:none;stroke-opacity:1"
       transform="matrix(1.3333333,0,0,-1.3333333,0,1122.5197)" />
    <path
       id="path14"
       d="M 251.15,764.73 V 675.495"
       style="fill:none;stroke:#ffffff;stroke-width:1.50007;stroke-linecap:butt;stroke-linejoin:round;stroke-miterlimit:10;stroke-dasharray:none;stroke-opacity:1"
       transform="matrix(1.3333333,0,0,-1.3333333,0,1122.5197)" />
    <path
       id="path15"
       d="M 315.128,764.73 V 675.495"
       style="fill:none;stroke:#ffffff;stroke-width:1.50007;stroke-linecap:butt;stroke-linejoin:round;stroke-miterlimit:10;stroke-dasharray:none;stroke-opacity:1"
       transform="matrix(1.3333333,0,0,-1.3333333,0,1122.5197)" />
    <path
       id="path16"
       d="M 379.106,764.73 V 675.495"
       style="fill:none;stroke:#ffffff;stroke-width:1.50007;stroke-linecap:butt;stroke-linejoin:round;stroke-miterlimit:10;stroke-dasharray:none;stroke-opacity:1"
       transform="matrix(1.3333333,0,0,-1.3333333,0,1122.5197)" />
    <path
       id="path17"
       d="M 443.083,764.73 V 675.495"
       style="fill:none;stroke:#ffffff;stroke-width:1.50007;stroke-linecap:butt;stroke-linejoin:round;stroke-miterlimit:10;stroke-dasharray:none;stroke-opacity:1"
       transform="matrix(1.3333333,0,0,-1.3333333,0,1122.5197)" />
    <path
       id="path18"
       d="M 507.061,764.73 V 675.495"
       style="fill:none;stroke:#ffffff;stroke-width:1.50007;stroke-linecap:butt;stroke-linejoin:round;stroke-miterlimit:10;stroke-dasharray:none;stroke-opacity:1"
       transform="matrix(1.3333333,0,0,-1.3333333,0,1122.5197)" />
    <path
       id="path19"
       d="M 507.061,764.73 V 675.495"
       style="fill:none;stroke:#ffffff;stroke-width:1.50007;stroke-linecap:butt;stroke-linejoin:round;stroke-miterlimit:10;stroke-dasharray:none;stroke-opacity:1"
       transform="matrix(1.3333333,0,0,-1.3333333,0,1122.5197)" />
    <path
       id="path20"
       d="m 55.928,742.053 h 451.87"
       style="fill:none;stroke:#ffffff;stroke-width:1.50007;stroke-linecap:butt;stroke-linejoin:round;stroke-miterlimit:10;stroke-dasharray:none;stroke-opacity:1"
       transform="matrix(1.3333333,0,0,-1.3333333,0,1122.5197)" />
    <path
       id="path21"
       d="m 55.928,720.113 h 451.87"
       style="fill:none;stroke:#ffffff;stroke-width:1.50007;stroke-linecap:butt;stroke-linejoin:round;stroke-miterlimit:10;stroke-dasharray:none;stroke-opacity:1"
       transform="matrix(1.3333333,0,0,-1.3333333,0,1122.5197)" />
    <path
       id="path22"
       d="m 55.928,698.172 h 451.87"
       style="fill:none;stroke:#ffffff;stroke-width:1.50007;stroke-linecap:butt;stroke-linejoin:round;stroke-miterlimit:10;stroke-dasharray:none;stroke-opacity:1"
       transform="matrix(1.3333333,0,0,-1.3333333,0,1122.5197)" />
    <path
       id="path23"
       d="m 55.928,676.232 h 451.87"
       style="fill:none;stroke:#ffffff;stroke-width:1.50007;stroke-linecap:butt;stroke-linejoin:round;stroke-miterlimit:10;stroke-dasharray:none;stroke-opacity:1"
       transform="matrix(1.3333333,0,0,-1.3333333,0,1122.5197)" />
    <path
       id="path24"
       d="m 55.928,676.232 h 451.87"
       style="fill:none;stroke:#ffffff;stroke-width:1.50007;stroke-linecap:butt;stroke-linejoin:round;stroke-miterlimit:10;stroke-dasharray:none;stroke-opacity:1"
       transform="matrix(1.3333333,0,0,-1.3333333,0,1122.5197)" />
    <path
       id="path25"
       d="M 7.3824766,-0.00110753 H 6.2691953 L 5.0738828,-4.3722013 c -0.079102,-0.2724609 -0.1933594,-0.7646484 -0.3398437,-1.4765625 -0.087891,0.3837891 -0.1611328,0.703125 -0.2226563,0.9609375 -0.055664,0.2519531 -0.4980469,1.8808594 -1.3242187,4.88671877 H 2.0738828 L 0.04653906,-6.8917325 H 1.0191953 L 2.2496641,-2.50892 c 0.1464843,0.5478515 0.2841797,1.1103515 0.4101562,1.68749997 C 2.7359922,-1.1788419 2.8268125,-1.57142 2.9293516,-1.993295 3.0289609,-2.41517 3.4830625,-4.047006 4.2887266,-6.8917325 h 0.890625 L 6.3746641,-2.60267 c 0.1875,0.703125 0.3310547,1.2978515 0.4335937,1.78124997 l 0.046875,-0.17578125 C 6.9400938,-1.3722013 7.0104063,-1.6768888 7.0660703,-1.9112638 7.1188047,-2.1456388 7.5758359,-3.8038419 8.4371641,-6.8917325 H 9.4098203 Z M 14.551422,-2.649545 c 0,0.9228515 -0.205078,1.6113281 -0.609375,2.06249997 -0.407227,0.45410156 -0.996094,0.6796875 -1.769531,0.6796875 -0.773438,0 -1.359375,-0.234375 -1.757813,-0.703125 C 10.022125,-1.0792325 9.8287656,-1.75892 9.8287656,-2.649545 c 0,-1.828125 0.7880864,-2.7421875 2.3671874,-2.7421875 0.811524,0 1.40625,0.2226562 1.78125,0.6679687 0.38086,0.4453125 0.574219,1.1367188 0.574219,2.0742188 z m -0.925781,0 c 0,-0.7265625 -0.111328,-1.2539063 -0.328125,-1.5820313 -0.210938,-0.3339844 -0.574219,-0.5039062 -1.089844,-0.5039062 -0.515625,0 -0.887695,0.1699218 -1.113281,0.5039062 -0.228516,0.3369141 -0.339844,0.8642578 -0.339844,1.5820313 0,0.6972656 0.111328,1.21875 0.339844,1.5703125 0.225586,0.35156247 0.580078,0.52734372 1.066406,0.52734372 0.521484,0 0.896484,-0.16699219 1.125,-0.50390622 0.225586,-0.3427735 0.339844,-0.8730469 0.339844,-1.59375 z m 2.721679,-0.023437 c 0,0.703125 0.108399,1.227539 0.328125,1.5703125 0.216797,0.33691403 0.553711,0.50390622 1.007813,0.50390622 0.310547,0 0.568359,-0.0820313 0.773437,-0.24609375 0.210938,-0.16992187 0.342774,-0.43359377 0.398438,-0.78515627 l 0.878906,0.058594 c -0.06445,0.5097656 -0.27832,0.91406247 -0.644531,1.21874997 -0.369141,0.29882813 -0.829102,0.4453125 -1.382813,0.4453125 -0.74414,0 -1.30957,-0.22851562 -1.699218,-0.69140625 C 15.614898,-1.0675138 15.421539,-1.750131 15.421539,-2.649545 c 0,-0.890625 0.193359,-1.5703125 0.585938,-2.0390625 0.389648,-0.46875 0.952148,-0.703125 1.6875,-0.703125 0.539062,0 0.984375,0.140625 1.335937,0.421875 0.357422,0.28125 0.585938,0.6679687 0.679688,1.1601562 l -0.902344,0.070312 c -0.04687,-0.2958984 -0.164063,-0.5302734 -0.351563,-0.703125 -0.1875,-0.1699219 -0.451172,-0.2578125 -0.785156,-0.2578125 -0.46875,0 -0.808594,0.1582031 -1.019531,0.46875 -0.205078,0.3046875 -0.304688,0.8261719 -0.304688,1.5585948 z m 5.200196,-1.710938 c 0.1875,-0.3427735 0.413086,-0.5976563 0.679687,-0.7617188 0.263672,-0.1640625 0.600586,-0.2460937 1.007813,-0.2460937 0.577148,0 0.999023,0.1464843 1.265625,0.4335937 0.272461,0.28125 0.410156,0.7587891 0.410156,1.4296875 v 3.52734377 H 24.031891 V -3.35267 c 0,-0.375 -0.03516,-0.6503907 -0.105469,-0.8320313 -0.06445,-0.1787109 -0.175781,-0.3105469 -0.339844,-0.3984375 -0.158203,-0.084961 -0.37207,-0.1289062 -0.644531,-0.1289062 -0.416016,0 -0.74707,0.1464843 -0.996094,0.4335937 -0.251953,0.2900391 -0.375,0.6767578 -0.375,1.1601563 v 3.11718747 H 20.692047 V -7.2550138 h 0.878906 v 1.8867188 c 0,0.2050781 -0.0088,0.4101562 -0.02344,0.6210937 -0.0088,0.2109375 -0.01172,0.3339844 -0.01172,0.3632813 z M 26.944,-2.462045 c 0,0.609375 0.123047,1.078125 0.375,1.40625 0.249023,0.32812497 0.615234,0.49218747 1.101563,0.49218747 0.380859,0 0.685546,-0.0732422 0.914062,-0.22265625 0.234375,-0.15527344 0.389648,-0.35156252 0.46875,-0.58593752 l 0.773438,0.2226563 c -0.322266,0.82910153 -1.04004,1.24218747 -2.15625,1.24218747 -0.782227,0 -1.379883,-0.22851562 -1.792969,-0.69140625 -0.407227,-0.46875002 -0.609375,-1.16308592 -0.609375,-2.08593752 0,-0.8671875 0.202148,-1.5351562 0.609375,-2.0039062 0.413086,-0.46875 0.999023,-0.703125 1.757812,-0.703125 1.552735,0 2.332032,0.9375 2.332032,2.8125 v 0.1171875 z m 2.859375,-0.6679688 c -0.04687,-0.5625 -0.1875,-0.9667969 -0.421875,-1.21875 -0.234375,-0.2578125 -0.571289,-0.3867187 -1.007812,-0.3867187 -0.430665,0 -0.770508,0.1464843 -1.019532,0.4335937 -0.251953,0.28125 -0.383789,0.6738281 -0.398437,1.171875 z m 5.416992,3.12890627 V -3.35267 c 0,-0.3515625 -0.03516,-0.6210938 -0.105469,-0.8085938 -0.06445,-0.1933594 -0.172851,-0.3339844 -0.328125,-0.421875 -0.149414,-0.084961 -0.36914,-0.1289062 -0.65625,-0.1289062 -0.421875,0 -0.758789,0.149414 -1.007812,0.4453125 -0.243164,0.290039 -0.363281,0.6914062 -0.363281,1.2070312 v 3.05859377 H 31.880523 V -4.1612638 c 0,-0.6152344 -0.0088,-0.9902344 -0.02344,-1.125 h 0.832031 c 0,0.017578 0,0.058594 0,0.1289063 0.0059,0.070312 0.01172,0.1523437 0.01172,0.2460937 0.0059,0.09375 0.01465,0.2695313 0.02344,0.5273438 h 0.01172 c 0.202149,-0.366211 0.436524,-0.6240235 0.703125,-0.7734375 0.263672,-0.1552735 0.591797,-0.234375 0.984375,-0.234375 0.585938,0 1.010742,0.1464843 1.277344,0.4335937 0.263672,0.2900391 0.398437,0.7675781 0.398437,1.4296875 v 3.52734377 z m 4.268555,-0.03515625 c -0.290039,0.07617188 -0.585938,0.1171875 -0.890625,0.1171875 -0.703125,0 -1.054688,-0.3984375 -1.054688,-1.19531252 v -3.5390625 h -0.609375 v -0.6328125 h 0.644532 l 0.257812,-1.1835937 h 0.585938 v 1.1835937 h 0.984375 v 0.6328125 h -0.984375 v 3.3398438 c 0,0.2578125 0.03809,0.4394531 0.117187,0.53906247 0.08496,0.10253906 0.234375,0.15234375 0.445313,0.15234375 0.117187,0 0.284179,-0.0234375 0.503906,-0.0703125 z m 2.112305,0.12890625 c -0.533204,0 -0.934571,-0.13476562 -1.207032,-0.41015625 -0.266601,-0.28125 -0.398437,-0.66796875 -0.398437,-1.16015622 0,-0.5449219 0.178711,-0.9638672 0.539062,-1.2539063 0.357422,-0.2958984 0.94043,-0.4570312 1.746094,-0.4804687 l 1.183594,-0.011719 v -0.2929687 c 0,-0.4277344 -0.09082,-0.7324219 -0.269531,-0.9140625 -0.181641,-0.1875 -0.465821,-0.28125 -0.855469,-0.28125 -0.398438,0 -0.688477,0.067383 -0.867188,0.1992187 -0.18164,0.1347656 -0.287109,0.3457031 -0.316406,0.6328125 l -0.925781,-0.082031 c 0.146484,-0.9521485 0.855469,-1.4296875 2.121094,-1.4296875 0.662109,0 1.163086,0.1523437 1.5,0.4570312 0.333984,0.3046875 0.503906,0.7470703 0.503906,1.3242188 v 2.2851562 c 0,0.2578125 0.03516,0.45410158 0.105469,0.58593752 0.07031,0.13476563 0.199218,0.19921875 0.386718,0.19921875 0.08496,0 0.181641,-0.0117188 0.292969,-0.0351563 v 0.5390625 c -0.219726,0.05273438 -0.445312,0.08203125 -0.679687,0.08203125 -0.328125,0 -0.56836,-0.08496094 -0.714844,-0.2578125 C 43.596344,-0.3819669 43.514313,-0.64856847 43.499664,-1.00892 h -0.03516 c -0.219727,0.39843747 -0.480469,0.68554685 -0.785156,0.85546872 -0.298829,0.1640625 -0.65625,0.24609375 -1.078125,0.24609375 z m 0.199218,-0.65625 c 0.319336,0 0.603516,-0.0703125 0.855469,-0.2109375 0.249024,-0.14648437 0.445313,-0.35156247 0.585938,-0.60937497 0.146484,-0.2578125 0.222656,-0.5214844 0.222656,-0.796875 v -0.4335938 l -0.960938,0.023437 c -0.416015,0.00879 -0.726562,0.052734 -0.9375,0.1289063 -0.210937,0.079101 -0.375,0.1992187 -0.492187,0.3632812 -0.117188,0.1640625 -0.175781,0.375 -0.175781,0.6328125 0,0.2900391 0.07617,0.51269533 0.234375,0.66796877 0.155273,0.15820313 0.377929,0.234375 0.667968,0.2343755 z M 47.85025,2.0731112 c -0.580078,0 -1.040039,-0.1142578 -1.382812,-0.3398437 -0.345704,-0.2285157 -0.5625,-0.5478516 -0.65625,-0.96093753 l 0.878906,-0.12890625 c 0.06152,0.24023438 0.190429,0.42773438 0.386719,0.56249998 0.202148,0.131836 0.46875,0.1992188 0.796875,0.1992188 0.873046,0 1.3125,-0.51269534 1.3125,-1.53515628 v -0.85546875 h -0.01172 c -0.164063,0.34570313 -0.395508,0.60351563 -0.691406,0.7734375 -0.29004,0.1640625 -0.626954,0.24609375 -1.007813,0.24609375 -0.650391,0 -1.125,-0.21386719 -1.429687,-0.64453125 C 45.740874,-1.0382169 45.58853,-1.7149747 45.58853,-2.6378263 c 0,-0.9287109 0.164063,-1.6171875 0.492188,-2.0625 0.328125,-0.4453125 0.823242,-0.6679687 1.488281,-0.6679687 0.375,0 0.697266,0.087891 0.972656,0.2578125 0.28125,0.1728515 0.495117,0.4160156 0.644532,0.7265625 h 0.01172 c 0,-0.099609 0.0029,-0.2695313 0.01172,-0.5039063 0.01465,-0.2402344 0.0293,-0.375 0.04687,-0.3984375 h 0.832031 c -0.02344,0.1728516 -0.03516,0.5361328 -0.03516,1.0898438 v 4.04296872 c 0,1.48242188 -0.735352,2.22656248 -2.203125,2.22656248 z m 1.335938,-4.7226562 c 0,-0.4277344 -0.05859,-0.796875 -0.175782,-1.1015625 -0.117187,-0.3105469 -0.287109,-0.5507813 -0.503906,-0.7148438 -0.210937,-0.1640625 -0.451172,-0.2460937 -0.714844,-0.2460937 -0.454101,0 -0.785156,0.1640625 -0.996093,0.4921875 -0.205079,0.3222656 -0.304688,0.84375 -0.304688,1.5703125 0,0.7265625 0.09668,1.2509765 0.292969,1.5703125 0.193359,0.31347653 0.521484,0.46874997 0.984375,0.46874997 0.28125,0 0.527344,-0.0820313 0.738281,-0.24609375 0.216797,-0.16406252 0.386719,-0.39843752 0.503906,-0.70312502 0.117188,-0.3046875 0.175782,-0.6679687 0.175782,-1.0898437 z m 0,0"
       style="fill:#000000;fill-opacity:1;fill-rule:nonzero;stroke:none"
       aria-label="Wochentag"
       transform="matrix(1.3333333,0,0,1.3333333,83.074667,122.79835)" />
    <path
       id="path26"
       d="M 6.6802891,-0.00110753 V -4.5948575 c 0,-0.506836 0.011719,-0.9960938 0.035156,-1.4648438 -0.1582031,0.5859375 -0.2988281,1.0429688 -0.421875,1.3710938 l -1.78125,4.68749997 h -0.65625 L 2.0513828,-4.6886075 1.7818516,-5.5206388 1.6177891,-6.0597013 l 0.011719,0.5390625 0.023437,0.9257813 v 4.59374997 H 0.82091406 V -6.8917325 H 2.0513828 l 1.828125,4.78125 c 0.061523,0.1875 0.1230469,0.3955078 0.1875,0.6210937 0.061523,0.2197266 0.099609,0.375 0.1171875,0.46875 0.029297,-0.1230469 0.084961,-0.3193359 0.1640625,-0.5859375 0.084961,-0.2636719 0.1435547,-0.4335937 0.1757813,-0.5039062 l 1.7929687,-4.78125 h 1.1953125 v 6.89062497 z M 13.450797,-2.649545 c 0,0.9228515 -0.205078,1.6113281 -0.609375,2.06249997 -0.407227,0.45410156 -0.996094,0.6796875 -1.769531,0.6796875 -0.773438,0 -1.3593754,-0.234375 -1.7578129,-0.703125 C 8.9215,-1.0792325 8.7281406,-1.75892 8.7281406,-2.649545 c 0,-1.828125 0.788086,-2.7421875 2.3671874,-2.7421875 0.811524,0 1.40625,0.2226562 1.78125,0.6679687 0.380859,0.4453125 0.574219,1.1367188 0.574219,2.0742188 z m -0.925781,0 c 0,-0.7265625 -0.111329,-1.2539063 -0.328125,-1.5820313 -0.210938,-0.3339844 -0.574219,-0.5039062 -1.089844,-0.5039062 -0.515625,0 -0.887695,0.1699218 -1.1132814,0.5039062 -0.2285156,0.3369141 -0.3398437,0.8642578 -0.3398437,1.5820313 0,0.6972656 0.1113281,1.21875 0.3398437,1.5703125 0.2255864,0.35156247 0.5800784,0.52734372 1.0664064,0.52734372 0.521484,0 0.896484,-0.16699219 1.125,-0.50390622 0.225586,-0.3427735 0.339844,-0.8730469 0.339844,-1.59375 z m 0,0"
       style="fill:#000000;fill-opacity:1;fill-rule:nonzero;stroke:none"
       aria-label="Mo"
       transform="matrix(1.3333333,0,0,1.3333333,171.85467,122.79835)" />
    <path
       id="path27"
       d="m 6.7514531,-3.5167325 c 0,0.711914 -0.140625,1.3330078 -0.421875,1.8632812 -0.2753906,0.5332031 -0.665039,0.9433594 -1.171875,1.23046877 -0.5097656,0.28125 -1.0957031,0.421875 -1.7578125,0.421875 H 0.82176563 V -6.8917325 H 3.0952031 c 1.171875,0 2.0742188,0.2929687 2.7070313,0.8789062 0.6328125,0.5859375 0.9492187,1.4179688 0.9492187,2.4960938 z m -0.9375,0 c 0,-0.8496094 -0.234375,-1.5 -0.703125,-1.9453125 -0.46875,-0.4511719 -1.1455078,-0.6796875 -2.0273437,-0.6796875 H 1.7592656 v 5.39062497 h 1.5351563 c 0.4980469,0 0.9404297,-0.10839844 1.3242187,-0.32812497 C 4.9995,-1.3048185 5.2924688,-1.6241544 5.4975469,-2.04017 5.7084844,-2.453256 5.8139531,-2.9454435 5.8139531,-3.5167325 Z m 2.0595703,-2.8945313 v -0.84375 h 0.8789063 v 0.84375 z m 0,6.41015627 V -5.2862638 h 0.8789063 v 5.28515627 z m 0,0"
       style="fill:#000000;fill-opacity:1;fill-rule:nonzero;stroke:none"
       aria-label="Di"
       transform="matrix(1.3333333,0,0,1.3333333,257.084,122.79835)" />
    <path
       id="path28"
       d="M 6.6787266,-0.00110753 V -4.5948575 c 0,-0.506836 0.011719,-0.9960938 0.035156,-1.4648438 -0.1582031,0.5859375 -0.2988281,1.0429688 -0.421875,1.3710938 l -1.78125,4.68749997 h -0.65625 L 2.0498203,-4.6886075 1.7802891,-5.5206388 1.6162266,-6.0597013 l 0.011719,0.5390625 0.023437,0.9257813 v 4.59374997 H 0.81935156 V -6.8917325 H 2.0498203 l 1.828125,4.78125 c 0.061524,0.1875 0.1230469,0.3955078 0.1875,0.6210937 0.061523,0.2197266 0.099609,0.375 0.1171875,0.46875 0.029297,-0.1230469 0.084961,-0.3193359 0.1640625,-0.5859375 C 4.4316563,-1.8702482 4.49025,-2.04017 4.5224766,-2.1104825 l 1.7929687,-4.78125 h 1.1953125 v 6.89062497 z M 8.9726719,-6.4112638 v -0.84375 h 0.8789062 v 0.84375 z m 0,6.41015627 V -5.2862638 h 0.8789062 v 5.28515627 z m 0,0"
       style="fill:#000000;fill-opacity:1;fill-rule:nonzero;stroke:none"
       aria-label="Mi"
       transform="matrix(1.3333333,0,0,1.3333333,342.388,122.79835)" />
    <path
       id="path29"
       d="m 6.7508516,-3.5167325 c 0,0.711914 -0.140625,1.3330078 -0.421875,1.8632812 -0.2753907,0.5332031 -0.6650391,0.9433594 -1.171875,1.23046877 -0.5097657,0.28125 -1.0957032,0.421875 -1.7578125,0.421875 H 0.82116406 V -6.8917325 H 3.0946016 c 1.171875,0 2.0742187,0.2929687 2.7070312,0.8789062 0.6328125,0.5859375 0.9492188,1.4179688 0.9492188,2.4960938 z m -0.9375,0 c 0,-0.8496094 -0.234375,-1.5 -0.703125,-1.9453125 -0.46875,-0.4511719 -1.1455078,-0.6796875 -2.0273438,-0.6796875 H 1.7586641 v 5.39062497 h 1.5351562 c 0.4980469,0 0.9404297,-0.10839844 1.3242188,-0.32812497 0.3808593,-0.225586 0.6738281,-0.5449219 0.8789062,-0.9609375 0.2109375,-0.413086 0.3164063,-0.9052735 0.3164063,-1.4765625 z m 6.5361324,0.8671875 c 0,0.9228515 -0.205078,1.6113281 -0.609375,2.06249997 -0.407226,0.45410156 -0.996093,0.6796875 -1.7695309,0.6796875 -0.7734375,0 -1.359375,-0.234375 -1.7578125,-0.703125 C 7.8201875,-1.0792325 7.6268281,-1.75892 7.6268281,-2.649545 c 0,-1.828125 0.788086,-2.7421875 2.3671875,-2.7421875 0.8115234,0 1.4062504,0.2226562 1.7812504,0.6679687 0.380859,0.4453125 0.574218,1.1367188 0.574218,2.0742188 z m -0.925781,0 c 0,-0.7265625 -0.111328,-1.2539063 -0.328125,-1.5820313 -0.210937,-0.3339844 -0.574219,-0.5039062 -1.089844,-0.5039062 -0.5156246,0 -0.8876949,0.1699218 -1.1132809,0.5039062 -0.2285156,0.3369141 -0.3398437,0.8642578 -0.3398437,1.5820313 0,0.6972656 0.1113281,1.21875 0.3398437,1.5703125 0.225586,0.35156247 0.5800782,0.52734372 1.0664063,0.52734372 0.5214846,0 0.8964846,-0.16699219 1.1249996,-0.50390622 0.225586,-0.3427735 0.339844,-0.8730469 0.339844,-1.59375 z m 0,0"
       style="fill:#000000;fill-opacity:1;fill-rule:nonzero;stroke:none"
       aria-label="Do"
       transform="matrix(1.3333333,0,0,1.3333333,427.72933,122.79835)" />
    <path
       id="path30"
       d="m 1.7575469,-6.118295 v 2.5546875 H 5.5895781 V -2.79017 H 1.7575469 v 2.78906247 H 0.82004688 V -6.8917325 H 5.7067656 v 0.7734375 z m 5.0361328,6.11718747 V -4.055795 c 0,-0.375 -0.00879,-0.7851563 -0.023437,-1.2304688 h 0.8320312 c 0.023437,0.6035156 0.035156,0.9609375 0.035156,1.078125 h 0.023437 c 0.140625,-0.4511719 0.2988281,-0.7617187 0.4804687,-0.9257812 0.178711,-0.1699219 0.4365235,-0.2578125 0.7734375,-0.2578125 0.1171875,0 0.234375,0.020508 0.3515625,0.058594 v 0.796875 c -0.1171875,-0.029297 -0.2753906,-0.046875 -0.46875,-0.046875 -0.3691406,0 -0.6503906,0.1611328 -0.84375,0.4804688 -0.1875,0.3134765 -0.28125,0.7617187 -0.28125,1.3476562 v 2.75390627 z m 0,0"
       style="fill:#000000;fill-opacity:1;fill-rule:nonzero;stroke:none"
       aria-label="Fr"
       transform="matrix(1.3333333,0,0,1.3333333,513.07067,122.79835)" />
    <path
       id="path31"
       d="m 6.2095547,-1.899545 c 0,0.6328125 -0.2519531,1.12499997 -0.75,1.47656247 -0.4921875,0.34570313 -1.1894531,0.515625 -2.0859375,0.515625 -1.6816406,0 -2.65429689,-0.58007812 -2.91796876,-1.74609377 L 1.3579922,-1.8292325 c 0.099609,0.4160156 0.3193359,0.7207031 0.65625,0.91406247 0.3427734,0.1875 0.8085937,0.28125 1.3945312,0.28125 0.600586,0 1.0664063,-0.0996094 1.3945313,-0.3046875 C 5.1314297,-1.149545 5.2954922,-1.4542325 5.2954922,-1.85267 c 0,-0.225586 -0.055664,-0.4101563 -0.1640625,-0.5507813 C 5.0288906,-2.5440763 4.8853359,-2.6554044 4.6978359,-2.743295 4.5161953,-2.837045 4.2993984,-2.9132169 4.0415859,-2.97767 3.7837734,-3.0391935 3.4966641,-3.1065763 3.1861172,-3.1768888 2.6382656,-3.2940763 2.2251797,-3.4112638 1.9439297,-3.5284513 1.6626797,-3.6514982 1.4400234,-3.7891935 1.2759609,-3.9386075 1.1118984,-4.0850919 0.98592187,-4.2579435 0.90096094,-4.4542325 0.81307031,-4.656381 0.77205469,-4.8878263 0.77205469,-5.1456388 c 0,-0.5917969 0.22558593,-1.0458984 0.67968751,-1.359375 0.4511719,-0.3193359 1.0957031,-0.4804687 1.9335937,-0.4804687 0.7792969,0 1.3769532,0.1230468 1.7929688,0.3632812 0.4130859,0.234375 0.7060547,0.6416016 0.8789062,1.21875 l -0.9257812,0.1640625 c -0.1025391,-0.3662109 -0.2929688,-0.6328125 -0.5742188,-0.796875 -0.28125,-0.1640625 -0.6738281,-0.2460937 -1.171875,-0.2460937 -0.5566406,0 -0.9785156,0.09082 -1.265625,0.2695312 -0.290039,0.1816406 -0.4335937,0.4541016 -0.4335937,0.8203125 0,0.2109375 0.052734,0.3867188 0.1640625,0.5273438 0.1171875,0.1347656 0.28125,0.2519531 0.4921875,0.3515625 0.2109375,0.09375 0.6328125,0.2109375 1.265625,0.3515625 0.2109375,0.046875 0.421875,0.099609 0.6328125,0.1523437 0.2109375,0.046875 0.4101562,0.1054688 0.5976562,0.1757813 0.1933594,0.070312 0.375,0.1523437 0.5390625,0.2460937 0.1699219,0.09375 0.3164063,0.2109375 0.4335938,0.3515625 0.1230469,0.1347656 0.2226562,0.2929688 0.2929687,0.4804688 0.070312,0.1875 0.1054688,0.4072265 0.1054688,0.65625 z m 2.0185547,-3.3867188 v 3.3515625 c 0,0.3457031 0.029297,0.6152344 0.09375,0.8085938 0.070312,0.19628903 0.1787109,0.33691403 0.328125,0.42187497 0.1552734,0.0791016 0.3779297,0.1171875 0.6679687,0.1171875 0.421875,0 0.7529299,-0.14355469 0.9960939,-0.43359377 0.249023,-0.2871094 0.375,-0.6914062 0.375,-1.2070312 v -3.0585938 h 0.878906 v 4.1601563 c 0,0.60937497 0.0059,0.98437497 0.02344,1.12499997 h -0.832032 c 0,-0.01464844 -0.0059,-0.05859375 -0.01172,-0.12890625 0,-0.0703125 -0.0059,-0.15234375 -0.01172,-0.24609375 0,-0.09375 -0.0059,-0.26953125 -0.01172,-0.52734375 h -0.01172 c -0.205078,0.36914063 -0.439453,0.62695313 -0.703125,0.7734375 -0.2666012,0.14648438 -0.5976559,0.22265625 -0.9960934,0.22265625 -0.5800781,0 -1.0048828,-0.140625 -1.2773437,-0.421875 C 7.4693203,-0.6163419 7.3374844,-1.0968107 7.3374844,-1.7706388 v -3.515625 z m 7.8105466,5.28515627 V -3.35267 c 0,-0.515625 -0.07031,-0.8701172 -0.210937,-1.0664063 -0.140625,-0.1933594 -0.392578,-0.2929687 -0.75,-0.2929687 -0.375,0 -0.673828,0.1464843 -0.890625,0.4335937 -0.219727,0.2900391 -0.328125,0.6972656 -0.328125,1.21875 v 3.05859377 H 12.980062 V -4.1612638 c 0,-0.6152344 -0.0088,-0.9902344 -0.02344,-1.125 h 0.832031 c 0,0.017578 0,0.058594 0,0.1289063 0.0059,0.070312 0.01172,0.1523437 0.01172,0.2460937 0.0059,0.09375 0.01465,0.2695313 0.02344,0.5273438 h 0.01172 c 0.1875,-0.375 0.401367,-0.6357422 0.644531,-0.7851563 0.249024,-0.1464844 0.550782,-0.2226562 0.902344,-0.2226562 0.398438,0 0.714844,0.082031 0.949219,0.2460937 0.234375,0.1582031 0.398437,0.4101563 0.492187,0.7617188 h 0.01172 c 0.178711,-0.3515625 0.398438,-0.6035157 0.65625,-0.7617188 0.257813,-0.1640625 0.574219,-0.2460937 0.949219,-0.2460937 0.530273,0 0.916992,0.149414 1.160156,0.4453125 0.240235,0.290039 0.363281,0.7617187 0.363281,1.4179687 v 3.52734377 H 19.09725 V -3.35267 c 0,-0.515625 -0.07031,-0.8701172 -0.210938,-1.0664063 -0.140625,-0.1933594 -0.395507,-0.2929687 -0.761718,-0.2929687 -0.383789,0 -0.685547,0.1464843 -0.902344,0.4335937 -0.210938,0.28125 -0.316406,0.6884766 -0.316406,1.21875 v 3.05859377 z m 8.302735,0 V -3.35267 c 0,-0.515625 -0.07031,-0.8701172 -0.210938,-1.0664063 -0.140625,-0.1933594 -0.392578,-0.2929687 -0.75,-0.2929687 -0.375,0 -0.673828,0.1464843 -0.890625,0.4335937 -0.219726,0.2900391 -0.328125,0.6972656 -0.328125,1.21875 v 3.05859377 H 21.282797 V -4.1612638 c 0,-0.6152344 -0.0088,-0.9902344 -0.02344,-1.125 h 0.832032 c 0,0.017578 0,0.058594 0,0.1289063 0.0059,0.070312 0.01172,0.1523437 0.01172,0.2460937 0.0059,0.09375 0.01465,0.2695313 0.02344,0.5273438 h 0.01172 c 0.1875,-0.375 0.401367,-0.6357422 0.644531,-0.7851563 0.249023,-0.1464844 0.550781,-0.2226562 0.902344,-0.2226562 0.398437,0 0.714843,0.082031 0.949218,0.2460937 0.234375,0.1582031 0.398438,0.4101563 0.492188,0.7617188 h 0.01172 c 0.178711,-0.3515625 0.398437,-0.6035157 0.65625,-0.7617188 0.257812,-0.1640625 0.574218,-0.2460937 0.949218,-0.2460937 0.530274,0 0.916993,0.149414 1.160157,0.4453125 0.240234,0.290039 0.363281,0.7617187 0.363281,1.4179687 v 3.52734377 H 27.399984 V -3.35267 c 0,-0.515625 -0.07031,-0.8701172 -0.210937,-1.0664063 -0.140625,-0.1933594 -0.395508,-0.2929687 -0.761719,-0.2929687 -0.383789,0 -0.685547,0.1464843 -0.902344,0.4335937 -0.210937,0.28125 -0.316406,0.6884766 -0.316406,1.21875 v 3.05859377 z m 5.90332,-2.46093747 c 0,0.609375 0.123047,1.078125 0.375,1.40625 0.249023,0.32812497 0.615234,0.49218747 1.101562,0.49218747 0.38086,0 0.685547,-0.0732422 0.914063,-0.22265625 0.234375,-0.15527344 0.389648,-0.35156252 0.46875,-0.58593752 l 0.773437,0.2226563 c -0.322265,0.82910153 -1.040039,1.24218747 -2.15625,1.24218747 -0.782226,0 -1.379882,-0.22851562 -1.792968,-0.69140625 C 29.521078,-1.0675138 29.31893,-1.7618497 29.31893,-2.6847013 c 0,-0.8671875 0.202148,-1.5351562 0.609375,-2.0039062 0.413086,-0.46875 0.999023,-0.703125 1.757812,-0.703125 1.552735,0 2.332031,0.9375 2.332031,2.8125 v 0.1171875 z m 2.859375,-0.6679688 c -0.04687,-0.5625 -0.1875,-0.9667969 -0.421875,-1.21875 -0.234375,-0.2578125 -0.571289,-0.3867187 -1.007813,-0.3867187 -0.430664,0 -0.770507,0.1464843 -1.019531,0.4335937 -0.251953,0.28125 -0.383789,0.6738281 -0.398437,1.171875 z m 0,0"
       style="fill:#000000;fill-opacity:1;fill-rule:nonzero;stroke:none"
       aria-label="Summe"
       transform="matrix(1.3333333,0,0,1.3333333,598.412,122.79835)" />
    <path
       id="path32"
       d="M 4.0309141,-0.00101378 V -3.3525763 c 0,-0.3515625 -0.035156,-0.6210937 -0.1054688,-0.8085937 -0.064453,-0.1933594 -0.1728515,-0.3339844 -0.328125,-0.421875 -0.149414,-0.084961 -0.3691406,-0.1289063 -0.65625,-0.1289063 -0.421875,0 -0.758789,0.1494141 -1.0078125,0.4453125 -0.243164,0.2900391 -0.3632812,0.6914063 -0.3632812,1.2070313 v 3.05859372 H 0.69107031 V -4.16117 c 0,-0.6152344 -0.008789,-0.9902344 -0.0234375,-1.125 H 1.4996641 c 0,0.017578 0,0.058594 0,0.1289062 0.00586,0.070312 0.011719,0.1523438 0.011719,0.2460938 0.00586,0.09375 0.014649,0.2695312 0.023437,0.5273437 h 0.011719 c 0.2021484,-0.3662109 0.4365234,-0.6240234 0.703125,-0.7734375 0.2636718,-0.1552734 0.5917968,-0.234375 0.984375,-0.234375 0.5859375,0 1.0107422,0.1464844 1.2773437,0.4335938 0.2636719,0.290039 0.3984375,0.7675781 0.3984375,1.4296875 v 3.52734372 z M 6.9400938,-2.4619513 c 0,0.609375 0.1230468,1.078125 0.375,1.40625 0.2490234,0.32812502 0.6152343,0.49218752 1.1015625,0.49218752 0.3808593,0 0.6855468,-0.0732422 0.9140625,-0.22265625 0.234375,-0.15527344 0.3896484,-0.35156247 0.46875,-0.58593747 l 0.7734372,0.2226562 c -0.322265,0.82910158 -1.0400388,1.24218752 -2.1562497,1.24218752 -0.7822266,0 -1.3798829,-0.22851562 -1.7929688,-0.69140625 C 6.2164609,-1.06742 6.0143125,-1.761756 6.0143125,-2.6846075 c 0,-0.8671875 0.2021484,-1.5351563 0.609375,-2.0039063 0.4130859,-0.46875 0.9990234,-0.703125 1.7578125,-0.703125 1.5527344,0 2.332031,0.9375 2.332031,2.8125 v 0.1171875 z M 9.7994688,-3.12992 c -0.046875,-0.5625 -0.1875,-0.9667969 -0.421875,-1.21875 -0.234375,-0.2578125 -0.5712891,-0.3867188 -1.0078125,-0.3867188 -0.4306641,0 -0.7705079,0.1464844 -1.0195313,0.4335938 -0.2519531,0.28125 -0.3837891,0.6738281 -0.3984375,1.171875 z m 2.9238282,-2.15625 v 3.3515625 c 0,0.3457031 0.0293,0.6152343 0.09375,0.8085937 0.07031,0.19628908 0.178711,0.33691408 0.328125,0.42187502 0.155273,0.0791016 0.37793,0.1171875 0.667969,0.1171875 0.421875,0 0.752929,-0.14355469 0.996093,-0.43359372 0.249024,-0.2871094 0.375,-0.6914063 0.375,-1.2070313 V -5.28617 h 0.878907 v 4.1601562 c 0,0.60937502 0.0059,0.98437502 0.02344,1.12500002 H 15.25455 c 0,-0.01464844 -0.0059,-0.05859375 -0.01172,-0.12890625 0,-0.0703125 -0.0059,-0.15234375 -0.01172,-0.24609375 0,-0.09375 -0.0059,-0.26953125 -0.01172,-0.52734375 h -0.01172 c -0.205078,0.36914063 -0.439453,0.62695313 -0.703125,0.7734375 -0.266602,0.14648438 -0.597656,0.22265625 -0.996094,0.22265625 -0.580078,0 -1.004883,-0.140625 -1.277344,-0.421875 C 11.964508,-0.61624815 11.832672,-1.0967169 11.832672,-1.770545 V -5.28617 Z m 5.405273,2.8242187 c 0,0.609375 0.123047,1.078125 0.375,1.40625 0.249024,0.32812502 0.615235,0.49218752 1.101563,0.49218752 0.380859,0 0.685547,-0.0732422 0.914062,-0.22265625 0.234375,-0.15527344 0.389649,-0.35156247 0.46875,-0.58593747 l 0.773438,0.2226562 c -0.322266,0.82910158 -1.040039,1.24218752 -2.15625,1.24218752 -0.782227,0 -1.379883,-0.22851562 -1.792969,-0.69140625 C 17.404938,-1.06742 17.202789,-1.761756 17.202789,-2.6846075 c 0,-0.8671875 0.202149,-1.5351563 0.609375,-2.0039063 0.413086,-0.46875 0.999024,-0.703125 1.757813,-0.703125 1.552734,0 2.332031,0.9375 2.332031,2.8125 v 0.1171875 z M 20.987945,-3.12992 c -0.04687,-0.5625 -0.1875,-0.9667969 -0.421875,-1.21875 -0.234375,-0.2578125 -0.571289,-0.3867188 -1.007812,-0.3867188 -0.430664,0 -0.770508,0.1464844 -1.019531,0.4335938 -0.251954,0.28125 -0.383789,0.6738281 -0.398438,1.171875 z M 31.91568,-3.5166388 c 0,0.7119141 -0.140625,1.3330078 -0.421875,1.8632813 -0.275391,0.5332031 -0.665039,0.94335935 -1.171875,1.23046872 -0.509766,0.28125 -1.095703,0.421875 -1.757813,0.421875 H 25.985992 V -6.8916388 h 2.273438 c 1.171875,0 2.074218,0.2929688 2.707031,0.8789063 0.632812,0.5859375 0.949219,1.4179687 0.949219,2.4960937 z m -0.9375,0 c 0,-0.8496094 -0.234375,-1.5 -0.703125,-1.9453125 -0.46875,-0.4511719 -1.145508,-0.6796875 -2.027344,-0.6796875 h -1.324219 v 5.39062502 h 1.535156 c 0.498047,0 0.94043,-0.10839844 1.324219,-0.32812502 0.38086,-0.2255859 0.673828,-0.5449219 0.878906,-0.9609375 0.210938,-0.4130859 0.316407,-0.9052734 0.316407,-1.4765625 z m 3.418945,3.60937502 c -0.533203,0 -0.93457,-0.13476562 -1.207031,-0.41015625 -0.266602,-0.28125 -0.398438,-0.66796875 -0.398438,-1.16015627 0,-0.5449219 0.178711,-0.9638672 0.539063,-1.2539062 0.357422,-0.2958985 0.940429,-0.4570313 1.746094,-0.4804688 l 1.183593,-0.011719 v -0.2929688 c 0,-0.4277344 -0.09082,-0.7324219 -0.269531,-0.9140625 -0.181641,-0.1875 -0.46582,-0.28125 -0.855469,-0.28125 -0.398437,0 -0.688476,0.067383 -0.867187,0.1992188 -0.181641,0.1347656 -0.28711,0.3457031 -0.316406,0.6328125 l -0.925782,-0.082031 c 0.146485,-0.9521484 0.855469,-1.4296875 2.121094,-1.4296875 0.662109,0 1.163086,0.1523438 1.5,0.4570313 0.333984,0.3046875 0.503906,0.7470703 0.503906,1.3242187 v 2.2851563 c 0,0.2578125 0.03516,0.45410153 0.105469,0.58593747 0.07031,0.13476563 0.199219,0.19921875 0.386719,0.19921875 0.08496,0 0.18164,-0.0117188 0.292969,-0.0351563 v 0.5390625 C 37.716461,0.0165643 37.490875,0.04586117 37.2565,0.04586117 c -0.328125,0 -0.568359,-0.08496094 -0.714844,-0.2578125 -0.149414,-0.16992187 -0.231445,-0.43652344 -0.246093,-0.79687507 h -0.03516 c -0.219726,0.39843757 -0.480468,0.68554695 -0.785156,0.85546882 -0.298828,0.1640625 -0.65625,0.24609375 -1.078125,0.24609375 z m 0.199219,-0.65625 c 0.319336,0 0.603515,-0.0703125 0.855469,-0.2109375 0.249023,-0.14648437 0.445312,-0.35156252 0.585937,-0.60937502 0.146484,-0.2578125 0.222656,-0.5214844 0.222656,-0.796875 V -2.614295 l -0.960937,0.023437 c -0.416016,0.00879 -0.726563,0.052734 -0.9375,0.1289062 -0.210938,0.079102 -0.375,0.1992188 -0.492188,0.3632813 -0.117187,0.1640625 -0.175781,0.375 -0.175781,0.6328125 0,0.290039 0.07617,0.51269528 0.234375,0.66796872 0.155273,0.15820313 0.37793,0.234375 0.667969,0.2343755 z m 6.073242,0.52734375 c -0.290039,0.07617188 -0.585938,0.1171875 -0.890625,0.1171875 -0.703125,0 -1.054688,-0.3984375 -1.054688,-1.19531247 V -4.6533575 H 38.114898 V -5.28617 h 0.644532 l 0.257812,-1.1835938 H 39.60318 V -5.28617 h 0.984375 v 0.6328125 H 39.60318 v 3.3398437 c 0,0.2578125 0.03809,0.43945315 0.117187,0.53906252 0.08496,0.10253906 0.234375,0.15234375 0.445313,0.15234375 0.117187,0 0.284179,-0.0234375 0.503906,-0.0703125 z m 1.432617,-2.42578127 c 0,0.609375 0.123047,1.078125 0.375,1.40625 0.249024,0.32812502 0.615235,0.49218752 1.101563,0.49218752 0.380859,0 0.685547,-0.0732422 0.914062,-0.22265625 0.234375,-0.15527344 0.389649,-0.35156247 0.46875,-0.58593747 l 0.773438,0.2226562 c -0.322266,0.82910158 -1.040039,1.24218752 -2.15625,1.24218752 -0.782227,0 -1.379883,-0.22851562 -1.792969,-0.69140625 C 41.37857,-1.06742 41.176422,-1.761756 41.176422,-2.6846075 c 0,-0.8671875 0.202148,-1.5351563 0.609375,-2.0039063 0.413086,-0.46875 0.999023,-0.703125 1.757812,-0.703125 1.552735,0 2.332032,0.9375 2.332032,2.8125 v 0.1171875 z M 44.961578,-3.12992 c -0.04687,-0.5625 -0.1875,-0.9667969 -0.421875,-1.21875 -0.234375,-0.2578125 -0.571289,-0.3867188 -1.007812,-0.3867188 -0.430664,0 -0.770508,0.1464844 -1.019532,0.4335938 -0.251953,0.28125 -0.383789,0.6738281 -0.398437,1.171875 z m 5.416992,3.12890622 V -3.3525763 c 0,-0.3515625 -0.03516,-0.6210937 -0.105468,-0.8085937 -0.06445,-0.1933594 -0.172852,-0.3339844 -0.328125,-0.421875 -0.149414,-0.084961 -0.369141,-0.1289063 -0.65625,-0.1289063 -0.421875,0 -0.758789,0.1494141 -1.007813,0.4453125 -0.243164,0.2900391 -0.363281,0.6914063 -0.363281,1.2070313 v 3.05859372 H 47.038727 V -4.16117 c 0,-0.6152344 -0.0088,-0.9902344 -0.02344,-1.125 h 0.832031 c 0,0.017578 0,0.058594 0,0.1289062 0.0059,0.070312 0.01172,0.1523438 0.01172,0.2460938 0.0059,0.09375 0.01465,0.2695312 0.02344,0.5273437 h 0.01172 c 0.202149,-0.3662109 0.436524,-0.6240234 0.703125,-0.7734375 0.263672,-0.1552734 0.591797,-0.234375 0.984375,-0.234375 0.585938,0 1.010743,0.1464844 1.277344,0.4335938 0.263672,0.290039 0.398438,0.7675781 0.398438,1.4296875 v 3.52734372 z m 0,0"
       style="fill:#000000;fill-opacity:1;fill-rule:nonzero;stroke:none"
       aria-label="neue Daten"
       transform="matrix(1.3333333,0,0,1.3333333,83.074667,152.12635)" />
    <path
       id="path33"
       d="m 5.1207422,-1.8994513 c 0,0.6328125 -0.2050781,1.12500002 -0.609375,1.47656252 -0.3984375,0.34570313 -0.9726563,0.515625 -1.7226563,0.515625 -0.6972656,0 -1.2509765,-0.15527344 -1.6640625,-0.46875 C 0.70863281,-0.68656065 0.46253906,-1.152381 0.38636719,-1.770545 L 1.2887109,-1.852576 c 0.1171875,0.8144531 0.6152344,1.21875002 1.5,1.21875002 0.4453125,0 0.7910157,-0.10839844 1.0429688,-0.328125 0.2490234,-0.21679692 0.375,-0.54199222 0.375,-0.97265622 0,-0.375 -0.1464844,-0.6621094 -0.4335938,-0.8671875 C 3.4918359,-3.0127322 3.0758203,-3.118201 2.5308984,-3.118201 H 2.0269922 v -0.7734375 h 0.4804687 c 0.4833985,0 0.8583985,-0.099609 1.125,-0.3046875 0.2636719,-0.2109375 0.3984375,-0.5039062 0.3984375,-0.8789062 0,-0.366211 -0.1113281,-0.65625 -0.328125,-0.8671875 -0.2109375,-0.2167969 -0.5332031,-0.328125 -0.9609375,-0.328125 -0.3925781,0 -0.7089843,0.102539 -0.9492187,0.3046875 -0.234375,0.196289 -0.3720703,0.477539 -0.4101563,0.84375 L 0.50355469,-5.19242 c 0.0615234,-0.5625 0.29296875,-0.9990235 0.69140621,-1.3125 0.4042969,-0.319336 0.9257813,-0.4804688 1.5585938,-0.4804688 0.6855469,0 1.2216797,0.1611328 1.6054687,0.4804688 0.3808594,0.3222656 0.5742188,0.7675781 0.5742188,1.3359375 0,0.4453125 -0.1259766,0.805664 -0.375,1.078125 -0.2431641,0.2753906 -0.5976563,0.4628906 -1.0664063,0.5625 v 0.011719 c 0.515625,0.055664 0.9140625,0.2285156 1.1953125,0.515625 0.2871094,0.2900391 0.4335938,0.65625 0.4335938,1.1015622 z m 0,0"
       style="fill:#000000;fill-opacity:1;fill-rule:nonzero;stroke:none"
       aria-label="3"
       transform="matrix(1.3333333,0,0,1.3333333,234.52,152.12635)" />
    <path
       id="path34"
       d="m 5.1225547,-2.2510138 c 0,0.7265625 -0.1962891,1.30078127 -0.5859375,1.72265627 -0.3925781,0.41601563 -0.9345703,0.62109375 -1.6289063,0.62109375 -0.7822265,0 -1.3798828,-0.28417969 -1.7929687,-0.85546875 C 0.70751562,-1.339881 0.50536719,-2.1807013 0.50536719,-3.2822638 c 0,-1.1953125 0.21386718,-2.109375 0.64453121,-2.7421875 0.4277344,-0.6386719 1.0371094,-0.9609375 1.828125,-0.9609375 1.0371094,0 1.6904297,0.4658203 1.9570313,1.3945313 l -0.84375,0.1523437 c -0.1728516,-0.5537109 -0.5478516,-0.8320312 -1.125,-0.8320312 -0.5097656,0 -0.8994141,0.234375 -1.171875,0.703125 -0.2753906,0.4628906 -0.4101563,1.1367187 -0.4101563,2.0273437 0.1552735,-0.2958984 0.3779297,-0.5214844 0.6679688,-0.6796875 0.2958984,-0.1552734 0.6328125,-0.234375 1.0078125,-0.234375 0.6328125,0 1.1308594,0.1992188 1.5,0.5976563 0.375,0.3984375 0.5625,0.9345703 0.5625,1.6054687 z m -0.890625,0.035156 c 0,-0.4980469 -0.1230469,-0.881836 -0.3632813,-1.1484375 -0.243164,-0.272461 -0.5830078,-0.4101563 -1.0195312,-0.4101563 -0.4160156,0 -0.7470703,0.1230469 -0.9960938,0.3632813 -0.2519531,0.234375 -0.375,0.5625 -0.375,0.984375 0,0.5332031 0.1289063,0.9697265 0.3867188,1.3125 0.2636719,0.33691403 0.6005859,0.50390622 1.0078125,0.50390622 0.421875,0 0.7529297,-0.140625 0.9960937,-0.42187502 0.2402344,-0.2871094 0.3632813,-0.6826172 0.3632813,-1.1835937 z m 0,0"
       style="fill:#000000;fill-opacity:1;fill-rule:nonzero;stroke:none"
       aria-label="6"
       transform="matrix(1.3333333,0,0,1.3333333,319.86133,152.12635)" />
    <path
       id="path35"
       d="m 5.144875,-2.239295 c 0,0.7265625 -0.2167969,1.29785153 -0.6445312,1.71093747 -0.4306641,0.41601563 -1.0283204,0.62109375 -1.7929688,0.62109375 -0.6503906,0 -1.1689453,-0.13476562 -1.5585937,-0.41015625 C 0.75620313,-0.59867003 0.50717969,-1.0029669 0.39878125,-1.53617 L 1.2894063,-1.6416388 c 0.1875,0.67968752 0.6621093,1.01953127 1.4296875,1.01953127 0.4746093,0 0.8466796,-0.140625 1.1132812,-0.42187497 0.2636719,-0.2871094 0.3984375,-0.6826172 0.3984375,-1.1835938 0,-0.4277344 -0.1376953,-0.7763672 -0.4101562,-1.0429687 -0.2666016,-0.272461 -0.6269532,-0.4101563 -1.078125,-0.4101563 -0.2431641,0 -0.4658204,0.041016 -0.6679688,0.1171875 -0.2050781,0.079102 -0.4072266,0.2080078 -0.609375,0.3867188 H 0.598 l 0.234375,-3.7148438 h 3.9140625 v 0.75 H 1.62925 L 1.5003438,-3.9502325 C 1.8812031,-4.246131 2.3558125,-4.395545 2.9183125,-4.395545 c 0.6796875,0 1.21875,0.1992187 1.6171875,0.5976562 0.4042969,0.3984375 0.609375,0.9199219 0.609375,1.5585938 z m 0,0"
       style="fill:#000000;fill-opacity:1;fill-rule:nonzero;stroke:none"
       aria-label="5"
       transform="matrix(1.3333333,0,0,1.3333333,405.20267,152.12635)" />
    <path
       id="path36"
       d="M 0.5050625,-0.00101378 V -0.62210753 C 0.669125,-1.0029669 0.87127344,-1.339881 1.1144375,-1.62992 c 0.2402344,-0.2871094 0.4921875,-0.5507813 0.75,-0.7851563 0.2636719,-0.2402344 0.5273438,-0.4628906 0.7851563,-0.6679687 0.2578125,-0.2021485 0.4921875,-0.4013672 0.703125,-0.5976563 0.2109375,-0.2021484 0.3779296,-0.4130859 0.5039062,-0.6328125 0.1318359,-0.2255859 0.1992188,-0.4804687 0.1992188,-0.7617187 0,-0.375 -0.1142579,-0.6679688 -0.3398438,-0.8789063 C 3.4962734,-6.1650763 3.1915859,-6.270545 2.8019375,-6.270545 c -0.375,0 -0.6884766,0.1054687 -0.9375,0.3164062 C 1.6212734,-5.7490607 1.4806484,-5.464881 1.4425625,-5.09867 L 0.54021875,-5.180701 c 0.0703125,-0.5537109 0.3046875,-0.9902344 0.70312505,-1.3125 0.4042968,-0.328125 0.9257812,-0.4921875 1.5585937,-0.4921875 0.6855469,0 1.21875,0.1640625 1.59375,0.4921875 0.375,0.328125 0.5625,0.7939453 0.5625,1.3945313 0,0.2666015 -0.064453,0.5332031 -0.1875,0.796875 C 4.6535,-4.0439825 4.4718594,-3.7803107 4.231625,-3.5166388 3.9884609,-3.2500372 3.5285,-2.839881 2.8488125,-2.28617 c -0.375,0.3046875 -0.6767578,0.5830078 -0.9023437,0.8320312 -0.2197266,0.2431641 -0.375,0.47753908 -0.46875,0.70312502 h 3.5859375 v 0.75 z m 0,0"
       style="fill:#000000;fill-opacity:1;fill-rule:nonzero;stroke:none"
       aria-label="2"
       transform="matrix(1.3333333,0,0,1.3333333,490.54533,152.12635)" />
    <path
       id="path37"
       d="m 5.1433125,-2.239295 c 0,0.7265625 -0.2167969,1.29785153 -0.6445313,1.71093747 -0.430664,0.41601563 -1.0283203,0.62109375 -1.7929687,0.62109375 -0.6503906,0 -1.1689453,-0.13476562 -1.5585938,-0.41015625 C 0.75464062,-0.59867003 0.50561719,-1.0029669 0.39721875,-1.53617 L 1.2878437,-1.6416388 c 0.1875,0.67968752 0.6621094,1.01953127 1.4296875,1.01953127 0.4746094,0 0.8466797,-0.140625 1.1132813,-0.42187497 0.2636719,-0.2871094 0.3984375,-0.6826172 0.3984375,-1.1835938 0,-0.4277344 -0.1376953,-0.7763672 -0.4101563,-1.0429687 -0.2666015,-0.272461 -0.6269531,-0.4101563 -1.078125,-0.4101563 -0.243164,0 -0.4658203,0.041016 -0.6679687,0.1171875 -0.2050781,0.079102 -0.4072266,0.2080078 -0.609375,0.3867188 H 0.5964375 l 0.234375,-3.7148438 H 4.744875 v 0.75 H 1.6276875 L 1.4987812,-3.9502325 C 1.8796406,-4.246131 2.35425,-4.395545 2.91675,-4.395545 c 0.6796875,0 1.21875,0.1992187 1.6171875,0.5976562 0.4042969,0.3984375 0.609375,0.9199219 0.609375,1.5585938 z m 0,0"
       style="fill:#000000;fill-opacity:1;fill-rule:nonzero;stroke:none"
       aria-label="5"
       transform="matrix(1.3333333,0,0,1.3333333,575.736,152.12635)" />
    <path
       id="path38"
       d="m 4.0074766,-0.85442003 c -0.1582032,0.34570313 -0.3720703,0.59179688 -0.6445313,0.73828125 -0.2666015,0.140625 -0.5976562,0.2109375 -0.9960937,0.2109375 -0.6738282,0 -1.1660157,-0.22265625 -1.47656254,-0.66796875 -0.31347656,-0.45117187 -0.46875,-1.13671877 -0.46875,-2.05078127 0,-1.8427734 0.64746094,-2.765625 1.94531254,-2.765625 0.3984375,0 0.7294922,0.076172 0.9960937,0.2226563 0.272461,0.149414 0.4863281,0.383789 0.6445313,0.703125 h 0.011719 l -0.011719,-0.5976563 v -2.1914062 h 0.8789062 v 6.1640625 c 0,0.54785153 0.011719,0.91113278 0.035156,1.08984372 h -0.84375 C 4.069,-0.05168565 4.0572813,-0.17473253 4.0426328,-0.36223253 c -0.00879,-0.1875 -0.011719,-0.3515625 -0.011719,-0.4921875 z M 1.3473203,-2.6473888 c 0,0.7441406 0.09668,1.2744141 0.2929688,1.59375 0.1933593,0.31347658 0.5097656,0.46875002 0.9492187,0.46875002 0.4980469,0 0.8583985,-0.16992187 1.078125,-0.51562502 0.225586,-0.3427734 0.3398438,-0.8789062 0.3398438,-1.6054687 0,-0.703125 -0.1142578,-1.2128907 -0.3398438,-1.5351563 -0.2197265,-0.328125 -0.5742187,-0.4921875 -1.0664062,-0.4921875 -0.4453125,0 -0.7675782,0.1640625 -0.9609375,0.4921875 -0.1962891,0.328125 -0.2929688,0.8613281 -0.2929688,1.59375 z m 4.913086,-3.7617187 v -0.84375 h 0.8789062 v 0.84375 z m 0,6.41015622 V -5.2841075 H 7.1393125 V 0.00104872 Z M 9.5650938,-4.651295 V 0.00104872 H 8.6744688 V -4.651295 H 7.9361875 v -0.6328125 h 0.7382813 v -0.5976563 c 0,-0.4833984 0.1054687,-0.8320312 0.3164062,-1.0429687 0.2167969,-0.2109375 0.5449219,-0.3164063 0.984375,-0.3164063 0.240234,0 0.448242,0.020508 0.621094,0.058594 v 0.6679687 c -0.149414,-0.023437 -0.28125,-0.035156 -0.398438,-0.035156 -0.2285154,0 -0.3925779,0.058594 -0.4921872,0.1757812 -0.09375,0.1113281 -0.140625,0.3134766 -0.140625,0.609375 v 0.4804688 h 1.0312502 v 0.6328125 z m 2.7919922,0 V 0.00104872 H 11.466461 V -4.651295 H 10.72818 v -0.6328125 h 0.738281 v -0.5976563 c 0,-0.4833984 0.105469,-0.8320312 0.316406,-1.0429687 0.216797,-0.2109375 0.544922,-0.3164063 0.984375,-0.3164063 0.240235,0 0.448242,0.020508 0.621094,0.058594 v 0.6679687 c -0.149414,-0.023437 -0.28125,-0.035156 -0.398438,-0.035156 -0.228515,0 -0.392578,0.058594 -0.492187,0.1757812 -0.09375,0.1113281 -0.140625,0.3134766 -0.140625,0.609375 v 0.4804688 h 1.03125 V -4.651295 Z M 14.29068,0.00104872 V -1.0653575 h 0.949218 V 0.00104872 Z M 25.112945,-1.9442638 c 0,0.6181641 -0.228515,1.09863283 -0.679687,1.44140627 -0.445313,0.33691406 -1.063477,0.50390625 -1.851563,0.50390625 H 19.780914 V -6.8895763 h 2.507813 c 1.608398,0 2.414062,0.5595703 2.414062,1.6757813 0,0.4072265 -0.114258,0.75 -0.339844,1.03125 -0.228515,0.2753906 -0.547851,0.4570312 -0.960937,0.5507812 0.544922,0.070312 0.966797,0.2578125 1.265625,0.5625 0.295898,0.2988281 0.445312,0.6738281 0.445312,1.125 z m -1.347656,-3.1523437 c 0,-0.375 -0.128906,-0.6386719 -0.386719,-0.796875 -0.251953,-0.1640625 -0.615234,-0.2460938 -1.089843,-0.2460938 h -1.570313 v 2.1796875 h 1.570313 c 0.492187,0 0.858398,-0.09375 1.101562,-0.28125 0.249024,-0.1875 0.375,-0.4716797 0.375,-0.8554687 z m 0.398438,3.0820312 c 0,-0.8115234 -0.571289,-1.21875 -1.710938,-1.21875 h -1.734375 v 2.48437502 h 1.804688 c 0.568359,0 0.984375,-0.10546875 1.242187,-0.31640622 0.263672,-0.2109375 0.398438,-0.5273438 0.398438,-0.9492188 z m 3.518554,2.10937502 c -0.533203,0 -0.93457,-0.13476562 -1.207031,-0.41015625 -0.266602,-0.28125 -0.398437,-0.66796875 -0.398437,-1.16015627 0,-0.5449219 0.17871,-0.9638672 0.539062,-1.2539062 0.357422,-0.2958985 0.94043,-0.4570313 1.746094,-0.4804688 l 1.183594,-0.011719 v -0.2929688 c 0,-0.4277344 -0.09082,-0.7324219 -0.269532,-0.9140625 -0.18164,-0.1875 -0.46582,-0.28125 -0.855468,-0.28125 -0.398438,0 -0.688477,0.067383 -0.867188,0.1992188 -0.181641,0.1347656 -0.287109,0.3457031 -0.316406,0.6328125 l -0.925781,-0.082031 c 0.146484,-0.9521484 0.855468,-1.4296875 2.121093,-1.4296875 0.66211,0 1.163086,0.1523438 1.5,0.4570313 0.333985,0.3046875 0.503907,0.7470703 0.503907,1.3242187 V -1.32317 c 0,0.2578125 0.03516,0.45410153 0.105468,0.58593747 0.07031,0.13476563 0.199219,0.19921875 0.386719,0.19921875 0.08496,0 0.181641,-0.0117188 0.292969,-0.0351563 v 0.5390625 c -0.219727,0.05273438 -0.445313,0.08203125 -0.679688,0.08203125 -0.328125,0 -0.568359,-0.08496094 -0.714843,-0.2578125 -0.149415,-0.16992187 -0.231446,-0.43652344 -0.246094,-0.79687497 h -0.03516 c -0.219727,0.39843747 -0.480469,0.68554685 -0.785157,0.85546872 -0.298828,0.1640625 -0.65625,0.24609375 -1.078125,0.24609375 z m 0.199219,-0.65625 c 0.319336,0 0.603516,-0.0703125 0.855469,-0.2109375 0.249023,-0.14648437 0.445312,-0.35156252 0.585937,-0.60937502 0.146485,-0.2578125 0.222657,-0.5214844 0.222657,-0.796875 v -0.4335937 l -0.960938,0.023437 c -0.416016,0.00879 -0.726562,0.052734 -0.9375,0.1289062 -0.210937,0.079102 -0.375,0.1992188 -0.492187,0.3632813 -0.117188,0.1640625 -0.175782,0.375 -0.175782,0.6328125 0,0.290039 0.07617,0.51269528 0.234375,0.66796872 0.155274,0.15820313 0.37793,0.234375 0.667969,0.2343755 z m 4.713867,-2.10937502 c 0,0.703125 0.108399,1.2275391 0.328125,1.5703125 0.216797,0.33691408 0.553711,0.50390627 1.007813,0.50390627 0.310547,0 0.568359,-0.0820313 0.773437,-0.24609375 C 34.91568,-1.0126232 35.047516,-1.276295 35.10318,-1.6278575 l 0.878906,0.058594 c -0.06445,0.5097656 -0.27832,0.91406252 -0.644531,1.21875002 -0.369141,0.29882813 -0.829102,0.4453125 -1.382813,0.4453125 -0.74414,0 -1.30957,-0.22851562 -1.699219,-0.69140625 -0.392578,-0.46874997 -0.585937,-1.15136717 -0.585937,-2.05078127 0,-0.890625 0.193359,-1.5703125 0.585937,-2.0390625 0.389649,-0.46875 0.952149,-0.703125 1.6875,-0.703125 0.539063,0 0.984375,0.140625 1.335938,0.421875 0.357422,0.28125 0.585937,0.6679688 0.679687,1.1601563 l -0.902343,0.070312 C 35.00943,-4.033131 34.892242,-4.267506 34.704742,-4.4403575 34.517242,-4.6102794 34.25357,-4.69817 33.919586,-4.69817 c -0.46875,0 -0.808594,0.1582031 -1.019531,0.46875 -0.205078,0.3046875 -0.304688,0.8261718 -0.304688,1.5585937 z M 40.235992,0.00104872 38.454742,-2.4130138 37.810211,-1.88567 V 0.00104872 H 36.931305 V -7.2528575 h 0.878906 v 4.5351562 l 2.320312,-2.5664062 h 1.03125 l -2.144531,2.2734375 2.25,3.01171872 z M 42.79068,-5.2841075 v 3.3515625 c 0,0.3457031 0.0293,0.6152343 0.09375,0.8085937 0.07031,0.19628908 0.178711,0.33691408 0.328125,0.42187502 0.155273,0.0791016 0.377929,0.1171875 0.667968,0.1171875 0.421875,0 0.75293,-0.14355469 0.996094,-0.43359372 0.249024,-0.2871094 0.375,-0.6914063 0.375,-1.2070313 v -3.0585937 h 0.878906 v 4.1601562 c 0,0.60937502 0.0059,0.98437502 0.02344,1.12500002 H 45.32193 c 0,-0.01464844 -0.0059,-0.05859375 -0.01172,-0.12890625 0,-0.0703125 -0.0059,-0.15234375 -0.01172,-0.24609375 0,-0.09375 -0.0059,-0.26953125 -0.01172,-0.52734375 h -0.01172 c -0.205078,0.36914063 -0.439453,0.62695313 -0.703125,0.7734375 -0.266602,0.14648438 -0.597657,0.22265625 -0.996094,0.22265625 -0.580078,0 -1.004883,-0.140625 -1.277344,-0.421875 C 42.031886,-0.61418565 41.90005,-1.0946544 41.90005,-1.7684825 v -3.515625 z m 9.202148,2.6132812 c 0,1.84570315 -0.65039,2.76562502 -1.945312,2.76562502 -0.814453,0 -1.359375,-0.3046875 -1.640625,-0.9140625 h -0.02344 c 0.01465,0.0234375 0.02344,0.30175781 0.02344,0.83203125 V 2.0752675 h -0.878907 v -6.28125 c 0,-0.5449219 -0.01172,-0.9052735 -0.03516,-1.078125 h 0.855469 c 0,0.00879 0.0029,0.055664 0.01172,0.140625 0.0059,0.079102 0.01465,0.1992187 0.02344,0.3632812 0.0059,0.1640625 0.01172,0.2783203 0.01172,0.3398438 h 0.01172 c 0.155273,-0.319336 0.363281,-0.553711 0.621093,-0.703125 0.257813,-0.1552735 0.597657,-0.234375 1.019532,-0.234375 0.65625,0 1.142578,0.2197265 1.464843,0.65625 0.319336,0.4394531 0.480469,1.1220703 0.480469,2.0507812 z m -0.925781,0.023437 c 0,-0.7324219 -0.102539,-1.2568359 -0.304688,-1.5703125 -0.196289,-0.3193359 -0.509765,-0.4804687 -0.9375,-0.4804687 -0.351562,0 -0.626953,0.076172 -0.820312,0.2226562 -0.196289,0.140625 -0.345703,0.3691406 -0.445313,0.6796875 -0.102539,0.3134766 -0.152343,0.7207031 -0.152343,1.21875 0,0.6972656 0.108398,1.2070313 0.328125,1.5351563 0.216797,0.32812497 0.577148,0.49218747 1.078125,0.49218747 0.436523,0 0.752929,-0.15820312 0.949218,-0.48046877 0.202149,-0.3193359 0.304688,-0.8583984 0.304688,-1.6171875 z m 0,0"
       style="fill:#000000;fill-opacity:1;fill-rule:nonzero;stroke:none"
       aria-label="diff. Backup"
       transform="matrix(1.3333333,0,0,1.3333333,83.074667,181.34235)" />
    <path
       id="path39"
       d="m 5.1207422,-1.8973888 c 0,0.6328125 -0.2050781,1.12500002 -0.609375,1.47656252 -0.3984375,0.34570313 -0.9726563,0.515625 -1.7226563,0.515625 -0.6972656,0 -1.2509765,-0.15527344 -1.6640625,-0.46875 C 0.70863281,-0.68449815 0.46253906,-1.1503185 0.38636719,-1.7684825 l 0.90234371,-0.082031 c 0.1171875,0.8144531 0.6152344,1.21875002 1.5,1.21875002 0.4453125,0 0.7910157,-0.10839844 1.0429688,-0.328125 0.2490234,-0.21679692 0.375,-0.54199222 0.375,-0.97265622 0,-0.375 -0.1464844,-0.6621094 -0.4335938,-0.8671875 C 3.4918359,-3.01067 3.0758203,-3.1161388 2.5308984,-3.1161388 H 2.0269922 v -0.7734375 h 0.4804687 c 0.4833985,0 0.8583985,-0.099609 1.125,-0.3046875 0.2636719,-0.2109375 0.3984375,-0.5039062 0.3984375,-0.8789062 0,-0.366211 -0.1113281,-0.65625 -0.328125,-0.8671875 -0.2109375,-0.2167969 -0.5332031,-0.328125 -0.9609375,-0.328125 -0.3925781,0 -0.7089843,0.102539 -0.9492187,0.3046875 -0.234375,0.196289 -0.3720703,0.477539 -0.4101563,0.84375 L 0.50355469,-5.190357 c 0.0615234,-0.5625 0.29296875,-0.9990235 0.69140621,-1.3125 0.4042969,-0.319336 0.9257813,-0.4804688 1.5585938,-0.4804688 0.6855469,0 1.2216797,0.1611328 1.6054687,0.4804688 0.3808594,0.3222656 0.5742188,0.7675781 0.5742188,1.3359375 0,0.4453125 -0.1259766,0.805664 -0.375,1.078125 -0.2431641,0.2753906 -0.5976563,0.4628906 -1.0664063,0.5625 v 0.011719 c 0.515625,0.055664 0.9140625,0.2285156 1.1953125,0.515625 0.2871094,0.2900391 0.4335938,0.65625 0.4335938,1.1015617 z m 0,0"
       style="fill:#000000;fill-opacity:1;fill-rule:nonzero;stroke:none"
       aria-label="3"
       transform="matrix(1.3333333,0,0,1.3333333,234.52,181.34235)" />
    <path
       id="path40"
       d="m 5.0991172,-3.5848888 c 0,1.1894531 -0.2197266,2.0976563 -0.65625,2.73046877 -0.4306641,0.6328125 -1.0429688,0.94921875 -1.8398438,0.94921875 -0.5390625,0 -0.9726562,-0.11132812 -1.3007812,-0.33984375 C 0.97997656,-0.47063097 0.75146094,-0.83391222 0.61083594,-1.3348888 l 0.84374996,-0.140625 c 0.1699219,0.58007815 0.5566407,0.86718752 1.1601563,0.86718752 0.5068359,0 0.8964844,-0.234375 1.171875,-0.70312502 0.28125,-0.46875 0.4248047,-1.1396484 0.4335937,-2.015625 C 4.0942344,-3.0282482 3.8715781,-2.7909435 3.5522422,-2.6122325 3.2387656,-2.439381 2.8901328,-2.35442 2.5092734,-2.35442 c -0.618164,0 -1.1132812,-0.2109375 -1.4882812,-0.6328125 -0.36914064,-0.421875 -0.55078126,-0.984375 -0.55078126,-1.6875 0,-0.7177735 0.19921875,-1.2802735 0.59765626,-1.6875 0.4042969,-0.413086 0.9726562,-0.6210938 1.6992187,-0.6210938 0.7646485,0 1.3417969,0.2871094 1.734375,0.8554688 0.3984375,0.5625 0.5976563,1.4121093 0.5976563,2.5429687 z m -0.9609375,-0.84375 c 0,-0.5537109 -0.1289063,-0.9990234 -0.3867188,-1.3359375 -0.2519531,-0.3339844 -0.5917968,-0.5039062 -1.0195312,-0.5039062 -0.421875,0 -0.7587891,0.1464843 -1.0078125,0.4335937 -0.2431641,0.28125 -0.3632813,0.6679688 -0.3632813,1.1601563 0,0.5097656 0.1201172,0.9082031 0.3632813,1.1953125 0.2490234,0.290039 0.5800781,0.4335937 0.9960937,0.4335937 0.2578125,0 0.4951172,-0.052734 0.7148438,-0.1640625 0.2167969,-0.1171875 0.3896484,-0.28125 0.515625,-0.4921875 0.1230469,-0.2167969 0.1875,-0.4599609 0.1875,-0.7265625 z m 0,0"
       style="fill:#000000;fill-opacity:1;fill-rule:nonzero;stroke:none"
       aria-label="9"
       transform="matrix(1.3333333,0,0,1.3333333,319.86133,181.34235)" />
    <path
       id="path41"
       d="m 0.76078125,0.00104872 v -0.75 H 2.5185938 V -6.0458263 L 0.96,-4.932545 v -0.8320313 l 1.6289063,-1.125 H 3.3975 v 6.14062502 h 1.6757813 v 0.75 z M 9.8955469,-1.557545 V 0.00104872 H 9.0635156 V -1.557545 h -3.234375 v -0.6796875 l 3.1523438,-4.6523438 h 0.9140625 v 4.640625 H 10.868203 V -1.557545 Z M 9.0635156,-5.8934825 c 0,0.023437 -0.043945,0.1142578 -0.1289062,0.2695312 -0.087891,0.1494141 -0.1494141,0.2548828 -0.1875,0.3164063 L 6.9775781,-2.7059825 6.7080469,-2.35442 6.6377344,-2.2489513 h 2.4257812 z m 0,0"
       style="fill:#000000;fill-opacity:1;fill-rule:nonzero;stroke:none"
       aria-label="14"
       transform="matrix(1.3333333,0,0,1.3333333,397.72,181.34235)" />
    <path
       id="path42"
       d="m 0.76259375,0.00104872 v -0.75 H 2.5204063 V -6.0458263 L 0.9618125,-4.932545 v -0.8320313 l 1.6289063,-1.125 h 0.8085937 v 6.14062502 h 1.6757813 v 0.75 z M 10.714742,-2.2489513 c 0,0.7265625 -0.196289,1.30078127 -0.585937,1.72265627 -0.3925784,0.41601563 -0.9345706,0.62109375 -1.6289066,0.62109375 -0.7822265,0 -1.3798828,-0.28417969 -1.7929687,-0.85546875 -0.4072266,-0.57714847 -0.609375,-1.41796877 -0.609375,-2.51953127 0,-1.1953125 0.2138672,-2.109375 0.6445312,-2.7421875 0.4277344,-0.6386719 1.0371094,-0.9609375 1.828125,-0.9609375 1.0371094,0 1.6904301,0.4658203 1.9570311,1.3945313 l -0.8437498,0.1523437 c -0.1728516,-0.5537109 -0.5478516,-0.8320312 -1.125,-0.8320312 -0.5097656,0 -0.8994141,0.234375 -1.171875,0.703125 -0.2753906,0.4628906 -0.4101563,1.1367187 -0.4101563,2.0273437 0.1552735,-0.2958984 0.3779297,-0.5214844 0.6679688,-0.6796875 0.2958984,-0.1552734 0.6328125,-0.234375 1.0078125,-0.234375 0.6328125,0 1.1308594,0.1992188 1.4999998,0.5976563 0.375,0.3984375 0.5625,0.9345703 0.5625,1.6054687 z m -0.8906248,0.035156 c 0,-0.4980469 -0.1230469,-0.881836 -0.3632813,-1.1484375 -0.243164,-0.272461 -0.5830078,-0.4101563 -1.0195312,-0.4101563 -0.4160156,0 -0.7470703,0.1230469 -0.9960938,0.3632813 -0.2519531,0.234375 -0.375,0.5625 -0.375,0.984375 0,0.5332031 0.1289063,0.9697265 0.3867188,1.3125 0.2636719,0.33691403 0.6005859,0.50390622 1.0078125,0.50390622 0.421875,0 0.7529297,-0.140625 0.9960937,-0.42187502 0.2402344,-0.2871094 0.3632813,-0.6826172 0.3632813,-1.1835937 z m 0,0"
       style="fill:#000000;fill-opacity:1;fill-rule:nonzero;stroke:none"
       aria-label="16"
       transform="matrix(1.3333333,0,0,1.3333333,483.06133,181.34235)" />
    <path
       id="path43"
       d="M 0.50533594,0.00104872 V -0.62004503 C 0.66939844,-1.0009044 0.87154688,-1.3378185 1.1147109,-1.6278575 c 0.2402344,-0.2871094 0.4921875,-0.5507813 0.75,-0.7851563 0.2636719,-0.2402344 0.5273438,-0.4628906 0.7851563,-0.6679687 0.2578125,-0.2021485 0.4921875,-0.4013672 0.703125,-0.5976563 0.2109375,-0.2021484 0.3779297,-0.4130859 0.5039062,-0.6328125 0.131836,-0.2255859 0.1992188,-0.4804687 0.1992188,-0.7617187 0,-0.375 -0.1142578,-0.6679688 -0.3398438,-0.8789063 -0.2197265,-0.2109375 -0.524414,-0.3164062 -0.9140625,-0.3164062 -0.375,0 -0.6884765,0.1054687 -0.9375,0.3164062 -0.243164,0.2050781 -0.383789,0.4892578 -0.421875,0.8554688 l -0.90234371,-0.082031 c 0.0703125,-0.5537109 0.3046875,-0.9902344 0.70312501,-1.3125 0.4042969,-0.328125 0.9257812,-0.4921875 1.5585937,-0.4921875 0.6855469,0 1.21875,0.1640625 1.59375,0.4921875 0.375,0.328125 0.5625,0.7939453 0.5625,1.3945313 0,0.2666015 -0.064453,0.5332031 -0.1875,0.796875 -0.1171875,0.2578125 -0.2988281,0.5214843 -0.5390625,0.7851562 -0.243164,0.2666016 -0.703125,0.6767578 -1.3828125,1.2304688 -0.375,0.3046875 -0.6767578,0.5830078 -0.9023437,0.8320312 -0.2197266,0.2431641 -0.375,0.47753908 -0.46875,0.70312502 h 3.5859375 v 0.75 z m 5.85058596,0 v -0.75 H 8.1137344 V -6.0458263 L 6.5551406,-4.932545 v -0.8320313 l 1.6289063,-1.125 h 0.8085937 v 6.14062502 h 1.6757814 v 0.75 z m 0,0"
       style="fill:#000000;fill-opacity:1;fill-rule:nonzero;stroke:none"
       aria-label="21"
       transform="matrix(1.3333333,0,0,1.3333333,568.252,181.34235)" />
    <path
       id="path44"
       d="m 5.1214063,-2.2489513 c 0,0.7265625 -0.1962891,1.30078127 -0.5859375,1.72265627 -0.3925782,0.41601563 -0.9345704,0.62109375 -1.6289063,0.62109375 -0.7822266,0 -1.3798828,-0.28417969 -1.7929687,-0.85546875 C 0.70636719,-1.3378185 0.50421875,-2.1786388 0.50421875,-3.2802013 c 0,-1.1953125 0.21386719,-2.109375 0.64453125,-2.7421875 0.4277344,-0.6386719 1.0371094,-0.9609375 1.828125,-0.9609375 1.0371094,0 1.6904297,0.4658203 1.9570313,1.3945313 l -0.84375,0.1523437 c -0.1728516,-0.5537109 -0.5478516,-0.8320312 -1.125,-0.8320312 -0.5097657,0 -0.8994141,0.234375 -1.171875,0.703125 -0.2753907,0.4628906 -0.4101563,1.1367187 -0.4101563,2.0273437 0.1552734,-0.2958984 0.3779297,-0.5214844 0.6679688,-0.6796875 0.2958984,-0.1552734 0.6328125,-0.234375 1.0078125,-0.234375 0.6328125,0 1.1308593,0.1992188 1.5,0.5976563 0.375,0.3984375 0.5625,0.9345703 0.5625,1.6054687 z m -0.890625,0.035156 c 0,-0.4980469 -0.1230469,-0.881836 -0.3632813,-1.1484375 -0.2431641,-0.272461 -0.5830078,-0.4101563 -1.0195312,-0.4101563 -0.4160157,0 -0.7470704,0.1230469 -0.9960938,0.3632813 -0.2519531,0.234375 -0.375,0.5625 -0.375,0.984375 0,0.5332031 0.1289063,0.9697265 0.3867188,1.3125 0.2636718,0.33691403 0.6005859,0.50390622 1.0078125,0.50390622 0.421875,0 0.7529296,-0.140625 0.9960937,-0.42187502 0.2402344,-0.2871094 0.3632813,-0.6826172 0.3632813,-1.1835937 z m 6.4833987,0.3164062 c 0,0.6328125 -0.205078,1.12500002 -0.609375,1.47656252 -0.3984378,0.34570313 -0.9726566,0.515625 -1.7226566,0.515625 -0.6972656,0 -1.2509765,-0.15527344 -1.6640625,-0.46875 C 6.3020703,-0.68449815 6.0559766,-1.1503185 5.9798047,-1.7684825 l 0.9023437,-0.082031 c 0.1171875,0.8144531 0.6152344,1.21875002 1.5,1.21875002 0.4453125,0 0.7910157,-0.10839844 1.0429688,-0.328125 0.2490234,-0.21679692 0.375,-0.54199222 0.375,-0.97265622 0,-0.375 -0.1464844,-0.6621094 -0.4335938,-0.8671875 C 9.0852734,-3.01067 8.6692578,-3.1161388 8.1243359,-3.1161388 H 7.6204297 v -0.7734375 h 0.4804687 c 0.4833985,0 0.8583985,-0.099609 1.125,-0.3046875 0.2636719,-0.2109375 0.3984375,-0.5039062 0.3984375,-0.8789062 0,-0.366211 -0.1113281,-0.65625 -0.328125,-0.8671875 -0.2109375,-0.2167969 -0.5332031,-0.328125 -0.9609375,-0.328125 -0.3925781,0 -0.7089843,0.102539 -0.9492187,0.3046875 -0.234375,0.196289 -0.3720703,0.477539 -0.4101563,0.84375 L 6.0969922,-5.190357 c 0.061523,-0.5625 0.2929687,-0.9990235 0.6914062,-1.3125 0.4042969,-0.319336 0.9257813,-0.4804688 1.5585938,-0.4804688 0.6855469,0 1.2216797,0.1611328 1.6054687,0.4804688 0.3808591,0.3222656 0.5742191,0.7675781 0.5742191,1.3359375 0,0.4453125 -0.125977,0.805664 -0.375,1.078125 -0.2431644,0.2753906 -0.5976566,0.4628906 -1.0664066,0.5625 v 0.011719 c 0.515625,0.055664 0.9140625,0.2285156 1.1953126,0.515625 0.287109,0.2900391 0.433594,0.65625 0.433594,1.1015625 z m 0,0"
       style="fill:#000000;fill-opacity:1;fill-rule:nonzero;stroke:none"
       aria-label="63"
       transform="matrix(1.3333333,0,0,1.3333333,653.59333,181.34235)" />
    <path
       id="path45"
       d="m 0.66763281,-6.4112716 v -0.84375 H 1.5465391 v 0.84375 z m 0,6.41015626 V -5.2862716 H 1.5465391 v 5.28515626 z m 5.56347659,0 V -3.3526778 c 0,-0.3515625 -0.035156,-0.6210938 -0.1054688,-0.8085938 -0.064453,-0.1933594 -0.1728515,-0.3339844 -0.328125,-0.421875 -0.149414,-0.084961 -0.3691406,-0.1289062 -0.65625,-0.1289062 -0.421875,0 -0.758789,0.149414 -1.0078125,0.4453125 -0.243164,0.290039 -0.3632812,0.6914062 -0.3632812,1.2070312 v 3.05859376 H 2.8912656 V -4.1612716 c 0,-0.6152344 -0.00879,-0.9902344 -0.023437,-1.125 h 0.8320313 c 0,0.017578 0,0.058594 0,0.1289063 0.00586,0.070312 0.011719,0.1523437 0.011719,0.2460937 0.00586,0.09375 0.014648,0.2695313 0.023437,0.5273438 h 0.011719 c 0.2021484,-0.366211 0.4365234,-0.6240235 0.703125,-0.7734375 0.2636719,-0.1552735 0.5917969,-0.234375 0.984375,-0.234375 0.5859375,0 1.0107422,0.1464843 1.2773437,0.4335937 0.2636719,0.2900391 0.3984375,0.7675781 0.3984375,1.4296875 v 3.52734376 z m 5.5488286,0 -1.7812505,-2.41406246 -0.6445312,0.5273437 v 1.88671876 H 8.47525 V -7.2550216 h 0.8789063 v 4.5351563 l 2.3203127,-2.5664063 h 1.03125 l -2.144531,2.2734375 2.25,3.01171876 z m 1.708007,0 V -4.0558028 c 0,-0.375 -0.0088,-0.7851563 -0.02344,-1.2304688 h 0.832031 c 0.02344,0.6035156 0.03516,0.9609375 0.03516,1.078125 h 0.02344 c 0.140625,-0.4511719 0.298828,-0.7617187 0.480469,-0.9257812 0.178711,-0.1699219 0.436523,-0.2578125 0.773437,-0.2578125 0.117188,0 0.234375,0.020508 0.351563,0.058594 v 0.796875 c -0.117188,-0.029297 -0.275391,-0.046875 -0.46875,-0.046875 -0.369141,0 -0.650391,0.1611328 -0.84375,0.4804688 -0.1875,0.3134765 -0.28125,0.7617187 -0.28125,1.3476562 v 2.75390626 z m 3.524414,0 V -1.0675216 h 0.949219 v 1.06640626 z M 27.834625,-1.9464278 c 0,0.618164 -0.228516,1.09863277 -0.679687,1.44140621 -0.445313,0.33691406 -1.063477,0.50390625 -1.851563,0.50390625 H 22.502594 V -6.8917403 h 2.507812 c 1.608399,0 2.414063,0.5595703 2.414063,1.6757812 0,0.4072266 -0.114258,0.75 -0.339844,1.03125 -0.228516,0.2753906 -0.547852,0.4570313 -0.960937,0.5507813 0.544921,0.070312 0.966796,0.2578125 1.265625,0.5625 0.295898,0.2988281 0.445312,0.6738281 0.445312,1.125 z m -1.347656,-3.1523438 c 0,-0.375 -0.128906,-0.6386719 -0.386719,-0.796875 -0.251953,-0.1640625 -0.615234,-0.2460937 -1.089844,-0.2460937 h -1.570312 v 2.1796875 h 1.570312 c 0.492188,0 0.858399,-0.09375 1.101563,-0.28125 0.249023,-0.1875 0.375,-0.4716797 0.375,-0.8554688 z m 0.398437,3.0820313 c 0,-0.8115235 -0.571289,-1.21875 -1.710937,-1.21875 h -1.734375 v 2.48437496 h 1.804687 c 0.56836,0 0.984375,-0.10546875 1.242188,-0.31640626 0.263672,-0.2109375 0.398437,-0.5273437 0.398437,-0.9492187 z m 3.518555,2.10937496 c -0.533203,0 -0.93457,-0.13476563 -1.207031,-0.41015625 -0.266602,-0.28125 -0.398438,-0.66796875 -0.398438,-1.16015621 0,-0.5449219 0.178711,-0.9638672 0.539063,-1.2539063 0.357422,-0.2958984 0.940429,-0.4570312 1.746093,-0.4804687 l 1.183594,-0.011719 v -0.2929687 c 0,-0.4277344 -0.09082,-0.7324219 -0.269531,-0.9140625 -0.181641,-0.1875 -0.46582,-0.28125 -0.855469,-0.28125 -0.398437,0 -0.688476,0.067383 -0.867187,0.1992187 -0.181641,0.1347656 -0.28711,0.3457031 -0.316407,0.6328125 l -0.925781,-0.082031 c 0.146485,-0.9521485 0.855469,-1.4296875 2.121094,-1.4296875 0.662109,0 1.163086,0.1523437 1.5,0.4570312 0.333984,0.3046875 0.503906,0.7470703 0.503906,1.3242188 v 2.2851562 c 0,0.2578125 0.03516,0.45410157 0.105469,0.58593751 0.07031,0.13476562 0.199219,0.19921875 0.386719,0.19921875 0.08496,0 0.18164,-0.0117188 0.292968,-0.0351563 v 0.5390625 c -0.219726,0.05273437 -0.445312,0.08203125 -0.679687,0.08203125 -0.328125,0 -0.568359,-0.08496094 -0.714844,-0.2578125 -0.149414,-0.16992188 -0.231445,-0.43652344 -0.246094,-0.79687491 h -0.03516 c -0.219726,0.39843741 -0.480469,0.68554678 -0.785156,0.85546866 -0.298828,0.1640625 -0.65625,0.24609375 -1.078125,0.24609375 z m 0.199219,-0.65625 c 0.319336,0 0.603515,-0.0703125 0.855468,-0.2109375 0.249024,-0.14648438 0.445313,-0.35156246 0.585938,-0.60937496 0.146484,-0.2578125 0.222656,-0.5214844 0.222656,-0.796875 v -0.4335938 l -0.960937,0.023437 c -0.416016,0.00879 -0.726563,0.052734 -0.9375,0.1289063 -0.210938,0.079101 -0.375,0.1992187 -0.492188,0.3632812 -0.117187,0.1640625 -0.175781,0.375 -0.175781,0.6328125 0,0.2900391 0.07617,0.51269532 0.234375,0.66796876 0.155273,0.15820312 0.37793,0.234375 0.667969,0.2343755 z m 4.713867,-2.10937496 c 0,0.703125 0.108398,1.227539 0.328125,1.5703125 0.216797,0.33691402 0.553711,0.50390621 1.007812,0.50390621 0.310547,0 0.56836,-0.0820313 0.773438,-0.24609375 0.210937,-0.16992186 0.342773,-0.43359376 0.398437,-0.78515626 l 0.878907,0.058594 c -0.06445,0.5097656 -0.278321,0.91406246 -0.644532,1.21874996 -0.36914,0.29882812 -0.829101,0.4453125 -1.382812,0.4453125 -0.744141,0 -1.30957,-0.22851563 -1.699219,-0.69140625 -0.392578,-0.46875001 -0.585937,-1.15136721 -0.585937,-2.05078121 0,-0.890625 0.193359,-1.5703125 0.585937,-2.0390625 0.389649,-0.46875 0.952149,-0.703125 1.6875,-0.703125 0.539063,0 0.984375,0.140625 1.335938,0.421875 0.357422,0.28125 0.585937,0.6679687 0.679687,1.1601562 l -0.902344,0.070312 c -0.04687,-0.2958984 -0.164062,-0.5302734 -0.351562,-0.703125 -0.1875,-0.1699219 -0.451172,-0.2578125 -0.785156,-0.2578125 -0.46875,0 -0.808594,0.1582031 -1.019532,0.46875 -0.205078,0.3046875 -0.304687,0.8261719 -0.304687,1.5585941 z m 7.640625,2.67187496 -1.78125,-2.41406246 -0.644531,0.5273437 v 1.88671876 H 39.652984 V -7.2550216 h 0.878907 v 4.5351563 l 2.320312,-2.5664063 h 1.03125 l -2.144531,2.2734375 2.25,3.01171876 z m 2.554687,-5.28515626 v 3.3515625 c 0,0.3457031 0.0293,0.6152344 0.09375,0.8085938 0.07031,0.19628902 0.178711,0.33691402 0.328125,0.42187496 0.155274,0.0791016 0.37793,0.1171875 0.667969,0.1171875 0.421875,0 0.75293,-0.14355469 0.996094,-0.43359376 0.249023,-0.2871094 0.375,-0.6914062 0.375,-1.2070312 v -3.0585938 h 0.878906 v 4.1601563 c 0,0.60937496 0.0059,0.98437496 0.02344,1.12499996 h -0.832032 c 0,-0.01464844 -0.0059,-0.05859375 -0.01172,-0.12890625 0,-0.0703125 -0.0059,-0.15234375 -0.01172,-0.24609375 0,-0.09375 -0.0059,-0.26953125 -0.01172,-0.52734375 h -0.01172 c -0.205078,0.36914062 -0.439453,0.62695312 -0.703125,0.7734375 -0.266601,0.14648437 -0.597656,0.22265625 -0.996093,0.22265625 -0.580078,0 -1.004883,-0.140625 -1.277344,-0.421875 C 44.75357,-0.61634972 44.621734,-1.0968185 44.621734,-1.7706466 v -3.515625 z m 9.202149,2.6132813 c 0,1.84570308 -0.650391,2.76562496 -1.945313,2.76562496 -0.814453,0 -1.359375,-0.3046875 -1.640625,-0.9140625 h -0.02344 c 0.01465,0.0234375 0.02344,0.30175781 0.02344,0.83203125 V 2.0731034 h -0.878906 v -6.28125 c 0,-0.5449219 -0.01172,-0.9052734 -0.03516,-1.078125 h 0.855469 c 0,0.00879 0.0029,0.055664 0.01172,0.140625 0.0059,0.079102 0.01465,0.1992188 0.02344,0.3632813 0.0059,0.1640625 0.01172,0.2783203 0.01172,0.3398437 h 0.01172 c 0.155274,-0.3193359 0.363282,-0.5537109 0.621094,-0.703125 0.257813,-0.1552734 0.597656,-0.234375 1.019531,-0.234375 0.65625,0 1.142578,0.2197266 1.464844,0.65625 0.319336,0.4394531 0.480469,1.1220703 0.480469,2.0507813 z m -0.925781,0.023437 c 0,-0.7324219 -0.102539,-1.256836 -0.304688,-1.5703125 -0.196289,-0.319336 -0.509766,-0.4804688 -0.9375,-0.4804688 -0.351562,0 -0.626953,0.076172 -0.820312,0.2226563 -0.196289,0.140625 -0.345704,0.3691406 -0.445313,0.6796875 -0.102539,0.3134765 -0.152344,0.7207031 -0.152344,1.21875 0,0.6972656 0.108399,1.2070312 0.328125,1.5351562 0.216797,0.32812501 0.577149,0.49218751 1.078125,0.49218751 0.436524,0 0.75293,-0.15820313 0.949219,-0.48046871 0.202149,-0.319336 0.304688,-0.8583985 0.304688,-1.6171875 z m 0,0"
       style="fill:#000000;fill-opacity:1;fill-rule:nonzero;stroke:none"
       aria-label="inkr. Backup"
       transform="matrix(1.3333333,0,0,1.3333333,83.074667,210.52102)" />
    <path
       id="path46"
       d="m 5.1207422,-1.8995528 c 0,0.6328125 -0.2050781,1.12499996 -0.609375,1.47656246 -0.3984375,0.34570312 -0.9726563,0.515625 -1.7226563,0.515625 -0.6972656,0 -1.2509765,-0.15527344 -1.6640625,-0.46875 C 0.70863281,-0.68666222 0.46253906,-1.1524825 0.38636719,-1.7706466 l 0.90234371,-0.082031 c 0.1171875,0.8144531 0.6152344,1.21874996 1.5,1.21874996 0.4453125,0 0.7910157,-0.10839844 1.0429688,-0.328125 0.2490234,-0.21679686 0.375,-0.54199216 0.375,-0.97265626 0,-0.375 -0.1464844,-0.6621094 -0.4335938,-0.8671875 -0.28125,-0.2109375 -0.6972656,-0.3164062 -1.2421875,-0.3164062 H 2.0269922 v -0.7734375 h 0.4804687 c 0.4833985,0 0.8583985,-0.099609 1.125,-0.3046875 0.2636719,-0.2109375 0.3984375,-0.5039063 0.3984375,-0.8789063 0,-0.3662109 -0.1113281,-0.65625 -0.328125,-0.8671875 -0.2109375,-0.2167969 -0.5332031,-0.328125 -0.9609375,-0.328125 -0.3925781,0 -0.7089843,0.1025391 -0.9492187,0.3046875 -0.234375,0.1962891 -0.3720703,0.4775391 -0.4101563,0.84375 l -0.87890621,-0.070312 c 0.0615234,-0.5625 0.29296875,-0.9990234 0.69140621,-1.3125 0.4042969,-0.3193359 0.9257813,-0.4804687 1.5585938,-0.4804687 0.6855469,0 1.2216797,0.1611328 1.6054687,0.4804687 0.3808594,0.3222656 0.5742188,0.7675781 0.5742188,1.3359375 0,0.4453125 -0.1259766,0.8056641 -0.375,1.078125 -0.2431641,0.2753906 -0.5976563,0.4628906 -1.0664063,0.5625 v 0.011719 c 0.515625,0.055664 0.9140625,0.2285156 1.1953125,0.515625 0.2871094,0.290039 0.4335938,0.65625 0.4335938,1.1015616 z m 0,0"
       style="fill:#000000;fill-opacity:1;fill-rule:nonzero;stroke:none"
       aria-label="3"
       transform="matrix(1.3333333,0,0,1.3333333,234.52,210.52102)" />
    <path
       id="path47"
       d="m 5.1225547,-2.2511153 c 0,0.7265625 -0.1962891,1.30078121 -0.5859375,1.72265621 -0.3925781,0.41601562 -0.9345703,0.62109375 -1.6289063,0.62109375 -0.7822265,0 -1.3798828,-0.28417969 -1.7929687,-0.85546875 C 0.70751562,-1.3399825 0.50536719,-2.1808028 0.50536719,-3.2823653 c 0,-1.1953125 0.21386718,-2.109375 0.64453121,-2.7421875 0.4277344,-0.6386719 1.0371094,-0.9609375 1.828125,-0.9609375 1.0371094,0 1.6904297,0.4658203 1.9570313,1.3945312 l -0.84375,0.1523438 c -0.1728516,-0.553711 -0.5478516,-0.8320313 -1.125,-0.8320313 -0.5097656,0 -0.8994141,0.234375 -1.171875,0.703125 -0.2753906,0.4628906 -0.4101563,1.1367188 -0.4101563,2.0273438 0.1552735,-0.2958985 0.3779297,-0.5214844 0.6679688,-0.6796875 0.2958984,-0.1552735 0.6328125,-0.234375 1.0078125,-0.234375 0.6328125,0 1.1308594,0.1992187 1.5,0.5976562 0.375,0.3984375 0.5625,0.9345703 0.5625,1.6054688 z m -0.890625,0.035156 c 0,-0.4980469 -0.1230469,-0.8818359 -0.3632813,-1.1484375 -0.243164,-0.2724609 -0.5830078,-0.4101562 -1.0195312,-0.4101562 -0.4160156,0 -0.7470703,0.1230468 -0.9960938,0.3632812 -0.2519531,0.234375 -0.375,0.5625 -0.375,0.984375 0,0.5332031 0.1289063,0.9697266 0.3867188,1.3125 0.2636719,0.33691407 0.6005859,0.50390626 1.0078125,0.50390626 0.421875,0 0.7529297,-0.140625 0.9960937,-0.42187496 0.2402344,-0.2871094 0.3632813,-0.6826172 0.3632813,-1.1835938 z m 0,0"
       style="fill:#000000;fill-opacity:1;fill-rule:nonzero;stroke:none"
       aria-label="6"
       transform="matrix(1.3333333,0,0,1.3333333,319.86133,210.52102)" />
    <path
       id="path48"
       d="m 5.144875,-2.2393966 c 0,0.7265625 -0.2167969,1.29785157 -0.6445312,1.71093751 -0.4306641,0.41601562 -1.0283204,0.62109375 -1.7929688,0.62109375 -0.6503906,0 -1.1689453,-0.13476563 -1.5585937,-0.41015625 C 0.75620313,-0.59877159 0.50717969,-1.0030685 0.39878125,-1.5362716 L 1.2894063,-1.6417403 c 0.1875,0.67968746 0.6621093,1.01953121 1.4296875,1.01953121 0.4746093,0 0.8466796,-0.140625 1.1132812,-0.42187501 0.2636719,-0.2871094 0.3984375,-0.6826172 0.3984375,-1.1835937 0,-0.4277344 -0.1376953,-0.7763672 -0.4101562,-1.0429688 -0.2666016,-0.2724609 -0.6269532,-0.4101562 -1.078125,-0.4101562 -0.2431641,0 -0.4658204,0.041016 -0.6679688,0.1171875 -0.2050781,0.079101 -0.4072266,0.2080078 -0.609375,0.3867187 H 0.598 l 0.234375,-3.7148437 h 3.9140625 v 0.75 H 1.62925 l -0.1289062,2.1914062 c 0.3808593,-0.2958984 0.8554687,-0.4453125 1.4179687,-0.4453125 0.6796875,0 1.21875,0.1992188 1.6171875,0.5976563 0.4042969,0.3984375 0.609375,0.9199218 0.609375,1.5585937 z m 0,0"
       style="fill:#000000;fill-opacity:1;fill-rule:nonzero;stroke:none"
       aria-label="5"
       transform="matrix(1.3333333,0,0,1.3333333,405.20267,210.52102)" />
    <path
       id="path49"
       d="M 0.5050625,-0.00111534 V -0.62220909 C 0.669125,-1.0030685 0.87127344,-1.3399825 1.1144375,-1.6300216 c 0.2402344,-0.2871094 0.4921875,-0.5507812 0.75,-0.7851562 0.2636719,-0.2402344 0.5273438,-0.4628907 0.7851563,-0.6679688 0.2578125,-0.2021484 0.4921875,-0.4013672 0.703125,-0.5976562 0.2109375,-0.2021485 0.3779296,-0.413086 0.5039062,-0.6328125 0.1318359,-0.225586 0.1992188,-0.4804688 0.1992188,-0.7617188 0,-0.375 -0.1142579,-0.6679687 -0.3398438,-0.8789062 -0.2197266,-0.2109375 -0.5244141,-0.3164063 -0.9140625,-0.3164063 -0.375,0 -0.6884766,0.1054688 -0.9375,0.3164063 -0.2431641,0.2050781 -0.3837891,0.4892578 -0.421875,0.8554687 l -0.90234375,-0.082031 c 0.0703125,-0.553711 0.3046875,-0.9902344 0.70312505,-1.3125 0.4042968,-0.328125 0.9257812,-0.4921875 1.5585937,-0.4921875 0.6855469,0 1.21875,0.1640625 1.59375,0.4921875 0.375,0.328125 0.5625,0.7939453 0.5625,1.3945312 0,0.2666016 -0.064453,0.5332031 -0.1875,0.796875 C 4.6535,-4.0440841 4.4718594,-3.7804122 4.231625,-3.5167403 3.9884609,-3.2501388 3.5285,-2.8399825 2.8488125,-2.2862716 c -0.375,0.3046875 -0.6767578,0.5830078 -0.9023437,0.8320313 -0.2197266,0.243164 -0.375,0.47753902 -0.46875,0.70312496 h 3.5859375 v 0.75 z m 0,0"
       style="fill:#000000;fill-opacity:1;fill-rule:nonzero;stroke:none"
       aria-label="2"
       transform="matrix(1.3333333,0,0,1.3333333,490.54533,210.52102)" />
    <path
       id="path50"
       d="m 5.1433125,-2.2393966 c 0,0.7265625 -0.2167969,1.29785157 -0.6445313,1.71093751 -0.430664,0.41601562 -1.0283203,0.62109375 -1.7929687,0.62109375 -0.6503906,0 -1.1689453,-0.13476563 -1.5585938,-0.41015625 C 0.75464062,-0.59877159 0.50561719,-1.0030685 0.39721875,-1.5362716 L 1.2878437,-1.6417403 c 0.1875,0.67968746 0.6621094,1.01953121 1.4296875,1.01953121 0.4746094,0 0.8466797,-0.140625 1.1132813,-0.42187501 0.2636719,-0.2871094 0.3984375,-0.6826172 0.3984375,-1.1835937 0,-0.4277344 -0.1376953,-0.7763672 -0.4101563,-1.0429688 -0.2666015,-0.2724609 -0.6269531,-0.4101562 -1.078125,-0.4101562 -0.243164,0 -0.4658203,0.041016 -0.6679687,0.1171875 -0.2050781,0.079101 -0.4072266,0.2080078 -0.609375,0.3867187 H 0.5964375 l 0.234375,-3.7148437 H 4.744875 v 0.75 H 1.6276875 L 1.4987812,-3.9503341 C 1.8796406,-4.2462325 2.35425,-4.3956466 2.91675,-4.3956466 c 0.6796875,0 1.21875,0.1992188 1.6171875,0.5976563 0.4042969,0.3984375 0.609375,0.9199218 0.609375,1.5585937 z m 0,0"
       style="fill:#000000;fill-opacity:1;fill-rule:nonzero;stroke:none"
       aria-label="5"
       transform="matrix(1.3333333,0,0,1.3333333,575.736,210.52102)" />
    <path
       id="path51"
       d="M 0.50421875,-0.00111534 V -0.62220909 C 0.66828125,-1.0030685 0.87042969,-1.3399825 1.1135938,-1.6300216 1.3538281,-1.917131 1.6057813,-2.1808028 1.8635938,-2.4151778 2.1272656,-2.6554122 2.3909375,-2.8780685 2.64875,-3.0831466 2.9065625,-3.285295 3.1409375,-3.4845138 3.351875,-3.6808028 3.5628125,-3.8829513 3.7298047,-4.0938888 3.8557813,-4.3136153 3.9876172,-4.5392013 4.055,-4.7940841 4.055,-5.0753341 c 0,-0.375 -0.1142578,-0.6679687 -0.3398437,-0.8789062 -0.2197266,-0.2109375 -0.5244141,-0.3164063 -0.9140625,-0.3164063 -0.375,0 -0.6884766,0.1054688 -0.9375,0.3164063 -0.2431641,0.2050781 -0.3837891,0.4892578 -0.421875,0.8554687 L 0.539375,-5.1808028 c 0.0703125,-0.553711 0.3046875,-0.9902344 0.703125,-1.3125 0.4042969,-0.328125 0.9257813,-0.4921875 1.5585938,-0.4921875 0.6855468,0 1.21875,0.1640625 1.59375,0.4921875 0.375,0.328125 0.5625,0.7939453 0.5625,1.3945312 0,0.2666016 -0.064453,0.5332031 -0.1875,0.796875 -0.1171875,0.2578125 -0.2988282,0.5214844 -0.5390625,0.7851563 -0.2431641,0.2666015 -0.703125,0.6767578 -1.3828125,1.2304687 -0.375,0.3046875 -0.6767579,0.5830078 -0.9023438,0.8320313 -0.2197266,0.243164 -0.375,0.47753902 -0.46875,0.70312496 h 3.5859375 v 0.75 z m 5.85058595,0 v -0.75 H 8.1126172 V -6.0479903 l -1.5585938,1.1132812 v -0.8320312 l 1.6289063,-1.125 h 0.8085937 v 6.14062496 h 1.6757816 v 0.75 z m 0,0"
       style="fill:#000000;fill-opacity:1;fill-rule:nonzero;stroke:none"
       aria-label="21"
       transform="matrix(1.3333333,0,0,1.3333333,653.59333,210.52102)" />
  </g>
</svg>
