<?xml version="1.0" encoding="UTF-8" standalone="no"?>
<!-- Created with Inkscape (http://www.inkscape.org/) -->

<svg
   version="1.1"
   id="svg1"
   width="197.51476"
   height="70.182755"
   viewBox="0 0 197.51476 70.182755"
   sodipodi:docname="NAT-Table.pdf"
   xmlns:inkscape="http://www.inkscape.org/namespaces/inkscape"
   xmlns:sodipodi="http://sodipodi.sourceforge.net/DTD/sodipodi-0.dtd"
   xmlns="http://www.w3.org/2000/svg"
   xmlns:svg="http://www.w3.org/2000/svg">
  <defs
     id="defs1" />
  <sodipodi:namedview
     id="namedview1"
     pagecolor="#ffffff"
     bordercolor="#000000"
     borderopacity="0.25"
     inkscape:showpageshadow="2"
     inkscape:pageopacity="0.0"
     inkscape:pagecheckerboard="0"
     inkscape:deskcolor="#d1d1d1" />
  <g
     id="g1"
     inkscape:groupmode="layer"
     inkscape:label="1"
     transform="translate(-74.553284,-102.86131)">
    <path
       id="path7"
       d="m 56.693,701.376 h 146.551 v 12.813 H 56.693 Z"
       style="fill:#e0c2cd;fill-opacity:1;fill-rule:evenodd;stroke:none"
       transform="matrix(1.3333333,0,0,-1.3333333,0,1056)" />
    <path
       id="path8"
       d="m 56.693,663.024 h 146.551 v 38.381 H 56.693 Z"
       style="fill:#eeeeee;fill-opacity:1;fill-rule:evenodd;stroke:none"
       transform="matrix(1.3333333,0,0,-1.3333333,0,1056)" />
    <path
       id="path9"
       d="m 55.928,714.104 h 148.11"
       style="fill:none;stroke:#ffffff;stroke-width:1.50007;stroke-linecap:butt;stroke-linejoin:round;stroke-miterlimit:10;stroke-dasharray:none;stroke-opacity:1"
       transform="matrix(1.3333333,0,0,-1.3333333,0,1056)" />
    <path
       id="path10"
       d="M 56.665,714.841 V 662.23"
       style="fill:none;stroke:#ffffff;stroke-width:1.50007;stroke-linecap:butt;stroke-linejoin:round;stroke-miterlimit:10;stroke-dasharray:none;stroke-opacity:1"
       transform="matrix(1.3333333,0,0,-1.3333333,0,1056)" />
    <path
       id="path11"
       d="M 132.661,714.841 V 662.23"
       style="fill:none;stroke:#ffffff;stroke-width:1.50007;stroke-linecap:butt;stroke-linejoin:round;stroke-miterlimit:10;stroke-dasharray:none;stroke-opacity:1"
       transform="matrix(1.3333333,0,0,-1.3333333,0,1056)" />
    <path
       id="path12"
       d="M 203.301,714.841 V 662.23"
       style="fill:none;stroke:#ffffff;stroke-width:1.50007;stroke-linecap:butt;stroke-linejoin:round;stroke-miterlimit:10;stroke-dasharray:none;stroke-opacity:1"
       transform="matrix(1.3333333,0,0,-1.3333333,0,1056)" />
    <path
       id="path13"
       d="M 203.301,714.841 V 662.23"
       style="fill:none;stroke:#ffffff;stroke-width:1.50007;stroke-linecap:butt;stroke-linejoin:round;stroke-miterlimit:10;stroke-dasharray:none;stroke-opacity:1"
       transform="matrix(1.3333333,0,0,-1.3333333,0,1056)" />
    <path
       id="path14"
       d="m 55.928,701.32 h 148.11"
       style="fill:none;stroke:#ffffff;stroke-width:1.50007;stroke-linecap:butt;stroke-linejoin:round;stroke-miterlimit:10;stroke-dasharray:none;stroke-opacity:1"
       transform="matrix(1.3333333,0,0,-1.3333333,0,1056)" />
    <path
       id="path15"
       d="m 55.928,688.535 h 148.11"
       style="fill:none;stroke:#ffffff;stroke-width:1.50007;stroke-linecap:butt;stroke-linejoin:round;stroke-miterlimit:10;stroke-dasharray:none;stroke-opacity:1"
       transform="matrix(1.3333333,0,0,-1.3333333,0,1056)" />
    <path
       id="path16"
       d="m 55.928,675.751 h 148.11"
       style="fill:none;stroke:#ffffff;stroke-width:1.50007;stroke-linecap:butt;stroke-linejoin:round;stroke-miterlimit:10;stroke-dasharray:none;stroke-opacity:1"
       transform="matrix(1.3333333,0,0,-1.3333333,0,1056)" />
    <path
       id="path17"
       d="m 55.928,662.967 h 148.11"
       style="fill:none;stroke:#ffffff;stroke-width:1.50007;stroke-linecap:butt;stroke-linejoin:round;stroke-miterlimit:10;stroke-dasharray:none;stroke-opacity:1"
       transform="matrix(1.3333333,0,0,-1.3333333,0,1056)" />
    <path
       id="path18"
       d="m 55.928,662.967 h 148.11"
       style="fill:none;stroke:#ffffff;stroke-width:1.50007;stroke-linecap:butt;stroke-linejoin:round;stroke-miterlimit:10;stroke-dasharray:none;stroke-opacity:1"
       transform="matrix(1.3333333,0,0,-1.3333333,0,1056)" />
    <path
       id="path19"
       d="M 0.64591406,-6.40625e-4 V -4.8170469 H 1.3021641 v 4.816406275 z m 4.95410154,0 -2.578125,-4.101562475 0.011719,0.328125 0.023437,0.5742187 V -6.40625e-4 H 2.4711094 V -4.8170469 h 0.7617187 l 2.6015625,4.12500002 C 5.8109531,-1.1373594 5.7992344,-1.459625 5.7992344,-1.6647031 v -3.1523438 h 0.5859375 v 4.816406275 z m 0,0"
       style="fill:#000000;fill-opacity:1;fill-rule:nonzero;stroke:none"
       aria-label="IN"
       transform="matrix(1.3333333,0,0,1.3333333,121.588,116.25867)" />
    <path
       id="path20"
       d="m 5.1214219,-2.4381406 c 0,0.5097656 -0.099609,0.9550781 -0.2929688,1.3359375 -0.196289,0.37499997 -0.4746093,0.66503904 -0.8320312,0.86718747 -0.3603516,0.20507813 -0.7851563,0.3046875 -1.2773438,0.3046875 -0.4921875,0 -0.9199218,-0.09960937 -1.2773437,-0.3046875 -0.3603516,-0.20214843 -0.6386719,-0.4921875 -0.83203127,-0.86718747 -0.1875,-0.3808594 -0.28125,-0.8261719 -0.28125,-1.3359375 0,-0.7646485 0.2109375,-1.3652344 0.6328125,-1.8046875 0.42187497,-0.4365235 1.01074217,-0.65625 1.76953127,-0.65625 0.4833984,0 0.9052734,0.099609 1.265625,0.2929687 0.3662109,0.1962891 0.6445312,0.4804688 0.8320312,0.8554688 0.1933594,0.375 0.2929688,0.8144531 0.2929688,1.3125 z m -0.6679688,0 c 0,-0.5917969 -0.1523437,-1.0605469 -0.4570312,-1.40625 -0.2988281,-0.3427735 -0.7207031,-0.515625 -1.265625,-0.515625 -0.5566406,0 -0.984375,0.1699218 -1.2890625,0.5039062 -0.2988281,0.3369141 -0.44531252,0.8085938 -0.44531252,1.4179688 0,0.609375 0.15234372,1.0957031 0.45703122,1.45312497 0.3046875,0.3515625 0.7265625,0.52734375 1.265625,0.52734375 0.553711,0 0.9785157,-0.16992187 1.2773438,-0.515625 C 4.3011094,-1.3160703 4.4534531,-1.8053281 4.4534531,-2.4381406 Z m 3.4423828,2.50781247 c -0.3925781,0 -0.7353515,-0.070312495 -1.03125,-0.2109375 C 6.5745469,-0.28775 6.3489609,-0.4986875 6.1848984,-0.77407813 6.0208359,-1.0465391 5.9388047,-1.3746641 5.9388047,-1.7584531 v -3.0585938 h 0.65625 v 3.0117188 c 0,0.4394531 0.1083984,0.7734375 0.328125,1.00781247 0.2255859,0.22851563 0.5507812,0.33984375 0.9726562,0.33984375 0.4365235,0 0.7734375,-0.1171875 1.0078125,-0.3515625 C 9.1438828,-1.0494688 9.2669297,-1.3981016 9.2669297,-1.8522031 v -2.9648438 h 0.65625 v 3 c 0,0.3925781 -0.087891,0.7324219 -0.2578125,1.01953127 -0.1640625,0.28125 -0.3984375,0.49804688 -0.703125,0.64453125 C 8.6634141,-0.00357031 8.3089219,0.06967187 7.8958359,0.06967187 Z M 12.958336,-4.2897031 V -6.40625e-4 H 12.313805 V -4.2897031 h -1.664063 v -0.5273438 h 3.972656 v 0.5273438 z m 0,0"
       style="fill:#000000;fill-opacity:1;fill-rule:nonzero;stroke:none"
       aria-label="OUT"
       transform="matrix(1.3333333,0,0,1.3333333,214.148,116.25867)" />
    <path
       id="path21"
       d="M 0.53814063,-0.00111719 V -0.52846094 H 1.7568906 V -4.2315859 L 0.67876563,-3.4581484 V -4.0440859 L 1.8154844,-4.8175234 h 0.5625 v 4.28906246 h 1.171875 v 0.52734375 z M 7.4551328,-2.5089297 c 0,0.8291016 -0.1523437,1.4648438 -0.4570312,1.91015626 -0.2988282,0.4453125 -0.7265625,0.66796875 -1.2890625,0.66796875 -0.375,0 -0.6767578,-0.07617187 -0.9023438,-0.234375 -0.2285156,-0.1640625 -0.3925781,-0.421875 -0.4921875,-0.7734375 l 0.5976563,-0.09375 c 0.1171875,0.40722663 0.3867187,0.60937506 0.8085937,0.60937506 0.3515625,0 0.6240235,-0.1640625 0.8203125,-0.4921875 0.1933594,-0.33398446 0.2958985,-0.80859376 0.3046875,-1.41796876 -0.087891,0.2109375 -0.243164,0.3808593 -0.46875,0.5039062 -0.2197265,0.1259766 -0.4628906,0.1875 -0.7265625,0.1875 -0.430664,0 -0.7792969,-0.1464844 -1.0429687,-0.4453125 -0.2578125,-0.2958984 -0.3867188,-0.6914062 -0.3867188,-1.1835937 0,-0.506836 0.140625,-0.9052735 0.421875,-1.1953125 0.28125,-0.2871094 0.6738281,-0.4335938 1.1835938,-0.4335938 0.5390625,0 0.9433593,0.1992188 1.21875,0.5976563 0.2724609,0.3984375 0.4101562,0.9960937 0.4101562,1.7929687 z M 6.7871641,-3.1065859 c 0,-0.3808594 -0.09082,-0.6914063 -0.2695313,-0.9257813 -0.1816406,-0.2402344 -0.4189453,-0.3632812 -0.7148437,-0.3632812 -0.2988282,0 -0.5332032,0.102539 -0.703125,0.3046875 -0.1728516,0.2050781 -0.2578125,0.477539 -0.2578125,0.8203125 0,0.3515625 0.084961,0.6298828 0.2578125,0.8320312 0.1699218,0.2050781 0.4042968,0.3046875 0.703125,0.3046875 0.1699218,0 0.3339843,-0.038086 0.4921875,-0.1171875 0.1552734,-0.084961 0.2753906,-0.2021484 0.3632812,-0.3515625 0.084961,-0.1464844 0.1289063,-0.3164062 0.1289063,-0.5039062 z M 8.13775,-0.00111719 v -0.43359375 c 0.1171875,-0.26367187 0.2578125,-0.49804687 0.421875,-0.70312496 0.1699219,-0.2109375 0.3457031,-0.3984375 0.5273438,-0.5625 0.1875,-0.1640625 0.3691406,-0.3164063 0.5507812,-0.4570313 0.1875,-0.140625 0.3515625,-0.28125 0.492188,-0.421875 0.146484,-0.140625 0.263671,-0.2871094 0.351562,-0.4453125 0.09375,-0.1552734 0.140625,-0.3310547 0.140625,-0.5273437 0,-0.2636719 -0.0791,-0.46875 -0.234375,-0.609375 -0.158203,-0.1464844 -0.37207,-0.2226563 -0.6445312,-0.2226563 -0.2666016,0 -0.4863282,0.070312 -0.65625,0.2109375 C 8.9229063,-4.0323672 8.8232969,-3.8331484 8.794,-3.5753359 l -0.6328125,-0.058594 c 0.046875,-0.3808594 0.2109375,-0.6855469 0.4921875,-0.9140625 0.28125,-0.234375 0.6445313,-0.3515625 1.0898438,-0.3515625 0.4833982,0 0.8554692,0.1171875 1.1132812,0.3515625 0.263672,0.2285156 0.398438,0.5507813 0.398438,0.9726563 0,0.1875 -0.04395,0.375 -0.128907,0.5625 -0.08789,0.1816406 -0.216797,0.3632812 -0.386718,0.5507812 -0.164063,0.1875 -0.486329,0.4746094 -0.960938,0.8554688 -0.2666016,0.2197265 -0.4775391,0.4160156 -0.6328125,0.5859375 -0.1494141,0.17285153 -0.2578125,0.33691403 -0.328125,0.49218746 h 2.5195315 v 0.52734375 z m 4.186523,0 v -0.75 h 0.667969 v 0.75 z m 1.792969,0 v -0.52734375 h 1.21875 V -4.2315859 l -1.078125,0.7734375 v -0.5859375 l 1.136719,-0.7734375 h 0.5625 v 4.28906246 h 1.171875 v 0.52734375 z m 6.9375,-1.58203121 c 0,0.515625 -0.137695,0.92285153 -0.410156,1.21874996 -0.275391,0.29003907 -0.65625,0.43359375 -1.148438,0.43359375 -0.539062,0 -0.955078,-0.20214843 -1.242187,-0.609375 -0.290039,-0.40429687 -0.433594,-0.99023441 -0.433594,-1.75781251 0,-0.8349609 0.146485,-1.4765625 0.445313,-1.921875 0.304687,-0.4511719 0.732422,-0.6796875 1.289062,-0.6796875 0.726563,0 1.183594,0.328125 1.371094,0.984375 l -0.585938,0.1054688 c -0.125976,-0.3896485 -0.392578,-0.5859375 -0.796875,-0.5859375 -0.351562,0 -0.626953,0.1640625 -0.820312,0.4921875 -0.1875,0.328125 -0.28125,0.8027343 -0.28125,1.4179687 0.108398,-0.2021484 0.263672,-0.3574219 0.46875,-0.46875 0.202148,-0.1083984 0.433594,-0.1640625 0.691406,-0.1640625 0.445313,0 0.796875,0.140625 1.054688,0.421875 0.263672,0.2753906 0.398437,0.6445313 0.398437,1.1132813 z m -0.621094,0.035156 c 0,-0.3515625 -0.08789,-0.6210937 -0.257812,-0.8085937 -0.172852,-0.1875 -0.410156,-0.28125 -0.714844,-0.28125 -0.290039,0 -0.524414,0.087891 -0.703125,0.2578125 -0.172851,0.1640625 -0.257812,0.3925781 -0.257812,0.6796875 0,0.375 0.08789,0.6855468 0.269531,0.92578121 0.1875,0.234375 0.424805,0.3515625 0.714844,0.3515625 0.295898,0 0.527343,-0.0996094 0.691406,-0.3046875 0.169922,-0.20214843 0.257812,-0.47460941 0.257812,-0.82031251 z m 4.526368,0.1992188 c 0,0.44531246 -0.146485,0.79394528 -0.433594,1.04296871 -0.28125,0.25195313 -0.688477,0.375 -1.21875,0.375 -0.515625,0 -0.919922,-0.12011718 -1.207031,-0.36328125 -0.290039,-0.24902343 -0.433594,-0.59765625 -0.433594,-1.04296876 0,-0.3105469 0.08789,-0.5742187 0.269531,-0.7851562 0.178711,-0.2167969 0.410156,-0.3515625 0.691406,-0.3984375 v -0.011719 c -0.266601,-0.061523 -0.474609,-0.1933594 -0.621093,-0.3984375 -0.149414,-0.2109375 -0.222657,-0.4511719 -0.222657,-0.7265625 0,-0.3662109 0.134766,-0.6621094 0.410157,-0.890625 0.272461,-0.234375 0.638672,-0.3515625 1.101562,-0.3515625 0.47461,0 0.84961,0.1142578 1.125,0.3398438 0.272461,0.2285156 0.410156,0.5273437 0.410156,0.9023437 0,0.28125 -0.0791,0.5244141 -0.234375,0.7265625 -0.149414,0.2050781 -0.357421,0.3339844 -0.621093,0.3867188 v 0.011719 c 0.310547,0.055664 0.553711,0.1875 0.726562,0.3984375 0.169922,0.2109375 0.257813,0.4746094 0.257813,0.7851562 z m -0.761719,-2.2734375 c 0,-0.5390625 -0.301758,-0.8085938 -0.902344,-0.8085938 -0.290039,0 -0.512695,0.070312 -0.667969,0.2109375 -0.149414,0.1347656 -0.222656,0.3339844 -0.222656,0.5976563 0,0.28125 0.07617,0.4980468 0.234375,0.6445312 0.155274,0.140625 0.37793,0.2109375 0.667969,0.2109375 0.287109,0 0.506836,-0.064453 0.65625,-0.1992187 0.155273,-0.131836 0.234375,-0.3515625 0.234375,-0.65625 z m 0.117187,2.2148437 c 0,-0.2958984 -0.09082,-0.5185547 -0.269531,-0.6679687 -0.18164,-0.1552735 -0.430664,-0.234375 -0.75,-0.234375 -0.313476,0 -0.55957,0.082031 -0.738281,0.2460937 -0.172852,0.1640625 -0.257813,0.3867188 -0.257813,0.6679688 0,0.66503903 0.339844,0.99609371 1.019532,0.99609371 0.333984,0 0.585937,-0.0761719 0.75,-0.234375 0.164062,-0.1640625 0.246093,-0.42187501 0.246093,-0.77343751 z m 1.584961,1.40625001 v -0.75 h 0.667969 v 0.75 z m 4.875,-2.41406251 c 0,0.8056641 -0.140625,1.42382814 -0.421875,1.85156251 -0.28125,0.421875 -0.700195,0.6328125 -1.253906,0.6328125 -0.556641,0 -0.972656,-0.2109375 -1.253906,-0.6328125 -0.28125,-0.421875 -0.421875,-1.03710941 -0.421875,-1.85156251 0,-0.8261719 0.134765,-1.4472656 0.410156,-1.8632812 0.272461,-0.413086 0.697266,-0.6210938 1.277344,-0.6210938 0.568359,0 0.987305,0.2109375 1.253906,0.6328125 0.272461,0.4160156 0.410156,1.03125 0.410156,1.8515625 z m -0.621093,0 c 0,-0.6943359 -0.08203,-1.1982422 -0.246094,-1.5117187 -0.158203,-0.3105469 -0.421875,-0.46875 -0.796875,-0.46875 -0.375,0 -0.644531,0.1582031 -0.808594,0.46875 -0.164062,0.3046875 -0.246094,0.8085937 -0.246094,1.5117187 0,0.6884766 0.08203,1.1923828 0.246094,1.51171876 0.164063,0.31347657 0.427734,0.46875 0.796875,0.46875 0.366211,0 0.632813,-0.15820312 0.796875,-0.48046875 0.169922,-0.32812501 0.257813,-0.82617191 0.257813,-1.50000001 z m 1.538086,2.41406251 v -0.75 h 0.667968 v 0.75 z m 1.790039,0 v -0.52734375 h 1.21875 V -4.2315859 l -1.078125,0.7734375 v -0.5859375 l 1.136718,-0.7734375 h 0.5625 v 4.28906246 h 1.171875 v 0.52734375 z m 6.975586,-2.41406251 c 0,0.8056641 -0.140625,1.42382814 -0.421875,1.85156251 -0.28125,0.421875 -0.700196,0.6328125 -1.253907,0.6328125 -0.55664,0 -0.972656,-0.2109375 -1.253906,-0.6328125 -0.28125,-0.421875 -0.421875,-1.03710941 -0.421875,-1.85156251 0,-0.8261719 0.134766,-1.4472656 0.410156,-1.8632812 0.272461,-0.413086 0.697266,-0.6210938 1.277344,-0.6210938 0.568359,0 0.987305,0.2109375 1.253906,0.6328125 0.272461,0.4160156 0.410157,1.03125 0.410157,1.8515625 z m -0.621094,0 c 0,-0.6943359 -0.08203,-1.1982422 -0.246094,-1.5117187 -0.158203,-0.3105469 -0.421875,-0.46875 -0.796875,-0.46875 -0.375,0 -0.644531,0.1582031 -0.808594,0.46875 -0.164062,0.3046875 -0.246093,0.8085937 -0.246093,1.5117187 0,0.6884766 0.08203,1.1923828 0.246093,1.51171876 0.164063,0.31347657 0.427735,0.46875 0.796875,0.46875 0.366211,0 0.632813,-0.15820312 0.796875,-0.48046875 0.169922,-0.32812501 0.257813,-0.82617191 0.257813,-1.50000001 z m 4.514648,0 c 0,0.8056641 -0.140625,1.42382814 -0.421875,1.85156251 -0.28125,0.421875 -0.700195,0.6328125 -1.253906,0.6328125 -0.556641,0 -0.972656,-0.2109375 -1.253906,-0.6328125 -0.28125,-0.421875 -0.421875,-1.03710941 -0.421875,-1.85156251 0,-0.8261719 0.134765,-1.4472656 0.410156,-1.8632812 0.272461,-0.413086 0.697266,-0.6210938 1.277344,-0.6210938 0.568359,0 0.987304,0.2109375 1.253906,0.6328125 0.272461,0.4160156 0.410156,1.03125 0.410156,1.8515625 z m -0.621094,0 c 0,-0.6943359 -0.08203,-1.1982422 -0.246093,-1.5117187 -0.158203,-0.3105469 -0.421875,-0.46875 -0.796875,-0.46875 -0.375,0 -0.644532,0.1582031 -0.808594,0.46875 -0.164063,0.3046875 -0.246094,0.8085937 -0.246094,1.5117187 0,0.6884766 0.08203,1.1923828 0.246094,1.51171876 0.164062,0.31347657 0.427734,0.46875 0.796875,0.46875 0.366211,0 0.632812,-0.15820312 0.796875,-0.48046875 0.169922,-0.32812501 0.257812,-0.82617191 0.257812,-1.50000001 z m 1.538086,-0.5742187 v -0.7148438 h 0.667969 v 0.7148438 z m 0,2.98828121 v -0.703125 h 0.667969 v 0.703125 z m 4.851563,-1.57031251 c 0,0.5097656 -0.152344,0.91113283 -0.457031,1.20703126 -0.298828,0.29003907 -0.714844,0.43359375 -1.253907,0.43359375 -0.445312,0 -0.808593,-0.09667968 -1.089843,-0.29296875 C 47.044,-0.41713281 46.874078,-0.70424219 46.803766,-1.0792422 l 0.621093,-0.070312 c 0.131836,0.47753908 0.46875,0.71484376 1.007813,0.71484376 0.328125,0 0.585937,-0.0966797 0.773437,-0.29296875 0.1875,-0.20214843 0.28125,-0.48046871 0.28125,-0.83203121 0,-0.3046875 -0.09375,-0.5507813 -0.28125,-0.7382813 -0.1875,-0.1875 -0.442382,-0.28125 -0.761718,-0.28125 -0.172852,0 -0.328125,0.029297 -0.46875,0.082031 -0.140625,0.055664 -0.28711,0.1464843 -0.433594,0.2695312 h -0.597656 l 0.164062,-2.5898437 h 2.742188 v 0.515625 h -2.179688 l -0.09375,1.5351562 c 0.263672,-0.2109375 0.597656,-0.3164062 0.996094,-0.3164062 0.46875,0 0.84375,0.140625 1.125,0.421875 0.28125,0.28125 0.421875,0.6445312 0.421875,1.0898433 z m 3.914062,-0.84375 c 0,0.8056641 -0.140625,1.42382814 -0.421875,1.85156251 -0.28125,0.421875 -0.700195,0.6328125 -1.253906,0.6328125 -0.55664,0 -0.972656,-0.2109375 -1.253906,-0.6328125 -0.28125,-0.421875 -0.421875,-1.03710941 -0.421875,-1.85156251 0,-0.8261719 0.134766,-1.4472656 0.410156,-1.8632812 0.272461,-0.413086 0.697266,-0.6210938 1.277344,-0.6210938 0.568359,0 0.987305,0.2109375 1.253906,0.6328125 0.272461,0.4160156 0.410156,1.03125 0.410156,1.8515625 z m -0.621093,0 c 0,-0.6943359 -0.08203,-1.1982422 -0.246094,-1.5117187 -0.158203,-0.3105469 -0.421875,-0.46875 -0.796875,-0.46875 -0.375,0 -0.644531,0.1582031 -0.808594,0.46875 -0.164062,0.3046875 -0.246094,0.8085937 -0.246094,1.5117187 0,0.6884766 0.08203,1.1923828 0.246094,1.51171876 0.164063,0.31347657 0.427735,0.46875 0.796875,0.46875 0.366211,0 0.632813,-0.15820312 0.796875,-0.48046875 0.169922,-0.32812501 0.257813,-0.82617191 0.257813,-1.50000001 z m 4.514648,0 c 0,0.8056641 -0.140625,1.42382814 -0.421875,1.85156251 -0.28125,0.421875 -0.700195,0.6328125 -1.253906,0.6328125 -0.556641,0 -0.972656,-0.2109375 -1.253906,-0.6328125 -0.28125,-0.421875 -0.421875,-1.03710941 -0.421875,-1.85156251 0,-0.8261719 0.134765,-1.4472656 0.410156,-1.8632812 0.272461,-0.413086 0.697265,-0.6210938 1.277344,-0.6210938 0.568359,0 0.987304,0.2109375 1.253906,0.6328125 0.272461,0.4160156 0.410156,1.03125 0.410156,1.8515625 z m -0.621094,0 c 0,-0.6943359 -0.08203,-1.1982422 -0.246093,-1.5117187 -0.158204,-0.3105469 -0.421875,-0.46875 -0.796875,-0.46875 -0.375,0 -0.644532,0.1582031 -0.808594,0.46875 -0.164063,0.3046875 -0.246094,0.8085937 -0.246094,1.5117187 0,0.6884766 0.08203,1.1923828 0.246094,1.51171876 0.164062,0.31347657 0.427734,0.46875 0.796875,0.46875 0.366211,0 0.632812,-0.15820312 0.796875,-0.48046875 0.169922,-0.32812501 0.257812,-0.82617191 0.257812,-1.50000001 z m 4.514649,0 c 0,0.8056641 -0.140625,1.42382814 -0.421875,1.85156251 -0.28125,0.421875 -0.700196,0.6328125 -1.253906,0.6328125 -0.556641,0 -0.972657,-0.2109375 -1.253907,-0.6328125 -0.28125,-0.421875 -0.421875,-1.03710941 -0.421875,-1.85156251 0,-0.8261719 0.134766,-1.4472656 0.410157,-1.8632812 0.27246,-0.413086 0.697265,-0.6210938 1.277343,-0.6210938 0.56836,0 0.987305,0.2109375 1.253907,0.6328125 0.27246,0.4160156 0.410156,1.03125 0.410156,1.8515625 z m -0.621094,0 c 0,-0.6943359 -0.08203,-1.1982422 -0.246094,-1.5117187 -0.158203,-0.3105469 -0.421875,-0.46875 -0.796875,-0.46875 -0.375,0 -0.644531,0.1582031 -0.808593,0.46875 -0.164063,0.3046875 -0.246094,0.8085937 -0.246094,1.5117187 0,0.6884766 0.08203,1.1923828 0.246094,1.51171876 0.164062,0.31347657 0.427734,0.46875 0.796875,0.46875 0.36621,0 0.632812,-0.15820312 0.796875,-0.48046875 0.169921,-0.32812501 0.257812,-0.82617191 0.257812,-1.50000001 z m 4.514648,0 c 0,0.8056641 -0.140625,1.42382814 -0.421875,1.85156251 -0.28125,0.421875 -0.700195,0.6328125 -1.253906,0.6328125 -0.55664,0 -0.972656,-0.2109375 -1.253906,-0.6328125 -0.28125,-0.421875 -0.421875,-1.03710941 -0.421875,-1.85156251 0,-0.8261719 0.134766,-1.4472656 0.410156,-1.8632812 0.272461,-0.413086 0.697266,-0.6210938 1.277344,-0.6210938 0.568359,0 0.987305,0.2109375 1.253906,0.6328125 0.272461,0.4160156 0.410156,1.03125 0.410156,1.8515625 z m -0.621093,0 c 0,-0.6943359 -0.08203,-1.1982422 -0.246094,-1.5117187 -0.158203,-0.3105469 -0.421875,-0.46875 -0.796875,-0.46875 -0.375,0 -0.644531,0.1582031 -0.808594,0.46875 -0.164062,0.3046875 -0.246094,0.8085937 -0.246094,1.5117187 0,0.6884766 0.08203,1.1923828 0.246094,1.51171876 0.164063,0.31347657 0.427735,0.46875 0.796875,0.46875 0.366211,0 0.632813,-0.15820312 0.796875,-0.48046875 0.169922,-0.32812501 0.257813,-0.82617191 0.257813,-1.50000001 z m 0,0"
       style="fill:#000000;fill-opacity:1;fill-rule:nonzero;stroke:none"
       aria-label="192.168.0.100:50000"
       transform="matrix(1.3333333,0,0,1.3333333,78.274667,133.34133)" />
    <path
       id="path22"
       d="M 0.53823438,-0.00111719 V -0.52846094 H 1.7569844 V -4.2315859 L 0.67885938,-3.4581484 V -4.0440859 L 1.8155781,-4.8175234 h 0.5625 v 4.28906246 h 1.171875 v 0.52734375 z m 3.99902342,0 v -0.75 h 0.6679688 v 0.75 z m 1.6054688,0 v -0.43359375 c 0.1171875,-0.26367187 0.2578125,-0.49804687 0.421875,-0.70312496 0.1699218,-0.2109375 0.3457031,-0.3984375 0.5273437,-0.5625 0.1875,-0.1640625 0.3691406,-0.3164063 0.5507813,-0.4570313 0.1875,-0.140625 0.3515625,-0.28125 0.4921875,-0.421875 0.1464843,-0.140625 0.2636718,-0.2871094 0.3515625,-0.4453125 0.09375,-0.1552734 0.140625,-0.3310547 0.140625,-0.5273437 0,-0.2636719 -0.079102,-0.46875 -0.234375,-0.609375 -0.1582032,-0.1464844 -0.3720703,-0.2226563 -0.6445313,-0.2226563 -0.2666015,0 -0.4863281,0.070312 -0.65625,0.2109375 -0.1640625,0.140625 -0.2636719,0.3398438 -0.2929687,0.5976563 l -0.6328125,-0.058594 c 0.046875,-0.3808594 0.2109375,-0.6855469 0.4921875,-0.9140625 0.28125,-0.234375 0.6445312,-0.3515625 1.0898437,-0.3515625 0.4833985,0 0.8554688,0.1171875 1.1132813,0.3515625 0.2636718,0.2285156 0.3984375,0.5507813 0.3984375,0.9726563 0,0.1875 -0.043945,0.375 -0.1289063,0.5625 -0.087891,0.1816406 -0.2167969,0.3632812 -0.3867187,0.5507812 -0.1640625,0.1875 -0.4863282,0.4746094 -0.9609375,0.8554688 -0.2666016,0.2197265 -0.4775391,0.4160156 -0.6328125,0.5859375 -0.1494141,0.17285153 -0.2578125,0.33691403 -0.328125,0.49218746 h 2.5195312 v 0.52734375 z m 4.1865234,0 v -0.75 h 0.667969 v 0.75 z m 4.836914,-1.33593751 c 0,0.44531251 -0.140625,0.79394533 -0.421875,1.04296876 -0.28125,0.24316407 -0.685547,0.36328125 -1.207031,0.36328125 -0.492188,0 -0.884766,-0.10839843 -1.171875,-0.328125 -0.290039,-0.22558593 -0.462891,-0.55371093 -0.515625,-0.98437501 l 0.632812,-0.058594 c 0.08496,0.57128903 0.436524,0.85546871 1.054688,0.85546871 0.304687,0 0.544922,-0.0732422 0.726562,-0.22265625 0.178711,-0.15527343 0.269532,-0.38085936 0.269532,-0.67968746 0,-0.2636719 -0.102539,-0.4716797 -0.304688,-0.6210938 -0.205078,-0.1464844 -0.498047,-0.2226562 -0.878906,-0.2226562 h -0.351563 v -0.5273438 h 0.339844 c 0.333984,0 0.597656,-0.073242 0.785156,-0.2226562 0.1875,-0.1464844 0.28125,-0.3515625 0.28125,-0.609375 0,-0.2578125 -0.0791,-0.459961 -0.234375,-0.609375 C 14.020656,-4.3077581 13.798,-4.38393 13.502102,-4.38393 c -0.275391,0 -0.498047,0.070312 -0.667969,0.2109375 -0.164063,0.1347656 -0.257813,0.328125 -0.28125,0.5859375 L 11.931789,-3.63393 c 0.04687,-0.3984375 0.210938,-0.7060547 0.492188,-0.9257812 0.28125,-0.225586 0.638671,-0.3398438 1.078125,-0.3398438 0.483398,0 0.858398,0.1142578 1.125,0.3398438 0.272461,0.2285156 0.410156,0.5390625 0.410156,0.9375 0,0.3134765 -0.08789,0.5683593 -0.257813,0.7617187 -0.172851,0.1875 -0.421875,0.3164063 -0.75,0.3867188 v 0.011719 c 0.357422,0.041016 0.635743,0.1611328 0.832032,0.3632813 0.202148,0.2050781 0.304687,0.4570312 0.304687,0.7617187 z m 0.952149,1.33593751 v -0.75 h 0.667968 v 0.75 z m 4.265625,-1.08984371 v 1.08984371 H 19.809719 V -1.0909609 h -2.273438 v -0.4804688 l 2.203125,-3.2460937 h 0.644532 v 3.234375 h 0.679687 v 0.4921875 z m -0.574219,-3.0351563 c -0.0088,0.017578 -0.04395,0.079102 -0.105469,0.1875 -0.05566,0.1025391 -0.09961,0.1757813 -0.128906,0.2226563 l -1.230469,1.8164062 -0.1875,0.2578125 -0.05859,0.058594 h 1.710938 z m 4.467773,3.0351563 v 1.08984371 H 23.703273 V -1.0909609 h -2.273437 v -0.4804688 l 2.203125,-3.2460937 h 0.644531 v 3.234375 h 0.679688 v 0.4921875 z m -0.574219,-3.0351563 c -0.0088,0.017578 -0.04395,0.079102 -0.105468,0.1875 -0.05566,0.1025391 -0.09961,0.1757813 -0.128907,0.2226563 l -1.230468,1.8164062 -0.1875,0.2578125 -0.05859,0.058594 h 1.710937 z m 2.100586,1.1367188 v -0.7148438 h 0.667969 v 0.7148438 z m 0,2.98828121 v -0.703125 h 0.667969 v 0.703125 z m 4.848633,-1.57031251 c 0,0.5097656 -0.152344,0.91113283 -0.457031,1.20703126 -0.298828,0.29003907 -0.714844,0.43359375 -1.253906,0.43359375 -0.445313,0 -0.808594,-0.09667968 -1.089844,-0.29296875 -0.275391,-0.19335937 -0.445313,-0.48046875 -0.515625,-0.85546876 l 0.621094,-0.070312 c 0.131836,0.47753908 0.46875,0.71484376 1.007812,0.71484376 0.328125,0 0.585938,-0.0966797 0.773438,-0.29296875 0.1875,-0.20214843 0.28125,-0.48046871 0.28125,-0.83203121 0,-0.3046875 -0.09375,-0.5507813 -0.28125,-0.7382813 -0.1875,-0.1875 -0.442383,-0.28125 -0.761719,-0.28125 -0.172852,0 -0.328125,0.029297 -0.46875,0.082031 -0.140625,0.055664 -0.287109,0.1464843 -0.433594,0.2695312 h -0.597656 l 0.164062,-2.5898437 h 2.742188 v 0.515625 h -2.179688 l -0.09375,1.5351562 c 0.263672,-0.2109375 0.597657,-0.3164062 0.996094,-0.3164062 0.46875,0 0.84375,0.140625 1.125,0.421875 0.28125,0.28125 0.421875,0.6445312 0.421875,1.0898435 z m 3.916992,-0.84375 c 0,0.8056641 -0.140625,1.42382814 -0.421875,1.85156251 -0.28125,0.421875 -0.700195,0.6328125 -1.253906,0.6328125 -0.55664,0 -0.972656,-0.2109375 -1.253906,-0.6328125 -0.28125,-0.421875 -0.421875,-1.03710941 -0.421875,-1.85156251 0,-0.8261719 0.134766,-1.4472656 0.410156,-1.8632812 0.272461,-0.413086 0.697266,-0.6210938 1.277344,-0.6210938 0.568359,0 0.987305,0.2109375 1.253906,0.6328125 0.272461,0.4160156 0.410156,1.03125 0.410156,1.8515625 z m -0.621093,0 c 0,-0.6943359 -0.08203,-1.1982422 -0.246094,-1.5117187 -0.158203,-0.3105469 -0.421875,-0.46875 -0.796875,-0.46875 -0.375,0 -0.644531,0.1582031 -0.808594,0.46875 -0.164062,0.3046875 -0.246094,0.8085937 -0.246094,1.5117187 0,0.6884766 0.08203,1.1923828 0.246094,1.51171876 0.164063,0.31347657 0.427735,0.46875 0.796875,0.46875 0.366211,0 0.632813,-0.15820312 0.796875,-0.48046875 0.169922,-0.32812501 0.257813,-0.82617191 0.257813,-1.50000001 z m 4.514648,0 c 0,0.8056641 -0.140625,1.42382814 -0.421875,1.85156251 -0.28125,0.421875 -0.700195,0.6328125 -1.253906,0.6328125 -0.556641,0 -0.972656,-0.2109375 -1.253906,-0.6328125 -0.28125,-0.421875 -0.421875,-1.03710941 -0.421875,-1.85156251 0,-0.8261719 0.134765,-1.4472656 0.410156,-1.8632812 0.272461,-0.413086 0.697265,-0.6210938 1.277344,-0.6210938 0.568359,0 0.987304,0.2109375 1.253906,0.6328125 0.272461,0.4160156 0.410156,1.03125 0.410156,1.8515625 z m -0.621094,0 c 0,-0.6943359 -0.08203,-1.1982422 -0.246093,-1.5117187 -0.158204,-0.3105469 -0.421875,-0.46875 -0.796875,-0.46875 -0.375,0 -0.644532,0.1582031 -0.808594,0.46875 -0.164063,0.3046875 -0.246094,0.8085937 -0.246094,1.5117187 0,0.6884766 0.08203,1.1923828 0.246094,1.51171876 0.164062,0.31347657 0.427734,0.46875 0.796875,0.46875 0.366211,0 0.632812,-0.15820312 0.796875,-0.48046875 0.169922,-0.32812501 0.257812,-0.82617191 0.257812,-1.50000001 z m 4.514649,0 c 0,0.8056641 -0.140625,1.42382814 -0.421875,1.85156251 -0.28125,0.421875 -0.700196,0.6328125 -1.253906,0.6328125 -0.556641,0 -0.972657,-0.2109375 -1.253907,-0.6328125 -0.28125,-0.421875 -0.421875,-1.03710941 -0.421875,-1.85156251 0,-0.8261719 0.134766,-1.4472656 0.410157,-1.8632812 0.27246,-0.413086 0.697265,-0.6210938 1.277343,-0.6210938 0.56836,0 0.987305,0.2109375 1.253907,0.6328125 0.27246,0.4160156 0.410156,1.03125 0.410156,1.8515625 z m -0.621094,0 c 0,-0.6943359 -0.08203,-1.1982422 -0.246094,-1.5117187 -0.158203,-0.3105469 -0.421875,-0.46875 -0.796875,-0.46875 -0.375,0 -0.644531,0.1582031 -0.808593,0.46875 -0.164063,0.3046875 -0.246094,0.8085937 -0.246094,1.5117187 0,0.6884766 0.08203,1.1923828 0.246094,1.51171876 0.164062,0.31347657 0.427734,0.46875 0.796875,0.46875 0.36621,0 0.632812,-0.15820312 0.796875,-0.48046875 C 41.647609,-1.2433047 41.7355,-1.7413516 41.7355,-2.4151797 Z m 4.514648,0 c 0,0.8056641 -0.140625,1.42382814 -0.421875,1.85156251 -0.28125,0.421875 -0.700195,0.6328125 -1.253906,0.6328125 -0.55664,0 -0.972656,-0.2109375 -1.253906,-0.6328125 -0.28125,-0.421875 -0.421875,-1.03710941 -0.421875,-1.85156251 0,-0.8261719 0.134766,-1.4472656 0.410156,-1.8632812 0.272461,-0.413086 0.697266,-0.6210938 1.277344,-0.6210938 0.568359,0 0.987305,0.2109375 1.253906,0.6328125 0.272461,0.4160156 0.410156,1.03125 0.410156,1.8515625 z m -0.621093,0 c 0,-0.6943359 -0.08203,-1.1982422 -0.246094,-1.5117187 -0.158203,-0.3105469 -0.421875,-0.46875 -0.796875,-0.46875 -0.375,0 -0.644531,0.1582031 -0.808594,0.46875 -0.164062,0.3046875 -0.246094,0.8085937 -0.246094,1.5117187 0,0.6884766 0.08203,1.1923828 0.246094,1.51171876 0.164063,0.31347657 0.427735,0.46875 0.796875,0.46875 0.366211,0 0.632813,-0.15820312 0.796875,-0.48046875 0.169922,-0.32812501 0.257813,-0.82617191 0.257813,-1.50000001 z m 0,0"
       style="fill:#000000;fill-opacity:1;fill-rule:nonzero;stroke:none"
       aria-label="1.2.3.44:50000"
       transform="matrix(1.3333333,0,0,1.3333333,179.60267,133.34133)" />
    <path
       id="path23"
       d="M 0.53814063,-9.609375e-4 V -0.52830469 H 1.7568906 V -4.2314297 L 0.67876563,-3.4579922 V -4.0439297 L 1.8154844,-4.8173672 h 0.5625 v 4.28906251 h 1.171875 V -9.609375e-4 Z M 7.4551328,-2.5087734 c 0,0.8291015 -0.1523437,1.4648437 -0.4570312,1.91015621 -0.2988282,0.4453125 -0.7265625,0.66796875 -1.2890625,0.66796875 -0.375,0 -0.6767578,-0.07617187 -0.9023438,-0.234375 -0.2285156,-0.1640625 -0.3925781,-0.421875 -0.4921875,-0.7734375 l 0.5976563,-0.09375 c 0.1171875,0.40722633 0.3867187,0.60937476 0.8085937,0.60937476 0.3515625,0 0.6240235,-0.1640625 0.8203125,-0.4921875 0.1933594,-0.33398416 0.2958985,-0.80859356 0.3046875,-1.41796856 -0.087891,0.2109375 -0.243164,0.3808594 -0.46875,0.5039063 -0.2197265,0.1259765 -0.4628906,0.1875 -0.7265625,0.1875 -0.430664,0 -0.7792969,-0.1464844 -1.0429687,-0.4453125 -0.2578125,-0.2958985 -0.3867188,-0.6914063 -0.3867188,-1.1835938 0,-0.5068359 0.140625,-0.9052734 0.421875,-1.1953125 0.28125,-0.2871094 0.6738281,-0.4335937 1.1835938,-0.4335937 0.5390625,0 0.9433593,0.1992187 1.21875,0.5976562 0.2724609,0.3984375 0.4101562,0.9960938 0.4101562,1.7929688 z M 6.7871641,-3.1064297 c 0,-0.3808594 -0.09082,-0.6914062 -0.2695313,-0.9257812 -0.1816406,-0.2402344 -0.4189453,-0.3632813 -0.7148437,-0.3632813 -0.2988282,0 -0.5332032,0.1025391 -0.703125,0.3046875 -0.1728516,0.2050781 -0.2578125,0.4775391 -0.2578125,0.8203125 0,0.3515625 0.084961,0.6298828 0.2578125,0.8320313 0.1699218,0.2050781 0.4042968,0.3046875 0.703125,0.3046875 0.1699218,0 0.3339843,-0.038086 0.4921875,-0.1171875 0.1552734,-0.084961 0.2753906,-0.2021485 0.3632812,-0.3515625 0.084961,-0.1464844 0.1289063,-0.3164063 0.1289063,-0.5039063 z M 8.13775,-9.609375e-4 V -0.43455469 c 0.1171875,-0.26367187 0.2578125,-0.49804687 0.421875,-0.70312501 0.1699219,-0.2109375 0.3457031,-0.3984375 0.5273438,-0.5625 0.1875,-0.1640625 0.3691406,-0.3164062 0.5507812,-0.4570312 0.1875,-0.140625 0.3515625,-0.28125 0.492188,-0.421875 0.146484,-0.140625 0.263671,-0.2871094 0.351562,-0.4453125 0.09375,-0.1552735 0.140625,-0.3310547 0.140625,-0.5273438 0,-0.2636719 -0.0791,-0.46875 -0.234375,-0.609375 -0.158203,-0.1464844 -0.37207,-0.2226562 -0.6445312,-0.2226562 -0.2666016,0 -0.4863282,0.070312 -0.65625,0.2109375 C 8.9229063,-4.0322109 8.8232969,-3.8329922 8.794,-3.5751797 l -0.6328125,-0.058594 c 0.046875,-0.3808594 0.2109375,-0.6855469 0.4921875,-0.9140625 0.28125,-0.234375 0.6445313,-0.3515625 1.0898438,-0.3515625 0.4833982,0 0.8554692,0.1171875 1.1132812,0.3515625 0.263672,0.2285156 0.398438,0.5507812 0.398438,0.9726562 0,0.1875 -0.04395,0.375 -0.128907,0.5625 -0.08789,0.1816406 -0.216797,0.3632813 -0.386718,0.5507813 -0.164063,0.1875 -0.486329,0.4746093 -0.960938,0.8554687 -0.2666016,0.2197266 -0.4775391,0.4160156 -0.6328125,0.5859375 -0.1494141,0.17285158 -0.2578125,0.33691408 -0.328125,0.49218751 h 2.5195315 v 0.5273437525 z m 4.186523,0 V -0.75096094 h 0.667969 v 0.7500000025 z m 1.792969,0 V -0.52830469 h 1.21875 V -4.2314297 l -1.078125,0.7734375 v -0.5859375 l 1.136719,-0.7734375 h 0.5625 v 4.28906251 h 1.171875 v 0.5273437525 z m 6.9375,-1.5820312625 c 0,0.515625 -0.137695,0.92285158 -0.410156,1.21875001 -0.275391,0.29003907 -0.65625,0.43359375 -1.148438,0.43359375 -0.539062,0 -0.955078,-0.20214843 -1.242187,-0.609375 -0.290039,-0.40429687 -0.433594,-0.99023436 -0.433594,-1.75781246 0,-0.834961 0.146485,-1.4765625 0.445313,-1.921875 0.304687,-0.4511719 0.732422,-0.6796875 1.289062,-0.6796875 0.726563,0 1.183594,0.328125 1.371094,0.984375 l -0.585938,0.1054687 c -0.125976,-0.3896484 -0.392578,-0.5859375 -0.796875,-0.5859375 -0.351562,0 -0.626953,0.1640625 -0.820312,0.4921875 -0.1875,0.328125 -0.28125,0.8027344 -0.28125,1.4179688 0.108398,-0.2021485 0.263672,-0.3574219 0.46875,-0.46875 0.202148,-0.1083985 0.433594,-0.1640625 0.691406,-0.1640625 0.445313,0 0.796875,0.140625 1.054688,0.421875 0.263672,0.2753906 0.398437,0.6445312 0.398437,1.1132812 z m -0.621094,0.035156 c 0,-0.3515625 -0.08789,-0.6210938 -0.257812,-0.8085938 -0.172852,-0.1875 -0.410156,-0.28125 -0.714844,-0.28125 -0.290039,0 -0.524414,0.087891 -0.703125,0.2578125 -0.172851,0.1640625 -0.257812,0.3925781 -0.257812,0.6796875 0,0.375 0.08789,0.6855469 0.269531,0.92578126 0.1875,0.234375 0.424805,0.3515625 0.714844,0.3515625 0.295898,0 0.527343,-0.0996094 0.691406,-0.3046875 0.169922,-0.20214843 0.257812,-0.47460936 0.257812,-0.82031246 z m 4.526368,0.1992187 c 0,0.44531251 -0.146485,0.79394533 -0.433594,1.04296876 -0.28125,0.25195313 -0.688477,0.375 -1.21875,0.375 -0.515625,0 -0.919922,-0.12011718 -1.207031,-0.36328125 -0.290039,-0.24902343 -0.433594,-0.59765625 -0.433594,-1.04296871 0,-0.3105469 0.08789,-0.5742188 0.269531,-0.7851563 0.178711,-0.2167969 0.410156,-0.3515625 0.691406,-0.3984375 v -0.011719 c -0.266601,-0.061524 -0.474609,-0.1933594 -0.621093,-0.3984375 -0.149414,-0.2109375 -0.222657,-0.4511719 -0.222657,-0.7265625 0,-0.366211 0.134766,-0.6621094 0.410157,-0.890625 0.272461,-0.234375 0.638672,-0.3515625 1.101562,-0.3515625 0.47461,0 0.84961,0.1142578 1.125,0.3398437 0.272461,0.2285156 0.410156,0.5273438 0.410156,0.9023438 0,0.28125 -0.0791,0.524414 -0.234375,0.7265625 -0.149414,0.2050781 -0.357421,0.3339843 -0.621093,0.3867187 v 0.011719 c 0.310547,0.055664 0.553711,0.1875 0.726562,0.3984375 0.169922,0.2109375 0.257813,0.4746093 0.257813,0.7851563 z M 24.198297,-3.622055 c 0,-0.5390625 -0.301758,-0.8085937 -0.902344,-0.8085937 -0.290039,0 -0.512695,0.070312 -0.667969,0.2109375 -0.149414,0.1347656 -0.222656,0.3339843 -0.222656,0.5976562 0,0.28125 0.07617,0.4980469 0.234375,0.6445313 0.155274,0.140625 0.37793,0.2109375 0.667969,0.2109375 0.287109,0 0.506836,-0.064453 0.65625,-0.1992188 0.155273,-0.1318359 0.234375,-0.3515625 0.234375,-0.65625 z m 0.117187,2.2148438 c 0,-0.2958985 -0.09082,-0.5185547 -0.269531,-0.6679688 -0.18164,-0.1552734 -0.430664,-0.234375 -0.75,-0.234375 -0.313476,0 -0.55957,0.082031 -0.738281,0.2460938 -0.172852,0.1640625 -0.257813,0.3867187 -0.257813,0.6679687 0,0.66503908 0.339844,0.99609376 1.019532,0.99609376 0.333984,0 0.585937,-0.0761719 0.75,-0.234375 0.164062,-0.1640625 0.246093,-0.42187496 0.246093,-0.77343746 z m 1.584961,1.4062499625 V -0.75096094 h 0.667969 v 0.7500000025 z m 4.875,-2.4140624625 c 0,0.805664 -0.140625,1.42382809 -0.421875,1.85156246 -0.28125,0.421875 -0.700195,0.6328125 -1.253906,0.6328125 -0.556641,0 -0.972656,-0.2109375 -1.253906,-0.6328125 -0.28125,-0.421875 -0.421875,-1.03710936 -0.421875,-1.85156246 0,-0.8261719 0.134765,-1.4472657 0.410156,-1.8632813 0.272461,-0.4130859 0.697266,-0.6210937 1.277344,-0.6210937 0.568359,0 0.987305,0.2109375 1.253906,0.6328125 0.272461,0.4160156 0.410156,1.03125 0.410156,1.8515625 z m -0.621093,0 c 0,-0.694336 -0.08203,-1.1982422 -0.246094,-1.5117188 -0.158203,-0.3105469 -0.421875,-0.46875 -0.796875,-0.46875 -0.375,0 -0.644531,0.1582031 -0.808594,0.46875 -0.164062,0.3046875 -0.246094,0.8085938 -0.246094,1.5117188 0,0.6884765 0.08203,1.1923828 0.246094,1.51171871 0.164063,0.31347657 0.427734,0.46875 0.796875,0.46875 0.366211,0 0.632813,-0.15820312 0.796875,-0.48046875 0.169922,-0.32812496 0.257813,-0.82617186 0.257813,-1.49999996 z m 1.538086,2.4140624625 V -0.75096094 h 0.667968 v 0.7500000025 z m 1.602539,0 V -0.43455469 c 0.117187,-0.26367187 0.257812,-0.49804687 0.421875,-0.70312501 0.169921,-0.2109375 0.345703,-0.3984375 0.527343,-0.5625 0.1875,-0.1640625 0.369141,-0.3164062 0.550782,-0.4570312 0.1875,-0.140625 0.351562,-0.28125 0.492187,-0.421875 0.146484,-0.140625 0.263672,-0.2871094 0.351563,-0.4453125 0.09375,-0.1552735 0.140625,-0.3310547 0.140625,-0.5273438 0,-0.2636719 -0.0791,-0.46875 -0.234375,-0.609375 -0.158204,-0.1464844 -0.372071,-0.2226562 -0.644532,-0.2226562 -0.266601,0 -0.486328,0.070312 -0.65625,0.2109375 -0.164062,0.140625 -0.263672,0.3398437 -0.292968,0.5976562 l -0.632813,-0.058594 c 0.04687,-0.3808594 0.210938,-0.6855469 0.492188,-0.9140625 0.28125,-0.234375 0.644531,-0.3515625 1.089843,-0.3515625 0.483399,0 0.855469,0.1171875 1.113282,0.3515625 0.263671,0.2285156 0.398437,0.5507812 0.398437,0.9726562 0,0.1875 -0.04394,0.375 -0.128906,0.5625 -0.08789,0.1816406 -0.216797,0.3632813 -0.386719,0.5507813 -0.164062,0.1875 -0.486328,0.4746093 -0.960937,0.8554687 -0.266602,0.2197266 -0.477539,0.4160156 -0.632813,0.5859375 -0.149414,0.17285158 -0.257812,0.33691408 -0.328125,0.49218751 h 2.519531 V -9.609375e-4 Z M 40.458063,-2.4150234 c 0,0.805664 -0.140625,1.42382809 -0.421875,1.85156246 -0.28125,0.421875 -0.700196,0.6328125 -1.253907,0.6328125 -0.55664,0 -0.972656,-0.2109375 -1.253906,-0.6328125 -0.28125,-0.421875 -0.421875,-1.03710936 -0.421875,-1.85156246 0,-0.8261719 0.134766,-1.4472657 0.410156,-1.8632813 0.272461,-0.4130859 0.697266,-0.6210937 1.277344,-0.6210937 0.568359,0 0.987305,0.2109375 1.253906,0.6328125 0.272461,0.4160156 0.410157,1.03125 0.410157,1.8515625 z m -0.621094,0 c 0,-0.694336 -0.08203,-1.1982422 -0.246094,-1.5117188 -0.158203,-0.3105469 -0.421875,-0.46875 -0.796875,-0.46875 -0.375,0 -0.644531,0.1582031 -0.808594,0.46875 -0.164062,0.3046875 -0.246093,0.8085938 -0.246093,1.5117188 0,0.6884765 0.08203,1.1923828 0.246093,1.51171871 0.164063,0.31347657 0.427735,0.46875 0.796875,0.46875 0.366211,0 0.632813,-0.15820312 0.796875,-0.48046875 0.169922,-0.32812496 0.257813,-0.82617186 0.257813,-1.49999996 z m 4.514648,0 c 0,0.805664 -0.140625,1.42382809 -0.421875,1.85156246 -0.28125,0.421875 -0.700195,0.6328125 -1.253906,0.6328125 -0.556641,0 -0.972656,-0.2109375 -1.253906,-0.6328125 -0.28125,-0.421875 -0.421875,-1.03710936 -0.421875,-1.85156246 0,-0.8261719 0.134765,-1.4472657 0.410156,-1.8632813 0.272461,-0.4130859 0.697266,-0.6210937 1.277344,-0.6210937 0.568359,0 0.987304,0.2109375 1.253906,0.6328125 0.272461,0.4160156 0.410156,1.03125 0.410156,1.8515625 z m -0.621094,0 c 0,-0.694336 -0.08203,-1.1982422 -0.246093,-1.5117188 -0.158203,-0.3105469 -0.421875,-0.46875 -0.796875,-0.46875 -0.375,0 -0.644532,0.1582031 -0.808594,0.46875 -0.164063,0.3046875 -0.246094,0.8085938 -0.246094,1.5117188 0,0.6884765 0.08203,1.1923828 0.246094,1.51171871 0.164062,0.31347657 0.427734,0.46875 0.796875,0.46875 0.366211,0 0.632812,-0.15820312 0.796875,-0.48046875 0.169922,-0.32812496 0.257812,-0.82617186 0.257812,-1.49999996 z m 1.538086,-0.5742188 v -0.7148437 h 0.667969 v 0.7148437 z m 0,2.9882812625 V -0.70408594 h 0.667969 V -9.609375e-4 Z M 50.120172,-1.5712734 c 0,0.5097656 -0.152344,0.91113278 -0.457031,1.20703121 -0.298828,0.29003907 -0.714844,0.43359375 -1.253907,0.43359375 -0.445312,0 -0.808593,-0.09667968 -1.089843,-0.29296875 C 47.044,-0.41697656 46.874078,-0.70408594 46.803766,-1.0790859 l 0.621093,-0.070312 c 0.131836,0.47753903 0.46875,0.71484371 1.007813,0.71484371 0.328125,0 0.585937,-0.0966797 0.773437,-0.29296875 0.1875,-0.20214843 0.28125,-0.48046876 0.28125,-0.83203126 0,-0.3046875 -0.09375,-0.5507812 -0.28125,-0.7382812 -0.1875,-0.1875 -0.442382,-0.28125 -0.761718,-0.28125 -0.172852,0 -0.328125,0.029297 -0.46875,0.082031 -0.140625,0.055664 -0.28711,0.1464844 -0.433594,0.2695313 h -0.597656 l 0.164062,-2.5898438 h 2.742188 v 0.515625 h -2.179688 l -0.09375,1.5351563 c 0.263672,-0.2109375 0.597656,-0.3164063 0.996094,-0.3164063 0.46875,0 0.84375,0.140625 1.125,0.421875 0.28125,0.28125 0.421875,0.6445313 0.421875,1.0898435 z m 3.914062,-0.84375 c 0,0.805664 -0.140625,1.42382809 -0.421875,1.85156246 -0.28125,0.421875 -0.700195,0.6328125 -1.253906,0.6328125 -0.55664,0 -0.972656,-0.2109375 -1.253906,-0.6328125 -0.28125,-0.421875 -0.421875,-1.03710936 -0.421875,-1.85156246 0,-0.8261719 0.134766,-1.4472657 0.410156,-1.8632813 0.272461,-0.4130859 0.697266,-0.6210937 1.277344,-0.6210937 0.568359,0 0.987305,0.2109375 1.253906,0.6328125 0.272461,0.4160156 0.410156,1.03125 0.410156,1.8515625 z m -0.621093,0 c 0,-0.694336 -0.08203,-1.1982422 -0.246094,-1.5117188 -0.158203,-0.3105469 -0.421875,-0.46875 -0.796875,-0.46875 -0.375,0 -0.644531,0.1582031 -0.808594,0.46875 -0.164062,0.3046875 -0.246094,0.8085938 -0.246094,1.5117188 0,0.6884765 0.08203,1.1923828 0.246094,1.51171871 0.164063,0.31347657 0.427735,0.46875 0.796875,0.46875 0.366211,0 0.632813,-0.15820312 0.796875,-0.48046875 0.169922,-0.32812496 0.257813,-0.82617186 0.257813,-1.49999996 z m 4.514648,0 c 0,0.805664 -0.140625,1.42382809 -0.421875,1.85156246 -0.28125,0.421875 -0.700195,0.6328125 -1.253906,0.6328125 -0.556641,0 -0.972656,-0.2109375 -1.253906,-0.6328125 -0.28125,-0.421875 -0.421875,-1.03710936 -0.421875,-1.85156246 0,-0.8261719 0.134765,-1.4472657 0.410156,-1.8632813 0.272461,-0.4130859 0.697265,-0.6210937 1.277344,-0.6210937 0.568359,0 0.987304,0.2109375 1.253906,0.6328125 0.272461,0.4160156 0.410156,1.03125 0.410156,1.8515625 z m -0.621094,0 c 0,-0.694336 -0.08203,-1.1982422 -0.246093,-1.5117188 -0.158204,-0.3105469 -0.421875,-0.46875 -0.796875,-0.46875 -0.375,0 -0.644532,0.1582031 -0.808594,0.46875 -0.164063,0.3046875 -0.246094,0.8085938 -0.246094,1.5117188 0,0.6884765 0.08203,1.1923828 0.246094,1.51171871 0.164062,0.31347657 0.427734,0.46875 0.796875,0.46875 0.366211,0 0.632812,-0.15820312 0.796875,-0.48046875 0.169922,-0.32812496 0.257812,-0.82617186 0.257812,-1.49999996 z m 4.514649,0 c 0,0.805664 -0.140625,1.42382809 -0.421875,1.85156246 -0.28125,0.421875 -0.700196,0.6328125 -1.253906,0.6328125 -0.556641,0 -0.972657,-0.2109375 -1.253907,-0.6328125 -0.28125,-0.421875 -0.421875,-1.03710936 -0.421875,-1.85156246 0,-0.8261719 0.134766,-1.4472657 0.410157,-1.8632813 0.27246,-0.4130859 0.697265,-0.6210937 1.277343,-0.6210937 0.56836,0 0.987305,0.2109375 1.253907,0.6328125 0.27246,0.4160156 0.410156,1.03125 0.410156,1.8515625 z m -0.621094,0 c 0,-0.694336 -0.08203,-1.1982422 -0.246094,-1.5117188 -0.158203,-0.3105469 -0.421875,-0.46875 -0.796875,-0.46875 -0.375,0 -0.644531,0.1582031 -0.808593,0.46875 -0.164063,0.3046875 -0.246094,0.8085938 -0.246094,1.5117188 0,0.6884765 0.08203,1.1923828 0.246094,1.51171871 0.164062,0.31347657 0.427734,0.46875 0.796875,0.46875 0.36621,0 0.632812,-0.15820312 0.796875,-0.48046875 0.169921,-0.32812496 0.257812,-0.82617186 0.257812,-1.49999996 z m 4.514648,0 c 0,0.805664 -0.140625,1.42382809 -0.421875,1.85156246 -0.28125,0.421875 -0.700195,0.6328125 -1.253906,0.6328125 -0.55664,0 -0.972656,-0.2109375 -1.253906,-0.6328125 -0.28125,-0.421875 -0.421875,-1.03710936 -0.421875,-1.85156246 0,-0.8261719 0.134766,-1.4472657 0.410156,-1.8632813 0.272461,-0.4130859 0.697266,-0.6210937 1.277344,-0.6210937 0.568359,0 0.987305,0.2109375 1.253906,0.6328125 0.272461,0.4160156 0.410156,1.03125 0.410156,1.8515625 z m -0.621093,0 c 0,-0.694336 -0.08203,-1.1982422 -0.246094,-1.5117188 -0.158203,-0.3105469 -0.421875,-0.46875 -0.796875,-0.46875 -0.375,0 -0.644531,0.1582031 -0.808594,0.46875 -0.164062,0.3046875 -0.246094,0.8085938 -0.246094,1.5117188 0,0.6884765 0.08203,1.1923828 0.246094,1.51171871 0.164063,0.31347657 0.427735,0.46875 0.796875,0.46875 0.366211,0 0.632813,-0.15820312 0.796875,-0.48046875 0.169922,-0.32812496 0.257813,-0.82617186 0.257813,-1.49999996 z m 0,0"
       style="fill:#000000;fill-opacity:1;fill-rule:nonzero;stroke:none"
       aria-label="192.168.0.200:50000"
       transform="matrix(1.3333333,0,0,1.3333333,78.274667,150.388)" />
    <path
       id="path24"
       d="M 0.53823438,-9.609375e-4 V -0.52830469 H 1.7569844 V -4.2314297 L 0.67885938,-3.4579922 V -4.0439297 L 1.8155781,-4.8173672 h 0.5625 v 4.28906251 h 1.171875 v 0.5273437525 z m 3.99902342,0 V -0.75096094 h 0.6679688 v 0.7500000025 z m 1.6054688,0 V -0.43455469 c 0.1171875,-0.26367187 0.2578125,-0.49804687 0.421875,-0.70312501 0.1699218,-0.2109375 0.3457031,-0.3984375 0.5273437,-0.5625 0.1875,-0.1640625 0.3691406,-0.3164062 0.5507813,-0.4570312 0.1875,-0.140625 0.3515625,-0.28125 0.4921875,-0.421875 0.1464843,-0.140625 0.2636718,-0.2871094 0.3515625,-0.4453125 0.09375,-0.1552735 0.140625,-0.3310547 0.140625,-0.5273438 0,-0.2636719 -0.079102,-0.46875 -0.234375,-0.609375 -0.1582032,-0.1464844 -0.3720703,-0.2226562 -0.6445313,-0.2226562 -0.2666015,0 -0.4863281,0.070312 -0.65625,0.2109375 -0.1640625,0.140625 -0.2636719,0.3398437 -0.2929687,0.5976562 l -0.6328125,-0.058594 c 0.046875,-0.3808594 0.2109375,-0.6855469 0.4921875,-0.9140625 0.28125,-0.234375 0.6445312,-0.3515625 1.0898437,-0.3515625 0.4833985,0 0.8554688,0.1171875 1.1132813,0.3515625 0.2636718,0.2285156 0.3984375,0.5507812 0.3984375,0.9726562 0,0.1875 -0.043945,0.375 -0.1289063,0.5625 -0.087891,0.1816406 -0.2167969,0.3632813 -0.3867187,0.5507813 -0.1640625,0.1875 -0.4863282,0.4746093 -0.9609375,0.8554687 -0.2666016,0.2197266 -0.4775391,0.4160156 -0.6328125,0.5859375 -0.1494141,0.17285158 -0.2578125,0.33691408 -0.328125,0.49218751 h 2.5195312 v 0.5273437525 z m 4.1865234,0 V -0.75096094 h 0.667969 V -9.609375e-4 Z M 15.166164,-1.3368984 c 0,0.44531246 -0.140625,0.79394528 -0.421875,1.04296871 -0.28125,0.24316407 -0.685547,0.36328125 -1.207031,0.36328125 -0.492188,0 -0.884766,-0.10839843 -1.171875,-0.328125 -0.290039,-0.22558593 -0.462891,-0.55371093 -0.515625,-0.98437496 l 0.632812,-0.058594 c 0.08496,0.57128908 0.436524,0.85546876 1.054688,0.85546876 0.304687,0 0.544922,-0.0732422 0.726562,-0.22265625 0.178711,-0.15527343 0.269532,-0.38085941 0.269532,-0.67968751 0,-0.2636719 -0.102539,-0.4716797 -0.304688,-0.6210937 -0.205078,-0.1464844 -0.498047,-0.2226563 -0.878906,-0.2226563 h -0.351563 v -0.5273437 h 0.339844 c 0.333984,0 0.597656,-0.073242 0.785156,-0.2226563 0.1875,-0.1464844 0.28125,-0.3515625 0.28125,-0.609375 0,-0.2578125 -0.0791,-0.4599609 -0.234375,-0.609375 -0.149414,-0.1464844 -0.37207,-0.2226562 -0.667968,-0.2226562 -0.275391,0 -0.498047,0.070312 -0.667969,0.2109375 -0.164063,0.1347656 -0.257813,0.328125 -0.28125,0.5859375 l -0.621094,-0.046875 c 0.04687,-0.3984375 0.210938,-0.7060547 0.492188,-0.9257813 0.28125,-0.2255859 0.638671,-0.3398437 1.078125,-0.3398437 0.483398,0 0.858398,0.1142578 1.125,0.3398437 0.272461,0.2285156 0.410156,0.5390625 0.410156,0.9375 0,0.3134766 -0.08789,0.5683594 -0.257813,0.7617188 -0.172851,0.1875 -0.421875,0.3164062 -0.75,0.3867187 v 0.011719 c 0.357422,0.041016 0.635743,0.1611328 0.832032,0.3632812 0.202148,0.2050781 0.304687,0.4570313 0.304687,0.7617188 z m 0.952149,1.3359374625 V -0.75096094 h 0.667968 V -9.609375e-4 Z M 20.383938,-1.0908047 V -9.609375e-4 H 19.809719 V -1.0908047 h -2.273438 v -0.4804687 l 2.203125,-3.2460938 h 0.644532 v 3.234375 h 0.679687 v 0.4921875 z m -0.574219,-3.0351562 c -0.0088,0.017578 -0.04395,0.079102 -0.105469,0.1875 -0.05566,0.102539 -0.09961,0.1757812 -0.128906,0.2226562 l -1.230469,1.8164063 -0.1875,0.2578125 -0.05859,0.058594 h 1.710938 z m 4.467773,3.0351562 V -9.609375e-4 H 23.703273 V -1.0908047 h -2.273437 v -0.4804687 l 2.203125,-3.2460938 h 0.644531 v 3.234375 h 0.679688 v 0.4921875 z m -0.574219,-3.0351562 c -0.0088,0.017578 -0.04395,0.079102 -0.105468,0.1875 -0.05566,0.102539 -0.09961,0.1757812 -0.128907,0.2226562 l -1.230468,1.8164063 -0.1875,0.2578125 -0.05859,0.058594 h 1.710937 z m 2.100586,1.1367187 v -0.7148437 h 0.667969 v 0.7148437 z m 0,2.9882812625 V -0.70408594 h 0.667969 V -9.609375e-4 Z M 30.652492,-1.5712734 c 0,0.5097656 -0.152344,0.91113278 -0.457031,1.20703121 -0.298828,0.29003907 -0.714844,0.43359375 -1.253906,0.43359375 -0.445313,0 -0.808594,-0.09667968 -1.089844,-0.29296875 -0.275391,-0.19335937 -0.445313,-0.48046875 -0.515625,-0.85546871 l 0.621094,-0.070312 c 0.131836,0.47753903 0.46875,0.71484371 1.007812,0.71484371 0.328125,0 0.585938,-0.0966797 0.773438,-0.29296875 0.1875,-0.20214843 0.28125,-0.48046876 0.28125,-0.83203126 0,-0.3046875 -0.09375,-0.5507812 -0.28125,-0.7382812 -0.1875,-0.1875 -0.442383,-0.28125 -0.761719,-0.28125 -0.172852,0 -0.328125,0.029297 -0.46875,0.082031 -0.140625,0.055664 -0.287109,0.1464844 -0.433594,0.2695313 h -0.597656 l 0.164062,-2.5898438 h 2.742188 v 0.515625 h -2.179688 l -0.09375,1.5351563 c 0.263672,-0.2109375 0.597657,-0.3164063 0.996094,-0.3164063 0.46875,0 0.84375,0.140625 1.125,0.421875 0.28125,0.28125 0.421875,0.6445313 0.421875,1.0898435 z m 3.916992,-0.84375 c 0,0.805664 -0.140625,1.42382809 -0.421875,1.85156246 -0.28125,0.421875 -0.700195,0.6328125 -1.253906,0.6328125 -0.55664,0 -0.972656,-0.2109375 -1.253906,-0.6328125 -0.28125,-0.421875 -0.421875,-1.03710936 -0.421875,-1.85156246 0,-0.8261719 0.134766,-1.4472657 0.410156,-1.8632813 0.272461,-0.4130859 0.697266,-0.6210937 1.277344,-0.6210937 0.568359,0 0.987305,0.2109375 1.253906,0.6328125 0.272461,0.4160156 0.410156,1.03125 0.410156,1.8515625 z m -0.621093,0 c 0,-0.694336 -0.08203,-1.1982422 -0.246094,-1.5117188 -0.158203,-0.3105469 -0.421875,-0.46875 -0.796875,-0.46875 -0.375,0 -0.644531,0.1582031 -0.808594,0.46875 -0.164062,0.3046875 -0.246094,0.8085938 -0.246094,1.5117188 0,0.6884765 0.08203,1.1923828 0.246094,1.51171871 0.164063,0.31347657 0.427735,0.46875 0.796875,0.46875 0.366211,0 0.632813,-0.15820312 0.796875,-0.48046875 0.169922,-0.32812496 0.257813,-0.82617186 0.257813,-1.49999996 z m 4.514648,0 c 0,0.805664 -0.140625,1.42382809 -0.421875,1.85156246 -0.28125,0.421875 -0.700195,0.6328125 -1.253906,0.6328125 -0.556641,0 -0.972656,-0.2109375 -1.253906,-0.6328125 -0.28125,-0.421875 -0.421875,-1.03710936 -0.421875,-1.85156246 0,-0.8261719 0.134765,-1.4472657 0.410156,-1.8632813 0.272461,-0.4130859 0.697265,-0.6210937 1.277344,-0.6210937 0.568359,0 0.987304,0.2109375 1.253906,0.6328125 0.272461,0.4160156 0.410156,1.03125 0.410156,1.8515625 z m -0.621094,0 c 0,-0.694336 -0.08203,-1.1982422 -0.246093,-1.5117188 -0.158204,-0.3105469 -0.421875,-0.46875 -0.796875,-0.46875 -0.375,0 -0.644532,0.1582031 -0.808594,0.46875 -0.164063,0.3046875 -0.246094,0.8085938 -0.246094,1.5117188 0,0.6884765 0.08203,1.1923828 0.246094,1.51171871 0.164062,0.31347657 0.427734,0.46875 0.796875,0.46875 0.366211,0 0.632812,-0.15820312 0.796875,-0.48046875 0.169922,-0.32812496 0.257812,-0.82617186 0.257812,-1.49999996 z m 4.514649,0 c 0,0.805664 -0.140625,1.42382809 -0.421875,1.85156246 -0.28125,0.421875 -0.700196,0.6328125 -1.253906,0.6328125 -0.556641,0 -0.972657,-0.2109375 -1.253907,-0.6328125 -0.28125,-0.421875 -0.421875,-1.03710936 -0.421875,-1.85156246 0,-0.8261719 0.134766,-1.4472657 0.410157,-1.8632813 0.27246,-0.4130859 0.697265,-0.6210937 1.277343,-0.6210937 0.56836,0 0.987305,0.2109375 1.253907,0.6328125 0.27246,0.4160156 0.410156,1.03125 0.410156,1.8515625 z m -0.621094,0 c 0,-0.694336 -0.08203,-1.1982422 -0.246094,-1.5117188 -0.158203,-0.3105469 -0.421875,-0.46875 -0.796875,-0.46875 -0.375,0 -0.644531,0.1582031 -0.808593,0.46875 -0.164063,0.3046875 -0.246094,0.8085938 -0.246094,1.5117188 0,0.6884765 0.08203,1.1923828 0.246094,1.51171871 0.164062,0.31347657 0.427734,0.46875 0.796875,0.46875 0.36621,0 0.632812,-0.15820312 0.796875,-0.48046875 C 41.647609,-1.2431484 41.7355,-1.7411953 41.7355,-2.4150234 Z m 1.432617,2.4140624625 V -0.52830469 h 1.21875 V -4.2314297 l -1.078125,0.7734375 v -0.5859375 l 1.136719,-0.7734375 h 0.5625 v 4.28906251 h 1.171875 v 0.5273437525 z m 0,0"
       style="fill:#000000;fill-opacity:1;fill-rule:nonzero;stroke:none"
       aria-label="1.2.3.44:50001"
       transform="matrix(1.3333333,0,0,1.3333333,179.60267,150.388)" />
    <path
       id="path25"
       d="M 0.53814063,-0.0014375 V -0.52878125 H 1.7568906 V -4.2319063 L 0.67876563,-3.4584688 V -4.0444063 L 1.8154844,-4.8178438 h 0.5625 v 4.28906255 h 1.171875 V -0.0014375 Z M 7.4551328,-2.50925 c 0,0.8291016 -0.1523437,1.4648437 -0.4570312,1.91015625 C 6.6992734,-0.15378125 6.2715391,0.068875 5.7090391,0.068875 c -0.375,0 -0.6767578,-0.07617188 -0.9023438,-0.234375 C 4.5781797,-0.3295625 4.4141172,-0.587375 4.3145078,-0.9389375 l 0.5976563,-0.09375 c 0.1171875,0.40722656 0.3867187,0.609375 0.8085937,0.609375 0.3515625,0 0.6240235,-0.1640625 0.8203125,-0.4921875 0.1933594,-0.3339844 0.2958985,-0.8085938 0.3046875,-1.4179688 -0.087891,0.2109375 -0.243164,0.3808594 -0.46875,0.5039063 -0.2197265,0.1259766 -0.4628906,0.1875 -0.7265625,0.1875 -0.430664,0 -0.7792969,-0.1464844 -1.0429687,-0.4453125 -0.2578125,-0.2958984 -0.3867188,-0.6914063 -0.3867188,-1.1835938 0,-0.5068359 0.140625,-0.9052734 0.421875,-1.1953125 0.28125,-0.2871093 0.6738281,-0.4335937 1.1835938,-0.4335937 0.5390625,0 0.9433593,0.1992187 1.21875,0.5976562 0.2724609,0.3984375 0.4101562,0.9960938 0.4101562,1.7929688 z M 6.7871641,-3.1069063 c 0,-0.3808593 -0.09082,-0.6914062 -0.2695313,-0.9257812 -0.1816406,-0.2402344 -0.4189453,-0.3632813 -0.7148437,-0.3632813 -0.2988282,0 -0.5332032,0.1025391 -0.703125,0.3046875 -0.1728516,0.2050782 -0.2578125,0.4775391 -0.2578125,0.8203125 0,0.3515625 0.084961,0.6298829 0.2578125,0.8320313 0.1699218,0.2050781 0.4042968,0.3046875 0.703125,0.3046875 0.1699218,0 0.3339843,-0.038086 0.4921875,-0.1171875 C 6.45025,-2.3363984 6.5703672,-2.4535859 6.6582578,-2.603 6.7432188,-2.7494844 6.7871641,-2.9194063 6.7871641,-3.1069063 Z M 8.13775,-0.0014375 v -0.43359375 c 0.1171875,-0.26367188 0.2578125,-0.49804688 0.421875,-0.70312505 0.1699219,-0.2109375 0.3457031,-0.3984375 0.5273438,-0.5625 0.1875,-0.1640625 0.3691406,-0.3164062 0.5507812,-0.4570312 0.1875,-0.140625 0.3515625,-0.28125 0.492188,-0.421875 0.146484,-0.140625 0.263671,-0.2871094 0.351562,-0.4453125 0.09375,-0.1552734 0.140625,-0.3310547 0.140625,-0.5273438 0,-0.2636718 -0.0791,-0.46875 -0.234375,-0.609375 C 10.229547,-4.3080781 10.01568,-4.38425 9.7432188,-4.38425 c -0.2666016,0 -0.4863282,0.070312 -0.65625,0.2109375 C 8.9229063,-4.0326875 8.8232969,-3.8334688 8.794,-3.5756563 L 8.1611875,-3.63425 c 0.046875,-0.3808594 0.2109375,-0.6855469 0.4921875,-0.9140625 0.28125,-0.234375 0.6445313,-0.3515625 1.0898438,-0.3515625 0.4833982,0 0.8554692,0.1171875 1.1132812,0.3515625 0.263672,0.2285156 0.398438,0.5507812 0.398438,0.9726562 0,0.1875 -0.04395,0.375 -0.128907,0.5625 -0.08789,0.1816407 -0.216797,0.3632813 -0.386718,0.5507813 -0.164063,0.1875 -0.486329,0.4746094 -0.960938,0.8554687 -0.2666016,0.2197266 -0.4775391,0.4160157 -0.6328125,0.5859375 -0.1494141,0.17285161 -0.2578125,0.33691411 -0.328125,0.49218755 h 2.5195315 v 0.52734375 z m 4.186523,0 v -0.75 h 0.667969 v 0.75 z m 1.792969,0 v -0.52734375 h 1.21875 V -4.2319063 l -1.078125,0.7734375 v -0.5859375 l 1.136719,-0.7734375 h 0.5625 v 4.28906255 h 1.171875 v 0.52734375 z m 6.9375,-1.5820313 c 0,0.515625 -0.137695,0.92285161 -0.410156,1.21875005 -0.275391,0.29003906 -0.65625,0.43359375 -1.148438,0.43359375 -0.539062,0 -0.955078,-0.20214844 -1.242187,-0.609375 -0.290039,-0.40429688 -0.433594,-0.9902344 -0.433594,-1.7578125 0,-0.8349609 0.146485,-1.4765625 0.445313,-1.921875 0.304687,-0.4511719 0.732422,-0.6796875 1.289062,-0.6796875 0.726563,0 1.183594,0.328125 1.371094,0.984375 l -0.585938,0.1054687 c -0.125976,-0.3896484 -0.392578,-0.5859375 -0.796875,-0.5859375 -0.351562,0 -0.626953,0.1640625 -0.820312,0.4921875 -0.1875,0.328125 -0.28125,0.8027344 -0.28125,1.4179688 0.108398,-0.2021484 0.263672,-0.3574219 0.46875,-0.46875 0.202148,-0.1083984 0.433594,-0.1640625 0.691406,-0.1640625 0.445313,0 0.796875,0.140625 1.054688,0.421875 0.263672,0.2753906 0.398437,0.6445312 0.398437,1.1132812 z m -0.621094,0.035156 c 0,-0.3515625 -0.08789,-0.6210938 -0.257812,-0.8085938 -0.172852,-0.1875 -0.410156,-0.28125 -0.714844,-0.28125 -0.290039,0 -0.524414,0.087891 -0.703125,0.2578125 -0.172851,0.1640625 -0.257812,0.3925782 -0.257812,0.6796875 0,0.375 0.08789,0.6855469 0.269531,0.9257813 0.1875,0.234375 0.424805,0.3515625 0.714844,0.3515625 0.295898,0 0.527343,-0.0996094 0.691406,-0.3046875 0.169922,-0.20214844 0.257812,-0.4746094 0.257812,-0.8203125 z m 4.526368,0.1992187 c 0,0.44531255 -0.146485,0.79394536 -0.433594,1.0429688 -0.28125,0.25195312 -0.688477,0.375 -1.21875,0.375 -0.515625,0 -0.919922,-0.12011719 -1.207031,-0.36328125 -0.290039,-0.24902344 -0.433594,-0.59765625 -0.433594,-1.04296875 0,-0.3105469 0.08789,-0.5742188 0.269531,-0.7851563 0.178711,-0.2167968 0.410156,-0.3515625 0.691406,-0.3984375 v -0.011719 c -0.266601,-0.061523 -0.474609,-0.1933594 -0.621093,-0.3984375 -0.149414,-0.2109375 -0.222657,-0.4511719 -0.222657,-0.7265625 0,-0.3662109 0.134766,-0.6621094 0.410157,-0.890625 0.272461,-0.234375 0.638672,-0.3515625 1.101562,-0.3515625 0.47461,0 0.84961,0.1142578 1.125,0.3398437 0.272461,0.2285157 0.410156,0.5273438 0.410156,0.9023438 0,0.28125 -0.0791,0.5244141 -0.234375,0.7265625 -0.149414,0.2050781 -0.357421,0.3339844 -0.621093,0.3867187 v 0.011719 c 0.310547,0.055664 0.553711,0.1875 0.726562,0.3984375 0.169922,0.2109375 0.257813,0.4746094 0.257813,0.7851563 z m -0.761719,-2.2734375 c 0,-0.5390625 -0.301758,-0.8085937 -0.902344,-0.8085937 -0.290039,0 -0.512695,0.070312 -0.667969,0.2109375 -0.149414,0.1347656 -0.222656,0.3339844 -0.222656,0.5976562 0,0.28125 0.07617,0.4980469 0.234375,0.6445313 0.155274,0.140625 0.37793,0.2109375 0.667969,0.2109375 0.287109,0 0.506836,-0.064453 0.65625,-0.1992188 0.155273,-0.1318359 0.234375,-0.3515625 0.234375,-0.65625 z m 0.117187,2.2148438 c 0,-0.2958984 -0.09082,-0.5185547 -0.269531,-0.6679688 -0.18164,-0.1552734 -0.430664,-0.234375 -0.75,-0.234375 -0.313476,0 -0.55957,0.082031 -0.738281,0.2460938 -0.172852,0.1640625 -0.257813,0.3867187 -0.257813,0.6679687 0,0.66503911 0.339844,0.9960938 1.019532,0.9960938 0.333984,0 0.585937,-0.0761719 0.75,-0.234375 0.164062,-0.1640625 0.246093,-0.421875 0.246093,-0.7734375 z m 1.584961,1.40625 v -0.75 h 0.667969 v 0.75 z m 4.875,-2.4140625 c 0,0.8056641 -0.140625,1.42382812 -0.421875,1.8515625 -0.28125,0.421875 -0.700195,0.6328125 -1.253906,0.6328125 -0.556641,0 -0.972656,-0.2109375 -1.253906,-0.6328125 -0.28125,-0.421875 -0.421875,-1.0371094 -0.421875,-1.8515625 0,-0.8261719 0.134765,-1.4472656 0.410156,-1.8632813 0.272461,-0.4130859 0.697266,-0.6210937 1.277344,-0.6210937 0.568359,0 0.987305,0.2109375 1.253906,0.6328125 0.272461,0.4160156 0.410156,1.03125 0.410156,1.8515625 z m -0.621093,0 c 0,-0.6943359 -0.08203,-1.1982422 -0.246094,-1.5117188 -0.158203,-0.3105468 -0.421875,-0.46875 -0.796875,-0.46875 -0.375,0 -0.644531,0.1582032 -0.808594,0.46875 -0.164062,0.3046875 -0.246094,0.8085938 -0.246094,1.5117188 0,0.6884766 0.08203,1.1923828 0.246094,1.51171875 0.164063,0.31347656 0.427734,0.46875 0.796875,0.46875 0.366211,0 0.632813,-0.15820313 0.796875,-0.48046875 0.169922,-0.328125 0.257813,-0.8261719 0.257813,-1.5 z m 1.538086,2.4140625 v -0.75 h 0.667968 v 0.75 z M 36.54107,-1.57175 c 0,0.5097656 -0.152343,0.91113281 -0.457031,1.20703125 -0.298828,0.29003906 -0.714844,0.43359375 -1.253906,0.43359375 -0.445313,0 -0.808594,-0.09667969 -1.089844,-0.29296875 -0.275391,-0.19335938 -0.445312,-0.48046875 -0.515625,-0.85546875 l 0.621094,-0.070312 c 0.131836,0.47753906 0.46875,0.71484375 1.007812,0.71484375 0.328125,0 0.585938,-0.0966797 0.773438,-0.29296875 0.1875,-0.20214844 0.28125,-0.4804688 0.28125,-0.8320313 0,-0.3046875 -0.09375,-0.5507812 -0.28125,-0.7382812 -0.1875,-0.1875 -0.442383,-0.28125 -0.761719,-0.28125 -0.172851,0 -0.328125,0.029297 -0.46875,0.082031 -0.140625,0.055664 -0.287109,0.1464844 -0.433594,0.2695313 h -0.597656 l 0.164063,-2.5898438 h 2.742187 v 0.515625 h -2.179687 l -0.09375,1.5351563 c 0.263671,-0.2109375 0.597656,-0.3164063 0.996093,-0.3164063 0.46875,0 0.84375,0.140625 1.125,0.421875 0.28125,0.28125 0.421875,0.6445313 0.421875,1.0898435 z m 3.893555,0 c 0,0.5097656 -0.152344,0.91113281 -0.457031,1.20703125 -0.298828,0.29003906 -0.714844,0.43359375 -1.253906,0.43359375 -0.445313,0 -0.808594,-0.09667969 -1.089844,-0.29296875 -0.275391,-0.19335938 -0.445313,-0.48046875 -0.515625,-0.85546875 l 0.621094,-0.070312 c 0.131835,0.47753906 0.46875,0.71484375 1.007812,0.71484375 0.328125,0 0.585938,-0.0966797 0.773438,-0.29296875 0.1875,-0.20214844 0.28125,-0.4804688 0.28125,-0.8320313 0,-0.3046875 -0.09375,-0.5507812 -0.28125,-0.7382812 -0.1875,-0.1875 -0.442383,-0.28125 -0.761719,-0.28125 -0.172852,0 -0.328125,0.029297 -0.46875,0.082031 -0.140625,0.055664 -0.28711,0.1464844 -0.433594,0.2695313 h -0.597656 l 0.164062,-2.5898438 h 2.742188 v 0.515625 h -2.179688 l -0.09375,1.5351563 c 0.263672,-0.2109375 0.597657,-0.3164063 0.996094,-0.3164063 0.46875,0 0.84375,0.140625 1.125,0.421875 0.28125,0.28125 0.421875,0.6445313 0.421875,1.0898435 z m 0.94043,-1.4179688 v -0.7148437 h 0.667968 v 0.7148437 z m 0,2.9882813 v -0.703125 h 0.667968 v 0.703125 z m 4.265625,-1.0898438 v 1.0898438 H 45.066461 V -1.0912813 H 42.793023 V -1.57175 l 2.203125,-3.2460938 h 0.644532 v 3.234375 h 0.679687 v 0.4921875 z m -0.574219,-3.0351562 c -0.0088,0.017578 -0.04394,0.079102 -0.105469,0.1875 -0.05566,0.1025391 -0.09961,0.1757812 -0.128906,0.2226562 l -1.230469,1.8164063 -0.1875,0.2578125 -0.05859,0.058594 h 1.710938 z m 4.467773,3.0351562 v 1.0898438 H 48.960016 V -1.0912813 H 46.686578 V -1.57175 l 2.203125,-3.2460938 h 0.644531 v 3.234375 h 0.679688 v 0.4921875 z m -0.574218,-3.0351562 c -0.0088,0.017578 -0.04395,0.079102 -0.105469,0.1875 -0.05566,0.1025391 -0.09961,0.1757812 -0.128906,0.2226562 l -1.230469,1.8164063 -0.1875,0.2578125 -0.05859,0.058594 h 1.710938 z m 5.039062,2.7890625 c 0,0.4453125 -0.140625,0.79394531 -0.421875,1.04296875 -0.28125,0.24316406 -0.685547,0.36328125 -1.207031,0.36328125 -0.492188,0 -0.884766,-0.10839844 -1.171875,-0.328125 -0.290039,-0.22558594 -0.462891,-0.55371094 -0.515625,-0.984375 l 0.632812,-0.058594 c 0.08496,0.57128911 0.436524,0.8554688 1.054688,0.8554688 0.304687,0 0.544922,-0.0732422 0.726562,-0.22265625 0.178711,-0.15527344 0.269532,-0.38085935 0.269532,-0.67968755 0,-0.2636718 -0.102539,-0.4716796 -0.304688,-0.6210937 C 52.8565,-2.1166721 52.563531,-2.192844 52.182672,-2.192844 h -0.351563 v -0.5273437 h 0.339844 c 0.333985,0 0.597656,-0.073242 0.785156,-0.2226563 0.1875,-0.1464843 0.28125,-0.3515625 0.28125,-0.609375 0,-0.2578125 -0.0791,-0.4599609 -0.234375,-0.609375 -0.149414,-0.1464843 -0.37207,-0.2226562 -0.667968,-0.2226562 -0.275391,0 -0.498047,0.070312 -0.667969,0.2109375 -0.164063,0.1347656 -0.257813,0.328125 -0.28125,0.5859375 L 50.764703,-3.63425 c 0.04687,-0.3984375 0.210938,-0.7060547 0.492188,-0.9257813 0.28125,-0.2255859 0.638672,-0.3398437 1.078125,-0.3398437 0.483398,0 0.858398,0.1142578 1.125,0.3398437 0.272461,0.2285157 0.410156,0.5390625 0.410156,0.9375 0,0.3134766 -0.08789,0.5683594 -0.257813,0.7617188 -0.172851,0.1875 -0.421875,0.3164062 -0.75,0.3867187 v 0.011719 c 0.357422,0.041016 0.635743,0.1611328 0.832032,0.3632812 0.202148,0.2050782 0.304687,0.4570313 0.304687,0.7617186 z m 0,0"
       style="fill:#000000;fill-opacity:1;fill-rule:nonzero;stroke:none"
       aria-label="192.168.0.55:443"
       transform="matrix(1.3333333,0,0,1.3333333,78.274667,167.47067)" />
    <path
       id="path26"
       d="M 0.53823438,-0.0014375 V -0.52878125 H 1.7569844 V -4.2319063 L 0.67885938,-3.4584688 V -4.0444063 L 1.8155781,-4.8178438 h 0.5625 v 4.28906255 h 1.171875 v 0.52734375 z m 3.99902342,0 v -0.75 h 0.6679688 v 0.75 z m 1.6054688,0 v -0.43359375 c 0.1171875,-0.26367188 0.2578125,-0.49804688 0.421875,-0.70312505 0.1699218,-0.2109375 0.3457031,-0.3984375 0.5273437,-0.5625 0.1875,-0.1640625 0.3691406,-0.3164062 0.5507813,-0.4570312 0.1875,-0.140625 0.3515625,-0.28125 0.4921875,-0.421875 0.1464843,-0.140625 0.2636718,-0.2871094 0.3515625,-0.4453125 0.09375,-0.1552734 0.140625,-0.3310547 0.140625,-0.5273438 0,-0.2636718 -0.079102,-0.46875 -0.234375,-0.609375 C 8.2345234,-4.3080781 8.0206563,-4.38425 7.7481953,-4.38425 c -0.2666015,0 -0.4863281,0.070312 -0.65625,0.2109375 -0.1640625,0.140625 -0.2636719,0.3398437 -0.2929687,0.5976562 L 6.1661641,-3.63425 c 0.046875,-0.3808594 0.2109375,-0.6855469 0.4921875,-0.9140625 0.28125,-0.234375 0.6445312,-0.3515625 1.0898437,-0.3515625 0.4833985,0 0.8554688,0.1171875 1.1132813,0.3515625 0.2636718,0.2285156 0.3984375,0.5507812 0.3984375,0.9726562 0,0.1875 -0.043945,0.375 -0.1289063,0.5625 -0.087891,0.1816407 -0.2167969,0.3632813 -0.3867187,0.5507813 -0.1640625,0.1875 -0.4863282,0.4746094 -0.9609375,0.8554687 -0.2666016,0.2197266 -0.4775391,0.4160157 -0.6328125,0.5859375 -0.1494141,0.17285161 -0.2578125,0.33691411 -0.328125,0.49218755 h 2.5195312 v 0.52734375 z m 4.1865234,0 v -0.75 h 0.667969 v 0.75 z m 4.836914,-1.3359375 c 0,0.4453125 -0.140625,0.79394531 -0.421875,1.04296875 -0.28125,0.24316406 -0.685547,0.36328125 -1.207031,0.36328125 -0.492188,0 -0.884766,-0.10839844 -1.171875,-0.328125 -0.290039,-0.22558594 -0.462891,-0.55371094 -0.515625,-0.984375 l 0.632812,-0.058594 c 0.08496,0.57128911 0.436524,0.8554688 1.054688,0.8554688 0.304687,0 0.544922,-0.0732422 0.726562,-0.22265625 0.178711,-0.15527344 0.269532,-0.38085935 0.269532,-0.67968755 0,-0.2636718 -0.102539,-0.4716796 -0.304688,-0.6210937 -0.205078,-0.1464844 -0.498047,-0.2226563 -0.878906,-0.2226563 h -0.351563 v -0.5273437 h 0.339844 c 0.333984,0 0.597656,-0.073242 0.785156,-0.2226563 0.1875,-0.1464843 0.28125,-0.3515625 0.28125,-0.609375 0,-0.2578125 -0.0791,-0.4599609 -0.234375,-0.609375 -0.149414,-0.1464841 -0.37207,-0.222656 -0.667968,-0.222656 -0.275391,0 -0.498047,0.070312 -0.667969,0.2109375 -0.164063,0.1347656 -0.257813,0.328125 -0.28125,0.5859375 L 11.931789,-3.63425 c 0.04687,-0.3984375 0.210938,-0.7060547 0.492188,-0.9257813 0.28125,-0.2255859 0.638671,-0.3398437 1.078125,-0.3398437 0.483398,0 0.858398,0.1142578 1.125,0.3398437 0.272461,0.2285157 0.410156,0.5390625 0.410156,0.9375 0,0.3134766 -0.08789,0.5683594 -0.257813,0.7617188 -0.172851,0.1875 -0.421875,0.3164062 -0.75,0.3867187 v 0.011719 c 0.357422,0.041016 0.635743,0.1611328 0.832032,0.3632812 0.202148,0.2050782 0.304687,0.4570313 0.304687,0.7617186 z m 0.952149,1.3359375 v -0.75 h 0.667968 v 0.75 z m 4.265625,-1.0898438 v 1.0898438 H 19.809719 V -1.0912813 H 17.536281 V -1.57175 l 2.203125,-3.2460938 h 0.644532 v 3.234375 h 0.679687 v 0.4921875 z m -0.574219,-3.0351562 c -0.0088,0.017578 -0.04395,0.079102 -0.105469,0.1875 -0.05566,0.1025391 -0.09961,0.1757812 -0.128906,0.2226562 l -1.230469,1.8164063 -0.1875,0.2578125 -0.05859,0.058594 h 1.710938 z m 4.467773,3.0351562 v 1.0898438 H 23.703273 V -1.0912813 H 21.429836 V -1.57175 l 2.203125,-3.2460938 h 0.644531 v 3.234375 h 0.679688 v 0.4921875 z m -0.574219,-3.0351562 c -0.0088,0.017578 -0.04395,0.079102 -0.105468,0.1875 -0.05566,0.1025391 -0.09961,0.1757812 -0.128907,0.2226562 l -1.230468,1.8164063 -0.1875,0.2578125 -0.05859,0.058594 h 1.710937 z m 2.100586,1.1367187 v -0.7148437 h 0.667969 v 0.7148437 z m 0,2.9882813 v -0.703125 h 0.667969 v 0.703125 z m 4.262696,-1.0898438 v 1.0898438 H 29.492336 V -1.0912813 H 27.218898 V -1.57175 l 2.203125,-3.2460938 h 0.644532 v 3.234375 h 0.679687 v 0.4921875 z m -0.574219,-3.0351562 c -0.0088,0.017578 -0.04395,0.079102 -0.105469,0.1875 -0.05566,0.1025391 -0.09961,0.1757812 -0.128906,0.2226562 l -1.230469,1.8164063 -0.1875,0.2578125 -0.05859,0.058594 h 1.710938 z m 4.467773,3.0351562 v 1.0898438 H 33.385891 V -1.0912813 H 31.112453 V -1.57175 l 2.203125,-3.2460938 h 0.644531 v 3.234375 h 0.679688 v 0.4921875 z m -0.574218,-3.0351562 c -0.0088,0.017578 -0.04395,0.079102 -0.105469,0.1875 -0.05566,0.1025391 -0.09961,0.1757812 -0.128906,0.2226562 l -1.230469,1.8164063 -0.1875,0.2578125 -0.05859,0.058594 h 1.710938 z m 5.041992,2.7890625 c 0,0.4453125 -0.140625,0.79394531 -0.421875,1.04296875 -0.28125,0.24316406 -0.685547,0.36328125 -1.207031,0.36328125 -0.492188,0 -0.884766,-0.10839844 -1.171875,-0.328125 -0.290039,-0.22558594 -0.462891,-0.55371094 -0.515625,-0.984375 l 0.632812,-0.058594 c 0.08496,0.57128911 0.436524,0.8554688 1.054688,0.8554688 0.304687,0 0.544921,-0.0732422 0.726562,-0.22265625 0.178711,-0.15527344 0.269531,-0.38085935 0.269531,-0.67968755 0,-0.2636718 -0.102539,-0.4716796 -0.304687,-0.6210937 -0.205078,-0.1464844 -0.498047,-0.2226563 -0.878906,-0.2226563 h -0.351563 v -0.5273437 h 0.339844 c 0.333984,0 0.597656,-0.073242 0.785156,-0.2226563 0.1875,-0.1464843 0.28125,-0.3515625 0.28125,-0.609375 0,-0.2578125 -0.0791,-0.4599609 -0.234375,-0.609375 -0.149414,-0.1464843 -0.37207,-0.2226562 -0.667969,-0.2226562 -0.27539,0 -0.498047,0.070312 -0.667968,0.2109375 -0.164063,0.1347656 -0.257813,0.328125 -0.28125,0.5859375 L 35.193508,-3.63425 c 0.04687,-0.3984375 0.210937,-0.7060547 0.492187,-0.9257813 0.28125,-0.2255859 0.638672,-0.3398437 1.078125,-0.3398437 0.483399,0 0.858399,0.1142578 1.125,0.3398437 0.272461,0.2285157 0.410157,0.5390625 0.410157,0.9375 0,0.3134766 -0.08789,0.5683594 -0.257813,0.7617188 -0.172851,0.1875 -0.421875,0.3164062 -0.75,0.3867187 v 0.011719 c 0.357422,0.041016 0.635742,0.1611328 0.832031,0.3632812 0.202149,0.2050782 0.304688,0.4570313 0.304688,0.7617186 z m 0,0"
       style="fill:#000000;fill-opacity:1;fill-rule:nonzero;stroke:none"
       aria-label="1.2.3.44:443"
       transform="matrix(1.3333333,0,0,1.3333333,179.60267,167.47067)" />
  </g>
</svg>
